# MagicaVoxel @ Ephtracy

# group
g untitled

# material
mtllib untitled.mtl
usemtl palette

# normals
vn -1 0 0
vn 1 0 0
vn 0 0 1
vn 0 0 -1
vn 0 -1 0
vn 0 1 0

# texcoords
vt 0.193359 0.5
vt 0.224609 0.5
vt 0.388672 0.5

# verts
v -6 2 2
v -6 2 1
v -6 2 -2
v -6 2 -3
v -6 3 -2
v -6 3 -3
v -6 4 2
v -6 4 1
v -6 4 -3
v -5 0 2
v -5 0 1
v -5 0 -2
v -5 0 -3
v -5 1 2
v -5 1 1
v -5 1 -2
v -5 1 -3
v -5 2 3
v -5 2 2
v -5 2 1
v -5 2 -2
v -5 2 -3
v -5 2 -4
v -5 3 3
v -5 3 2
v -5 3 -3
v -5 4 3
v -5 4 2
v -5 4 -3
v -5 4 -4
v -4 3 2
v -4 3 1
v -4 3 -0
v -4 3 -1
v -4 3 -2
v -4 3 -3
v -4 4 2
v -4 4 1
v -4 4 -0
v -4 4 -1
v -4 4 -2
v -4 4 -3
v -3 3 1
v -3 3 -0
v -3 3 -1
v -3 3 -2
v -3 4 1
v -3 4 -0
v -3 4 -1
v -3 4 -2
v -2 3 2
v -2 3 1
v -2 3 -0
v -2 3 -1
v -2 3 -2
v -2 3 -3
v -2 4 2
v -2 4 1
v -2 4 -0
v -2 4 -1
v -2 4 -2
v -2 4 -3
v -1 0 2
v -1 0 1
v -1 0 -2
v -1 0 -3
v -1 1 2
v -1 1 1
v -1 1 -2
v -1 1 -3
v -1 3 1
v -1 3 -0
v -1 3 -1
v -1 3 -2
v -1 4 1
v -1 4 -0
v -1 4 -1
v -1 4 -2
v 0 3 2
v 0 3 1
v 0 3 -0
v 0 3 -1
v 0 3 -2
v 0 3 -3
v 0 4 2
v 0 4 1
v 0 4 -0
v 0 4 -1
v 0 4 -2
v 0 4 -3
v -5 3 2
v -5 3 1
v -5 3 -0
v -5 3 -1
v -5 3 -2
v -5 3 -3
v -5 4 2
v -5 4 1
v -5 4 -0
v -5 4 -1
v -5 4 -2
v -5 4 -3
v -4 0 2
v -4 0 1
v -4 0 -2
v -4 0 -3
v -4 1 2
v -4 1 1
v -4 1 -2
v -4 1 -3
v -4 3 1
v -4 3 -0
v -4 3 -1
v -4 3 -2
v -4 4 1
v -4 4 -0
v -4 4 -1
v -4 4 -2
v -3 3 2
v -3 3 1
v -3 3 -0
v -3 3 -1
v -3 3 -2
v -3 3 -3
v -3 4 2
v -3 4 1
v -3 4 -0
v -3 4 -1
v -3 4 -2
v -3 4 -3
v -2 3 1
v -2 3 -0
v -2 3 -1
v -2 3 -2
v -2 4 1
v -2 4 -0
v -2 4 -1
v -2 4 -2
v -1 3 2
v -1 3 1
v -1 3 -0
v -1 3 -1
v -1 3 -2
v -1 3 -3
v -1 4 2
v -1 4 1
v -1 4 -0
v -1 4 -1
v -1 4 -2
v -1 4 -3
v 0 0 2
v 0 0 1
v 0 0 -2
v 0 0 -3
v 0 1 2
v 0 1 1
v 0 1 -2
v 0 1 -3
v 0 2 3
v 0 2 2
v 0 2 1
v 0 2 -2
v 0 2 -3
v 0 2 -4
v 0 3 2
v 0 3 -3
v 0 3 -4
v 0 4 3
v 0 4 2
v 0 4 -3
v 0 4 -4
v 1 2 2
v 1 2 1
v 1 2 -2
v 1 2 -3
v 1 3 2
v 1 3 1
v 1 4 2
v 1 4 -2
v 1 4 -3
v -5 2 3
v -5 3 3
v -5 4 3
v -4 2 3
v -4 3 3
v -1 2 3
v -1 4 3
v 0 2 3
v 0 4 3
v -6 2 2
v -6 4 2
v -5 0 2
v -5 1 2
v -5 2 2
v -5 3 2
v -5 4 2
v -4 0 2
v -4 1 2
v -4 2 2
v -1 0 2
v -1 1 2
v -1 2 2
v 0 0 2
v 0 1 2
v 0 2 2
v 0 3 2
v 0 4 2
v 1 2 2
v 1 3 2
v 1 4 2
v -5 3 1
v -5 4 1
v -4 3 1
v -4 4 1
v -3 3 1
v -3 4 1
v -2 3 1
v -2 4 1
v -1 3 1
v -1 4 1
v 0 3 1
v 0 4 1
v -4 3 -0
v -4 4 -0
v -3 3 -0
v -3 4 -0
v -2 3 -0
v -2 4 -0
v -1 3 -0
v -1 4 -0
v -5 3 -1
v -5 4 -1
v -4 3 -1
v -4 4 -1
v -3 3 -1
v -3 4 -1
v -2 3 -1
v -2 4 -1
v -1 3 -1
v -1 4 -1
v 0 3 -1
v 0 4 -1
v -5 0 -2
v -5 1 -2
v -4 0 -2
v -4 1 -2
v -4 3 -2
v -4 4 -2
v -3 3 -2
v -3 4 -2
v -2 3 -2
v -2 4 -2
v -1 0 -2
v -1 1 -2
v -1 3 -2
v -1 4 -2
v 0 0 -2
v 0 1 -2
v -5 3 -3
v -5 4 -3
v -4 3 -3
v -4 4 -3
v -3 3 -3
v -3 4 -3
v -2 3 -3
v -2 4 -3
v -1 3 -3
v -1 4 -3
v 0 3 -3
v 0 4 -3
v -5 3 2
v -5 4 2
v -4 3 2
v -4 4 2
v -3 3 2
v -3 4 2
v -2 3 2
v -2 4 2
v -1 3 2
v -1 4 2
v 0 3 2
v 0 4 2
v -5 0 1
v -5 1 1
v -4 0 1
v -4 1 1
v -4 3 1
v -4 4 1
v -3 3 1
v -3 4 1
v -2 3 1
v -2 4 1
v -1 0 1
v -1 1 1
v -1 3 1
v -1 4 1
v 0 0 1
v 0 1 1
v -5 3 -0
v -5 4 -0
v -4 3 -0
v -4 4 -0
v -3 3 -0
v -3 4 -0
v -2 3 -0
v -2 4 -0
v -1 3 -0
v -1 4 -0
v 0 3 -0
v 0 4 -0
v -4 3 -1
v -4 4 -1
v -3 3 -1
v -3 4 -1
v -2 3 -1
v -2 4 -1
v -1 3 -1
v -1 4 -1
v -5 3 -2
v -5 4 -2
v -4 3 -2
v -4 4 -2
v -3 3 -2
v -3 4 -2
v -2 3 -2
v -2 4 -2
v -1 3 -2
v -1 4 -2
v 0 3 -2
v 0 4 -2
v -6 2 -3
v -6 3 -3
v -6 4 -3
v -5 0 -3
v -5 1 -3
v -5 2 -3
v -5 3 -3
v -5 4 -3
v -4 0 -3
v -4 1 -3
v -4 2 -3
v -1 0 -3
v -1 1 -3
v -1 2 -3
v 0 0 -3
v 0 1 -3
v 0 2 -3
v 0 3 -3
v 0 4 -3
v 1 2 -3
v 1 4 -3
v -5 2 -4
v -5 4 -4
v -4 2 -4
v -4 4 -4
v -1 2 -4
v -1 3 -4
v 0 2 -4
v 0 3 -4
v 0 4 -4
v -5 0 2
v -4 0 2
v -1 0 2
v 0 0 2
v -5 0 1
v -4 0 1
v -1 0 1
v 0 0 1
v -5 0 -2
v -4 0 -2
v -1 0 -2
v 0 0 -2
v -5 0 -3
v -4 0 -3
v -1 0 -3
v 0 0 -3
v -4 1 2
v -1 1 2
v -5 1 1
v -4 1 1
v -1 1 1
v 0 1 1
v -5 1 -2
v -4 1 -2
v -1 1 -2
v 0 1 -2
v -4 1 -3
v -1 1 -3
v -5 2 3
v -4 2 3
v -1 2 3
v 0 2 3
v -6 2 2
v -5 2 2
v -4 2 2
v -1 2 2
v 0 2 2
v 1 2 2
v -6 2 1
v -5 2 1
v 0 2 1
v 1 2 1
v -6 2 -2
v -5 2 -2
v 0 2 -2
v 1 2 -2
v -6 2 -3
v -5 2 -3
v -4 2 -3
v -1 2 -3
v 0 2 -3
v 1 2 -3
v -5 2 -4
v -4 2 -4
v -1 2 -4
v 0 2 -4
v -5 3 2
v -4 3 2
v -3 3 2
v -2 3 2
v -1 3 2
v 0 3 2
v -5 3 1
v -4 3 1
v -3 3 1
v -2 3 1
v -1 3 1
v 0 3 1
v -5 3 -0
v -4 3 -0
v -3 3 -0
v -2 3 -0
v -1 3 -0
v 0 3 -0
v -5 3 -1
v -4 3 -1
v -3 3 -1
v -2 3 -1
v -1 3 -1
v 0 3 -1
v -5 3 -2
v -4 3 -2
v -3 3 -2
v -2 3 -2
v -1 3 -2
v 0 3 -2
v -5 3 -3
v -4 3 -3
v -3 3 -3
v -2 3 -3
v -1 3 -3
v 0 3 -3
v -5 4 3
v -1 4 3
v 0 4 3
v -6 4 2
v -5 4 2
v -4 4 2
v -3 4 2
v -2 4 2
v -1 4 2
v 0 4 2
v 1 4 2
v -6 4 1
v -5 4 1
v -4 4 1
v -3 4 1
v -2 4 1
v -1 4 1
v 0 4 1
v -5 4 -0
v -4 4 -0
v -3 4 -0
v -2 4 -0
v -1 4 -0
v 0 4 -0
v -5 4 -1
v -4 4 -1
v -3 4 -1
v -2 4 -1
v -1 4 -1
v 0 4 -1
v -5 4 -2
v -4 4 -2
v -3 4 -2
v -2 4 -2
v -1 4 -2
v 0 4 -2
v 1 4 -2
v -6 4 -3
v -5 4 -3
v -4 4 -3
v -3 4 -3
v -2 4 -3
v -1 4 -3
v 0 4 -3
v 1 4 -3
v -5 4 -4
v -4 4 -4
v 0 4 -4

# faces
f 5/2/1 3/2/1 2/2/1
f 5/1/1 4/1/1 3/1/1
f 6/1/1 4/1/1 5/1/1
f 7/1/1 2/1/1 1/1/1
f 8/2/1 5/2/1 2/2/1
f 8/1/1 2/1/1 7/1/1
f 8/2/1 6/2/1 5/2/1
f 9/2/1 6/2/1 8/2/1
f 14/3/1 11/3/1 10/3/1
f 15/3/1 11/3/1 14/3/1
f 16/3/1 13/3/1 12/3/1
f 17/3/1 13/3/1 16/3/1
f 19/2/1 15/2/1 14/2/1
f 19/2/1 16/2/1 15/2/1
f 19/2/1 17/2/1 16/2/1
f 20/2/1 17/2/1 19/2/1
f 21/2/1 17/2/1 20/2/1
f 22/2/1 17/2/1 21/2/1
f 24/1/1 19/1/1 18/1/1
f 25/1/1 19/1/1 24/1/1
f 26/1/1 23/1/1 22/1/1
f 27/2/1 25/2/1 24/2/1
f 28/2/1 25/2/1 27/2/1
f 29/1/1 23/1/1 26/1/1
f 30/1/1 23/1/1 29/1/1
f 37/2/1 32/2/1 31/2/1
f 38/2/1 32/2/1 37/2/1
f 39/2/1 34/2/1 33/2/1
f 40/2/1 34/2/1 39/2/1
f 41/2/1 36/2/1 35/2/1
f 42/2/1 36/2/1 41/2/1
f 47/2/1 44/2/1 43/2/1
f 48/2/1 44/2/1 47/2/1
f 49/2/1 46/2/1 45/2/1
f 50/2/1 46/2/1 49/2/1
f 57/2/1 52/2/1 51/2/1
f 58/2/1 52/2/1 57/2/1
f 59/2/1 54/2/1 53/2/1
f 60/2/1 54/2/1 59/2/1
f 61/2/1 56/2/1 55/2/1
f 62/2/1 56/2/1 61/2/1
f 67/3/1 64/3/1 63/3/1
f 68/3/1 64/3/1 67/3/1
f 69/3/1 66/3/1 65/3/1
f 70/3/1 66/3/1 69/3/1
f 75/2/1 72/2/1 71/2/1
f 76/2/1 72/2/1 75/2/1
f 77/2/1 74/2/1 73/2/1
f 78/2/1 74/2/1 77/2/1
f 85/2/1 80/2/1 79/2/1
f 86/2/1 80/2/1 85/2/1
f 87/2/1 82/2/1 81/2/1
f 88/2/1 82/2/1 87/2/1
f 89/1/1 84/1/1 83/1/1
f 90/1/1 84/1/1 89/1/1
f 91/1/2 92/1/2 97/1/2
f 97/1/2 92/1/2 98/1/2
f 93/2/2 94/2/2 99/2/2
f 99/2/2 94/2/2 100/2/2
f 95/2/2 96/2/2 101/2/2
f 101/2/2 96/2/2 102/2/2
f 103/3/2 104/3/2 107/3/2
f 107/3/2 104/3/2 108/3/2
f 105/3/2 106/3/2 109/3/2
f 109/3/2 106/3/2 110/3/2
f 111/2/2 112/2/2 115/2/2
f 115/2/2 112/2/2 116/2/2
f 113/2/2 114/2/2 117/2/2
f 117/2/2 114/2/2 118/2/2
f 119/2/2 120/2/2 125/2/2
f 125/2/2 120/2/2 126/2/2
f 121/2/2 122/2/2 127/2/2
f 127/2/2 122/2/2 128/2/2
f 123/2/2 124/2/2 129/2/2
f 129/2/2 124/2/2 130/2/2
f 131/2/2 132/2/2 135/2/2
f 135/2/2 132/2/2 136/2/2
f 133/2/2 134/2/2 137/2/2
f 137/2/2 134/2/2 138/2/2
f 139/2/2 140/2/2 145/2/2
f 145/2/2 140/2/2 146/2/2
f 141/2/2 142/2/2 147/2/2
f 147/2/2 142/2/2 148/2/2
f 143/2/2 144/2/2 149/2/2
f 149/2/2 144/2/2 150/2/2
f 151/3/2 152/3/2 155/3/2
f 155/3/2 152/3/2 156/3/2
f 153/3/2 154/3/2 157/3/2
f 157/3/2 154/3/2 158/3/2
f 155/2/2 156/2/2 160/2/2
f 156/2/2 157/2/2 160/2/2
f 157/2/2 158/2/2 160/2/2
f 160/2/2 158/2/2 161/2/2
f 161/2/2 158/2/2 162/2/2
f 162/2/2 158/2/2 163/2/2
f 159/1/2 160/1/2 165/1/2
f 163/1/2 164/1/2 166/1/2
f 166/1/2 164/1/2 167/1/2
f 159/1/2 165/1/2 168/1/2
f 168/1/2 165/1/2 169/1/2
f 166/2/2 167/2/2 170/2/2
f 170/2/2 167/2/2 171/2/2
f 172/1/2 173/1/2 176/1/2
f 173/2/2 174/2/2 177/2/2
f 176/1/2 173/1/2 177/1/2
f 176/2/2 177/2/2 178/2/2
f 174/1/2 175/1/2 179/1/2
f 178/2/2 177/2/2 179/2/2
f 177/2/2 174/2/2 179/2/2
f 179/1/2 175/1/2 180/1/2
f 184/1/3 182/1/3 181/1/3
f 185/2/3 183/2/3 182/2/3
f 185/1/3 182/1/3 184/1/3
f 186/2/3 185/2/3 184/2/3
f 187/2/3 183/2/3 185/2/3
f 187/2/3 185/2/3 186/2/3
f 188/1/3 187/1/3 186/1/3
f 189/1/3 187/1/3 188/1/3
f 194/1/3 191/1/3 190/1/3
f 195/1/3 191/1/3 194/1/3
f 196/1/3 191/1/3 195/1/3
f 197/3/3 193/3/3 192/3/3
f 198/2/3 194/2/3 193/2/3
f 198/3/3 193/3/3 197/3/3
f 199/2/3 194/2/3 198/2/3
f 201/2/3 199/2/3 198/2/3
f 202/2/3 199/2/3 201/2/3
f 203/3/3 201/3/3 200/3/3
f 204/2/3 202/2/3 201/2/3
f 204/3/3 201/3/3 203/3/3
f 205/2/3 202/2/3 204/2/3
f 208/1/3 206/1/3 205/1/3
f 209/2/3 207/2/3 206/2/3
f 209/1/3 206/1/3 208/1/3
f 210/2/3 207/2/3 209/2/3
f 213/2/3 212/2/3 211/2/3
f 214/2/3 212/2/3 213/2/3
f 217/2/3 216/2/3 215/2/3
f 218/2/3 216/2/3 217/2/3
f 221/2/3 220/2/3 219/2/3
f 222/2/3 220/2/3 221/2/3
f 225/2/3 224/2/3 223/2/3
f 226/2/3 224/2/3 225/2/3
f 229/2/3 228/2/3 227/2/3
f 230/2/3 228/2/3 229/2/3
f 233/2/3 232/2/3 231/2/3
f 234/2/3 232/2/3 233/2/3
f 237/2/3 236/2/3 235/2/3
f 238/2/3 236/2/3 237/2/3
f 241/2/3 240/2/3 239/2/3
f 242/2/3 240/2/3 241/2/3
f 245/3/3 244/3/3 243/3/3
f 246/3/3 244/3/3 245/3/3
f 249/2/3 248/2/3 247/2/3
f 250/2/3 248/2/3 249/2/3
f 255/2/3 252/2/3 251/2/3
f 256/2/3 252/2/3 255/2/3
f 257/3/3 254/3/3 253/3/3
f 258/3/3 254/3/3 257/3/3
f 261/1/3 260/1/3 259/1/3
f 262/1/3 260/1/3 261/1/3
f 265/2/3 264/2/3 263/2/3
f 266/2/3 264/2/3 265/2/3
f 269/2/3 268/2/3 267/2/3
f 270/2/3 268/2/3 269/2/3
f 271/2/4 272/2/4 273/2/4
f 273/2/4 272/2/4 274/2/4
f 275/2/4 276/2/4 277/2/4
f 277/2/4 276/2/4 278/2/4
f 279/1/4 280/1/4 281/1/4
f 281/1/4 280/1/4 282/1/4
f 283/3/4 284/3/4 285/3/4
f 285/3/4 284/3/4 286/3/4
f 287/2/4 288/2/4 289/2/4
f 289/2/4 288/2/4 290/2/4
f 291/2/4 292/2/4 295/2/4
f 295/2/4 292/2/4 296/2/4
f 293/3/4 294/3/4 297/3/4
f 297/3/4 294/3/4 298/3/4
f 299/2/4 300/2/4 301/2/4
f 301/2/4 300/2/4 302/2/4
f 303/2/4 304/2/4 305/2/4
f 305/2/4 304/2/4 306/2/4
f 307/2/4 308/2/4 309/2/4
f 309/2/4 308/2/4 310/2/4
f 311/2/4 312/2/4 313/2/4
f 313/2/4 312/2/4 314/2/4
f 315/2/4 316/2/4 317/2/4
f 317/2/4 316/2/4 318/2/4
f 319/2/4 320/2/4 321/2/4
f 321/2/4 320/2/4 322/2/4
f 323/2/4 324/2/4 325/2/4
f 325/2/4 324/2/4 326/2/4
f 327/2/4 328/2/4 329/2/4
f 329/2/4 328/2/4 330/2/4
f 331/1/4 332/1/4 336/1/4
f 332/2/4 333/2/4 337/2/4
f 336/1/4 332/1/4 337/1/4
f 337/2/4 333/2/4 338/2/4
f 334/3/4 335/3/4 339/3/4
f 335/2/4 336/2/4 340/2/4
f 339/3/4 335/3/4 340/3/4
f 340/2/4 336/2/4 341/2/4
f 340/2/4 341/2/4 343/2/4
f 343/2/4 341/2/4 344/2/4
f 342/3/4 343/3/4 345/3/4
f 343/2/4 344/2/4 346/2/4
f 345/3/4 343/3/4 346/3/4
f 346/2/4 344/2/4 347/2/4
f 348/1/4 349/1/4 350/1/4
f 347/1/4 348/1/4 350/1/4
f 350/1/4 349/1/4 351/1/4
f 352/1/4 353/1/4 354/1/4
f 354/1/4 353/1/4 355/1/4
f 354/2/4 355/2/4 356/2/4
f 356/2/4 355/2/4 357/2/4
f 356/1/4 357/1/4 358/1/4
f 357/2/4 355/2/4 359/2/4
f 358/1/4 357/1/4 359/1/4
f 359/2/4 355/2/4 360/2/4
f 365/3/5 362/3/5 361/3/5
f 366/3/5 362/3/5 365/3/5
f 367/3/5 364/3/5 363/3/5
f 368/3/5 364/3/5 367/3/5
f 373/3/5 370/3/5 369/3/5
f 374/3/5 370/3/5 373/3/5
f 375/3/5 372/3/5 371/3/5
f 376/3/5 372/3/5 375/3/5
f 380/2/5 378/2/5 377/2/5
f 381/2/5 378/2/5 380/2/5
f 383/2/5 380/2/5 379/2/5
f 383/2/5 382/2/5 381/2/5
f 383/2/5 381/2/5 380/2/5
f 384/2/5 382/2/5 383/2/5
f 385/2/5 382/2/5 384/2/5
f 386/2/5 382/2/5 385/2/5
f 387/2/5 385/2/5 384/2/5
f 388/2/5 385/2/5 387/2/5
f 394/1/5 390/1/5 389/1/5
f 395/2/5 391/2/5 390/2/5
f 395/1/5 390/1/5 394/1/5
f 396/1/5 392/1/5 391/1/5
f 396/2/5 391/2/5 395/2/5
f 397/1/5 392/1/5 396/1/5
f 399/1/5 394/1/5 393/1/5
f 400/1/5 394/1/5 399/1/5
f 401/1/5 398/1/5 397/1/5
f 402/1/5 398/1/5 401/1/5
f 403/2/5 400/2/5 399/2/5
f 404/2/5 400/2/5 403/2/5
f 405/2/5 402/2/5 401/2/5
f 406/2/5 402/2/5 405/2/5
f 407/1/5 404/1/5 403/1/5
f 408/1/5 404/1/5 407/1/5
f 411/1/5 406/1/5 405/1/5
f 412/1/5 406/1/5 411/1/5
f 413/1/5 409/1/5 408/1/5
f 414/2/5 410/2/5 409/2/5
f 414/1/5 409/1/5 413/1/5
f 415/1/5 411/1/5 410/1/5
f 415/2/5 410/2/5 414/2/5
f 416/1/5 411/1/5 415/1/5
f 417/2/6 418/2/6 423/2/6
f 423/2/6 418/2/6 424/2/6
f 419/2/6 420/2/6 425/2/6
f 425/2/6 420/2/6 426/2/6
f 421/2/6 422/2/6 427/2/6
f 427/2/6 422/2/6 428/2/6
f 424/2/6 425/2/6 430/2/6
f 430/2/6 425/2/6 431/2/6
f 426/2/6 427/2/6 432/2/6
f 432/2/6 427/2/6 433/2/6
f 429/2/6 430/2/6 435/2/6
f 435/2/6 430/2/6 436/2/6
f 431/2/6 432/2/6 437/2/6
f 437/2/6 432/2/6 438/2/6
f 433/2/6 434/2/6 439/2/6
f 439/2/6 434/2/6 440/2/6
f 436/2/6 437/2/6 442/2/6
f 442/2/6 437/2/6 443/2/6
f 438/2/6 439/2/6 444/2/6
f 444/2/6 439/2/6 445/2/6
f 441/2/6 442/2/6 447/2/6
f 447/2/6 442/2/6 448/2/6
f 443/2/6 444/2/6 449/2/6
f 449/2/6 444/2/6 450/2/6
f 445/2/6 446/2/6 451/2/6
f 451/2/6 446/2/6 452/2/6
f 453/2/6 454/2/6 457/2/6
f 457/2/6 454/2/6 458/2/6
f 458/2/6 454/2/6 459/2/6
f 459/2/6 454/2/6 460/2/6
f 454/1/6 455/1/6 461/1/6
f 460/2/6 454/2/6 461/2/6
f 461/1/6 455/1/6 462/1/6
f 456/1/6 457/1/6 464/1/6
f 464/1/6 457/1/6 465/1/6
f 458/2/6 459/2/6 466/2/6
f 466/2/6 459/2/6 467/2/6
f 460/2/6 461/2/6 468/2/6
f 468/2/6 461/2/6 469/2/6
f 462/2/6 463/2/6 470/2/6
f 464/2/6 465/2/6 471/2/6
f 465/2/6 466/2/6 471/2/6
f 471/2/6 466/2/6 472/2/6
f 467/2/6 468/2/6 473/2/6
f 473/2/6 468/2/6 474/2/6
f 469/2/6 470/2/6 475/2/6
f 470/2/6 463/2/6 476/2/6
f 475/2/6 470/2/6 476/2/6
f 464/2/6 471/2/6 477/2/6
f 472/2/6 473/2/6 478/2/6
f 478/2/6 473/2/6 479/2/6
f 474/2/6 475/2/6 480/2/6
f 480/2/6 475/2/6 481/2/6
f 476/2/6 463/2/6 482/2/6
f 464/2/6 477/2/6 483/2/6
f 477/2/6 478/2/6 483/2/6
f 483/2/6 478/2/6 484/2/6
f 479/2/6 480/2/6 485/2/6
f 485/2/6 480/2/6 486/2/6
f 481/2/6 482/2/6 487/2/6
f 482/2/6 463/2/6 488/2/6
f 487/2/6 482/2/6 488/2/6
f 488/2/6 463/2/6 489/2/6
f 464/2/6 483/2/6 490/2/6
f 490/2/6 483/2/6 491/2/6
f 484/2/6 485/2/6 492/2/6
f 492/2/6 485/2/6 493/2/6
f 486/2/6 487/2/6 494/2/6
f 494/2/6 487/2/6 495/2/6
f 488/1/6 489/1/6 496/1/6
f 496/1/6 489/1/6 497/1/6
f 491/1/6 492/1/6 498/1/6
f 492/2/6 493/2/6 499/2/6
f 498/1/6 492/1/6 499/1/6
f 494/2/6 495/2/6 499/2/6
f 495/2/6 496/2/6 499/2/6
f 493/2/6 494/2/6 499/2/6
f 499/2/6 496/2/6 500/2/6
