# MagicaVoxel @ Ephtracy

# group
g untitled

# material
mtllib untitled.mtl
usemtl palette

# normals
vn -1 0 0
vn 1 0 0
vn 0 0 1
vn 0 0 -1
vn 0 -1 0
vn 0 1 0

# texcoords
vt 0.208984 0.5
vt 0.255859 0.5
vt 0.279297 0.5

# verts
v 4 0 7
v 4 0 6
v 4 0 3
v 4 0 2
v 4 1 6
v 4 1 3
v 4 2 7
v 4 2 5
v 4 2 4
v 4 2 2
v 4 3 7
v 4 3 6
v 4 3 5
v 4 3 4
v 4 3 3
v 4 3 2
v 4 4 7
v 4 4 6
v 4 4 3
v 4 4 2
v 8 1 6
v 8 1 5
v 8 1 4
v 8 1 3
v 8 2 6
v 8 2 5
v 8 2 4
v 8 2 3
v 8 3 6
v 8 3 5
v 8 3 4
v 8 3 3
v 8 4 6
v 8 4 3
v 5 1 6
v 5 1 5
v 5 1 4
v 5 1 3
v 5 2 6
v 5 2 5
v 5 2 4
v 5 2 3
v 5 3 6
v 5 3 5
v 5 3 4
v 5 3 3
v 5 4 6
v 5 4 3
v 9 0 7
v 9 0 6
v 9 0 3
v 9 0 2
v 9 1 7
v 9 1 6
v 9 1 5
v 9 1 4
v 9 1 3
v 9 1 2
v 9 2 7
v 9 2 6
v 9 2 5
v 9 2 4
v 9 2 3
v 9 2 2
v 9 3 6
v 9 3 5
v 9 3 4
v 9 3 3
v 9 3 2
v 9 4 7
v 9 4 6
v 9 4 3
v 9 4 2
v 4 0 7
v 4 2 7
v 4 3 7
v 4 4 7
v 5 0 7
v 5 1 7
v 5 2 7
v 5 3 7
v 5 4 7
v 6 0 7
v 6 1 7
v 6 2 7
v 6 3 7
v 6 4 7
v 7 0 7
v 7 1 7
v 7 2 7
v 7 3 7
v 7 4 7
v 8 0 7
v 8 1 7
v 8 3 7
v 8 4 7
v 9 0 7
v 9 1 7
v 9 2 7
v 9 4 7
v 5 1 3
v 5 2 3
v 5 3 3
v 5 4 3
v 6 1 3
v 6 2 3
v 6 3 3
v 6 4 3
v 7 1 3
v 7 2 3
v 7 3 3
v 8 1 3
v 8 2 3
v 8 3 3
v 8 4 3
v 5 1 6
v 5 2 6
v 5 3 6
v 5 4 6
v 6 1 6
v 6 2 6
v 6 3 6
v 6 4 6
v 7 1 6
v 7 2 6
v 7 3 6
v 7 4 6
v 8 1 6
v 8 2 6
v 8 3 6
v 8 4 6
v 4 0 2
v 4 2 2
v 4 3 2
v 4 4 2
v 5 0 2
v 5 1 2
v 5 3 2
v 5 4 2
v 6 1 2
v 6 2 2
v 6 3 2
v 6 4 2
v 7 0 2
v 7 1 2
v 7 2 2
v 7 3 2
v 8 0 2
v 8 1 2
v 8 2 2
v 8 3 2
v 8 4 2
v 9 0 2
v 9 1 2
v 9 2 2
v 9 3 2
v 9 4 2
v 4 0 7
v 5 0 7
v 6 0 7
v 7 0 7
v 8 0 7
v 9 0 7
v 4 0 6
v 5 0 6
v 6 0 6
v 8 0 6
v 9 0 6
v 5 0 5
v 6 0 5
v 7 0 5
v 5 0 4
v 6 0 4
v 7 0 4
v 4 0 3
v 5 0 3
v 6 0 3
v 8 0 3
v 9 0 3
v 4 0 2
v 5 0 2
v 7 0 2
v 8 0 2
v 9 0 2
v 5 1 6
v 6 1 6
v 7 1 6
v 8 1 6
v 5 1 5
v 6 1 5
v 7 1 5
v 8 1 5
v 5 1 4
v 6 1 4
v 7 1 4
v 8 1 4
v 5 1 3
v 6 1 3
v 7 1 3
v 8 1 3
v 4 4 7
v 5 4 7
v 6 4 7
v 7 4 7
v 8 4 7
v 9 4 7
v 4 4 6
v 5 4 6
v 6 4 6
v 7 4 6
v 8 4 6
v 9 4 6
v 4 4 3
v 5 4 3
v 6 4 3
v 8 4 3
v 9 4 3
v 4 4 2
v 5 4 2
v 6 4 2
v 8 4 2
v 9 4 2

# faces
f 5/3/1 2/3/1 1/3/1
f 5/2/1 3/2/1 2/2/1
f 6/3/1 4/3/1 3/3/1
f 6/2/1 3/2/1 5/2/1
f 7/3/1 5/3/1 1/3/1
f 7/3/1 6/3/1 5/3/1
f 8/3/1 6/3/1 7/3/1
f 9/3/1 6/3/1 8/3/1
f 10/3/1 4/3/1 6/3/1
f 10/3/1 6/3/1 9/3/1
f 11/2/1 8/2/1 7/2/1
f 12/2/1 8/2/1 11/2/1
f 13/1/1 9/1/1 8/1/1
f 13/2/1 8/2/1 12/2/1
f 14/2/1 10/2/1 9/2/1
f 14/1/1 9/1/1 13/1/1
f 15/2/1 10/2/1 14/2/1
f 16/2/1 10/2/1 15/2/1
f 17/1/1 12/1/1 11/1/1
f 18/2/1 13/2/1 12/2/1
f 18/1/1 12/1/1 17/1/1
f 18/2/1 14/2/1 13/2/1
f 18/2/1 15/2/1 14/2/1
f 19/3/1 16/3/1 15/3/1
f 19/2/1 15/2/1 18/2/1
f 20/3/1 16/3/1 19/3/1
f 25/1/1 22/1/1 21/1/1
f 26/3/1 23/3/1 22/3/1
f 26/1/1 22/1/1 25/1/1
f 27/2/1 24/2/1 23/2/1
f 27/3/1 23/3/1 26/3/1
f 28/2/1 24/2/1 27/2/1
f 29/3/1 26/3/1 25/3/1
f 30/2/1 27/2/1 26/2/1
f 30/3/1 26/3/1 29/3/1
f 31/1/1 28/1/1 27/1/1
f 31/2/1 27/2/1 30/2/1
f 32/1/1 28/1/1 31/1/1
f 33/2/1 30/2/1 29/2/1
f 33/2/1 31/2/1 30/2/1
f 33/2/1 32/2/1 31/2/1
f 34/2/1 32/2/1 33/2/1
f 35/3/2 36/3/2 39/3/2
f 37/3/2 38/3/2 39/3/2
f 36/3/2 37/3/2 39/3/2
f 39/3/2 38/3/2 40/3/2
f 40/3/2 38/3/2 41/3/2
f 41/3/2 38/3/2 42/3/2
f 39/2/2 40/2/2 43/2/2
f 40/1/2 41/1/2 44/1/2
f 43/2/2 40/2/2 44/2/2
f 41/2/2 42/2/2 45/2/2
f 44/1/2 41/1/2 45/1/2
f 45/2/2 42/2/2 46/2/2
f 43/2/2 44/2/2 47/2/2
f 44/2/2 45/2/2 47/2/2
f 45/2/2 46/2/2 47/2/2
f 47/2/2 46/2/2 48/2/2
f 49/1/2 50/1/2 53/1/2
f 50/3/2 51/3/2 54/3/2
f 53/1/2 50/1/2 54/1/2
f 54/3/2 51/3/2 55/3/2
f 55/3/2 51/3/2 56/3/2
f 51/1/2 52/1/2 57/1/2
f 56/3/2 51/3/2 57/3/2
f 57/1/2 52/1/2 58/1/2
f 53/2/2 54/2/2 59/2/2
f 54/1/2 55/1/2 60/1/2
f 59/2/2 54/2/2 60/2/2
f 55/3/2 56/3/2 61/3/2
f 60/1/2 55/1/2 61/1/2
f 56/2/2 57/2/2 62/2/2
f 61/3/2 56/3/2 62/3/2
f 57/3/2 58/3/2 63/3/2
f 62/2/2 57/2/2 63/2/2
f 63/3/2 58/3/2 64/3/2
f 59/3/2 60/3/2 65/3/2
f 60/3/2 61/3/2 65/3/2
f 61/2/2 62/2/2 66/2/2
f 65/3/2 61/3/2 66/3/2
f 62/1/2 63/1/2 67/1/2
f 66/2/2 62/2/2 67/2/2
f 63/2/2 64/2/2 68/2/2
f 67/1/2 63/1/2 68/1/2
f 68/2/2 64/2/2 69/2/2
f 59/3/2 65/3/2 70/3/2
f 66/2/2 67/2/2 71/2/2
f 70/3/2 65/3/2 71/3/2
f 65/2/2 66/2/2 71/2/2
f 67/2/2 68/2/2 71/2/2
f 68/1/2 69/1/2 72/1/2
f 71/2/2 68/2/2 72/2/2
f 72/1/2 69/1/2 73/1/2
f 78/3/3 75/3/3 74/3/3
f 79/3/3 75/3/3 78/3/3
f 80/2/3 76/2/3 75/2/3
f 80/3/3 75/3/3 79/3/3
f 81/1/3 77/1/3 76/1/3
f 81/2/3 76/2/3 80/2/3
f 82/1/3 77/1/3 81/1/3
f 83/1/3 79/1/3 78/1/3
f 84/2/3 80/2/3 79/2/3
f 84/1/3 79/1/3 83/1/3
f 85/3/3 81/3/3 80/3/3
f 85/2/3 80/2/3 84/2/3
f 86/2/3 82/2/3 81/2/3
f 86/3/3 81/3/3 85/3/3
f 87/2/3 82/2/3 86/2/3
f 88/2/3 84/2/3 83/2/3
f 89/1/3 85/1/3 84/1/3
f 89/2/3 84/2/3 88/2/3
f 90/2/3 86/2/3 85/2/3
f 90/1/3 85/1/3 89/1/3
f 91/3/3 87/3/3 86/3/3
f 91/2/3 86/2/3 90/2/3
f 92/3/3 87/3/3 91/3/3
f 93/3/3 89/3/3 88/3/3
f 94/2/3 90/2/3 89/2/3
f 94/3/3 89/3/3 93/3/3
f 95/3/3 91/3/3 90/3/3
f 95/2/3 92/2/3 91/2/3
f 96/2/3 92/2/3 95/2/3
f 97/1/3 94/1/3 93/1/3
f 98/2/3 90/2/3 94/2/3
f 98/1/3 94/1/3 97/1/3
f 99/3/3 95/3/3 90/3/3
f 99/2/3 90/2/3 98/2/3
f 99/3/3 96/3/3 95/3/3
f 100/3/3 96/3/3 99/3/3
f 105/3/3 102/3/3 101/3/3
f 106/2/3 103/2/3 102/2/3
f 106/3/3 102/3/3 105/3/3
f 107/1/3 104/1/3 103/1/3
f 107/2/3 103/2/3 106/2/3
f 108/1/3 104/1/3 107/1/3
f 109/2/3 106/2/3 105/2/3
f 110/1/3 107/1/3 106/1/3
f 110/2/3 106/2/3 109/2/3
f 111/2/3 108/2/3 107/2/3
f 111/1/3 107/1/3 110/1/3
f 112/1/3 110/1/3 109/1/3
f 113/3/3 111/3/3 110/3/3
f 113/1/3 110/1/3 112/1/3
f 114/2/3 108/2/3 111/2/3
f 114/3/3 111/3/3 113/3/3
f 115/2/3 108/2/3 114/2/3
f 116/2/4 117/2/4 120/2/4
f 117/3/4 118/3/4 121/3/4
f 120/2/4 117/2/4 121/2/4
f 118/2/4 119/2/4 122/2/4
f 121/3/4 118/3/4 122/3/4
f 122/2/4 119/2/4 123/2/4
f 120/1/4 121/1/4 124/1/4
f 121/2/4 122/2/4 125/2/4
f 124/1/4 121/1/4 125/1/4
f 122/3/4 123/3/4 126/3/4
f 125/2/4 122/2/4 126/2/4
f 126/3/4 123/3/4 127/3/4
f 124/2/4 125/2/4 128/2/4
f 125/3/4 126/3/4 129/3/4
f 128/2/4 125/2/4 129/2/4
f 126/2/4 127/2/4 130/2/4
f 129/3/4 126/3/4 130/3/4
f 130/2/4 127/2/4 131/2/4
f 132/3/4 133/3/4 136/3/4
f 136/3/4 133/3/4 137/3/4
f 134/3/4 135/3/4 138/3/4
f 133/2/4 134/2/4 138/2/4
f 138/3/4 135/3/4 139/3/4
f 137/3/4 133/3/4 140/3/4
f 136/2/4 137/2/4 140/2/4
f 133/2/4 138/2/4 141/2/4
f 140/3/4 133/3/4 141/3/4
f 138/1/4 139/1/4 142/1/4
f 141/2/4 138/2/4 142/2/4
f 142/1/4 139/1/4 143/1/4
f 140/2/4 141/2/4 144/2/4
f 136/2/4 140/2/4 144/2/4
f 144/2/4 141/2/4 145/2/4
f 141/1/4 142/1/4 146/1/4
f 145/2/4 141/2/4 146/2/4
f 142/2/4 143/2/4 147/2/4
f 146/1/4 142/1/4 147/1/4
f 144/3/4 145/3/4 148/3/4
f 145/1/4 146/1/4 149/1/4
f 148/3/4 145/3/4 149/3/4
f 146/3/4 147/3/4 150/3/4
f 149/1/4 146/1/4 150/1/4
f 147/2/4 143/2/4 151/2/4
f 150/3/4 147/3/4 151/3/4
f 151/2/4 143/2/4 152/2/4
f 148/1/4 149/1/4 153/1/4
f 149/3/4 150/3/4 154/3/4
f 153/1/4 149/1/4 154/1/4
f 150/2/4 151/2/4 155/2/4
f 154/3/4 150/3/4 155/3/4
f 151/1/4 152/1/4 156/1/4
f 155/2/4 151/2/4 156/2/4
f 156/1/4 152/1/4 157/1/4
f 164/3/5 159/3/5 158/3/5
f 165/1/5 160/1/5 159/1/5
f 165/3/5 159/3/5 164/3/5
f 166/2/5 161/2/5 160/2/5
f 166/1/5 160/1/5 165/1/5
f 167/1/5 163/1/5 162/1/5
f 167/3/5 162/3/5 161/3/5
f 168/1/5 163/1/5 167/1/5
f 169/2/5 165/2/5 164/2/5
f 169/3/5 166/3/5 165/3/5
f 170/2/5 161/2/5 166/2/5
f 170/3/5 166/3/5 169/3/5
f 171/3/5 168/3/5 167/3/5
f 171/2/5 161/2/5 170/2/5
f 171/3/5 167/3/5 161/3/5
f 172/2/5 169/2/5 164/2/5
f 172/2/5 170/2/5 169/2/5
f 173/3/5 171/3/5 170/3/5
f 173/2/5 170/2/5 172/2/5
f 174/3/5 168/3/5 171/3/5
f 174/3/5 171/3/5 173/3/5
f 175/2/5 172/2/5 164/2/5
f 176/3/5 173/3/5 172/3/5
f 176/2/5 172/2/5 175/2/5
f 177/2/5 174/2/5 173/2/5
f 177/3/5 173/3/5 176/3/5
f 178/3/5 168/3/5 174/3/5
f 179/3/5 168/3/5 178/3/5
f 180/3/5 176/3/5 175/3/5
f 181/2/5 177/2/5 176/2/5
f 181/3/5 176/3/5 180/3/5
f 182/2/5 174/2/5 177/2/5
f 182/2/5 177/2/5 181/2/5
f 182/3/5 178/3/5 174/3/5
f 183/1/5 179/1/5 178/1/5
f 183/3/5 178/3/5 182/3/5
f 184/1/5 179/1/5 183/1/5
f 185/3/6 186/3/6 189/3/6
f 186/2/6 187/2/6 190/2/6
f 189/3/6 186/3/6 190/3/6
f 187/3/6 188/3/6 191/3/6
f 190/2/6 187/2/6 191/2/6
f 191/3/6 188/3/6 192/3/6
f 189/2/6 190/2/6 193/2/6
f 190/3/6 191/3/6 194/3/6
f 193/2/6 190/2/6 194/2/6
f 191/3/6 192/3/6 194/3/6
f 194/3/6 192/3/6 195/3/6
f 195/3/6 192/3/6 196/3/6
f 193/3/6 194/3/6 197/3/6
f 194/2/6 195/2/6 198/2/6
f 197/3/6 194/3/6 198/3/6
f 195/3/6 196/3/6 199/3/6
f 198/2/6 195/2/6 199/2/6
f 199/3/6 196/3/6 200/3/6
f 201/1/6 202/1/6 207/1/6
f 202/2/6 203/2/6 208/2/6
f 207/1/6 202/1/6 208/1/6
f 203/3/6 204/3/6 209/3/6
f 208/2/6 203/2/6 209/2/6
f 204/2/6 205/2/6 210/2/6
f 209/3/6 204/3/6 210/3/6
f 205/3/6 206/3/6 211/3/6
f 210/2/6 205/2/6 211/2/6
f 211/3/6 206/3/6 212/3/6
f 207/2/6 208/2/6 213/2/6
f 213/2/6 208/2/6 214/2/6
f 211/2/6 212/2/6 216/2/6
f 216/2/6 212/2/6 217/2/6
f 213/3/6 214/3/6 218/3/6
f 214/1/6 215/1/6 219/1/6
f 218/3/6 214/3/6 219/3/6
f 215/2/6 216/2/6 220/2/6
f 219/1/6 215/1/6 220/1/6
f 216/1/6 217/1/6 221/1/6
f 220/2/6 216/2/6 221/2/6
f 221/1/6 217/1/6 222/1/6
