# MagicaVoxel @ Ephtracy

# group
g c2

# material
mtllib c2.mtl
usemtl palette

# normals
vn -1 0 0
vn 1 0 0
vn 0 0 1
vn 0 0 -1
vn 0 -1 0
vn 0 1 0

# texcoords
vt 0.224609 0.5
vt 0.966797 0.5

# verts
v -12 0 3
v -12 0 -4
v -12 1 3
v -12 1 -4
v -11 0 5
v -11 0 3
v -11 0 -4
v -11 0 -6
v -11 1 5
v -11 1 3
v -11 1 -4
v -11 1 -6
v -10 0 7
v -10 0 5
v -10 0 -6
v -10 0 -8
v -10 1 7
v -10 1 5
v -10 1 -6
v -10 1 -8
v -9 0 8
v -9 0 7
v -9 0 -8
v -9 0 -9
v -9 1 8
v -9 1 7
v -9 1 -8
v -9 1 -9
v -8 0 9
v -8 0 8
v -8 0 -9
v -8 0 -10
v -8 1 9
v -8 1 8
v -8 1 -9
v -8 1 -10
v -6 0 10
v -6 0 9
v -6 0 -10
v -6 0 -11
v -6 1 10
v -6 1 9
v -6 1 -10
v -6 1 -11
v -4 0 11
v -4 0 10
v -4 0 -11
v -4 0 -12
v -4 1 11
v -4 1 10
v -4 1 -11
v -4 1 -12
v 3 0 11
v 3 0 10
v 3 0 -11
v 3 0 -12
v 3 1 11
v 3 1 10
v 3 1 -11
v 3 1 -12
v 5 0 10
v 5 0 9
v 5 0 -10
v 5 0 -11
v 5 1 10
v 5 1 9
v 5 1 -10
v 5 1 -11
v 7 0 9
v 7 0 8
v 7 0 -9
v 7 0 -10
v 7 1 9
v 7 1 8
v 7 1 -9
v 7 1 -10
v 8 0 8
v 8 0 7
v 8 0 -8
v 8 0 -9
v 8 1 8
v 8 1 7
v 8 1 -8
v 8 1 -9
v 9 0 7
v 9 0 5
v 9 0 -6
v 9 0 -8
v 9 1 7
v 9 1 5
v 9 1 -6
v 9 1 -8
v 10 0 5
v 10 0 3
v 10 0 -4
v 10 0 -6
v 10 1 5
v 10 1 3
v 10 1 -4
v 10 1 -6
v 11 0 3
v 11 0 -4
v 11 1 3
v 11 1 -4
v -4 0 11
v -4 1 11
v 3 0 11
v 3 1 11
v -6 0 10
v -6 1 10
v -4 0 10
v -4 1 10
v 3 0 10
v 3 1 10
v 5 0 10
v 5 1 10
v -8 0 9
v -8 1 9
v -6 0 9
v -6 1 9
v 5 0 9
v 5 1 9
v 7 0 9
v 7 1 9
v -9 0 8
v -9 1 8
v -8 0 8
v -8 1 8
v 7 0 8
v 7 1 8
v 8 0 8
v 8 1 8
v -10 0 7
v -10 1 7
v -9 0 7
v -9 1 7
v 8 0 7
v 8 1 7
v 9 0 7
v 9 1 7
v -11 0 5
v -11 1 5
v -10 0 5
v -10 1 5
v 9 0 5
v 9 1 5
v 10 0 5
v 10 1 5
v -12 0 3
v -12 1 3
v -11 0 3
v -11 1 3
v 10 0 3
v 10 1 3
v 11 0 3
v 11 1 3
v -12 0 -4
v -12 1 -4
v -11 0 -4
v -11 1 -4
v 10 0 -4
v 10 1 -4
v 11 0 -4
v 11 1 -4
v -11 0 -6
v -11 1 -6
v -10 0 -6
v -10 1 -6
v 9 0 -6
v 9 1 -6
v 10 0 -6
v 10 1 -6
v -10 0 -8
v -10 1 -8
v -9 0 -8
v -9 1 -8
v 8 0 -8
v 8 1 -8
v 9 0 -8
v 9 1 -8
v -9 0 -9
v -9 1 -9
v -8 0 -9
v -8 1 -9
v 7 0 -9
v 7 1 -9
v 8 0 -9
v 8 1 -9
v -8 0 -10
v -8 1 -10
v -6 0 -10
v -6 1 -10
v 5 0 -10
v 5 1 -10
v 7 0 -10
v 7 1 -10
v -6 0 -11
v -6 1 -11
v -4 0 -11
v -4 1 -11
v 3 0 -11
v 3 1 -11
v 5 0 -11
v 5 1 -11
v -4 0 -12
v -4 1 -12
v 3 0 -12
v 3 1 -12
v -4 0 11
v 3 0 11
v -6 0 10
v -4 0 10
v 3 0 10
v 5 0 10
v -8 0 9
v -6 0 9
v -5 0 9
v -4 0 9
v 3 0 9
v 4 0 9
v 5 0 9
v 7 0 9
v -9 0 8
v -8 0 8
v -7 0 8
v -6 0 8
v -5 0 8
v 4 0 8
v 5 0 8
v 6 0 8
v 7 0 8
v 8 0 8
v -10 0 7
v -9 0 7
v -8 0 7
v -7 0 7
v -6 0 7
v 5 0 7
v 6 0 7
v 7 0 7
v 8 0 7
v 9 0 7
v -9 0 6
v -8 0 6
v -7 0 6
v 6 0 6
v 7 0 6
v 8 0 6
v -11 0 5
v -10 0 5
v -9 0 5
v -8 0 5
v 7 0 5
v 8 0 5
v 9 0 5
v 10 0 5
v -10 0 4
v -9 0 4
v 8 0 4
v 9 0 4
v -12 0 3
v -11 0 3
v -10 0 3
v 9 0 3
v 10 0 3
v 11 0 3
v 9 0 -3
v 10 0 -3
v -12 0 -4
v -11 0 -4
v -10 0 -4
v 8 0 -4
v 9 0 -4
v 10 0 -4
v 11 0 -4
v -10 0 -5
v -9 0 -5
v 7 0 -5
v 8 0 -5
v 9 0 -5
v -11 0 -6
v -10 0 -6
v -9 0 -6
v -8 0 -6
v 6 0 -6
v 7 0 -6
v 8 0 -6
v 9 0 -6
v 10 0 -6
v -9 0 -7
v -8 0 -7
v -7 0 -7
v 5 0 -7
v 6 0 -7
v 7 0 -7
v -10 0 -8
v -9 0 -8
v -8 0 -8
v -7 0 -8
v -6 0 -8
v 4 0 -8
v 5 0 -8
v 6 0 -8
v 8 0 -8
v 9 0 -8
v -9 0 -9
v -8 0 -9
v -7 0 -9
v -6 0 -9
v -5 0 -9
v 3 0 -9
v 4 0 -9
v 5 0 -9
v 7 0 -9
v 8 0 -9
v -8 0 -10
v -6 0 -10
v -5 0 -10
v -4 0 -10
v 2 0 -10
v 3 0 -10
v 4 0 -10
v 5 0 -10
v 7 0 -10
v -6 0 -11
v -4 0 -11
v 2 0 -11
v 3 0 -11
v 5 0 -11
v -4 0 -12
v 3 0 -12
v -4 1 11
v 3 1 11
v -6 1 10
v -4 1 10
v 3 1 10
v 5 1 10
v -8 1 9
v -6 1 9
v -5 1 9
v -4 1 9
v 3 1 9
v 4 1 9
v 5 1 9
v 7 1 9
v -9 1 8
v -8 1 8
v -7 1 8
v -6 1 8
v -5 1 8
v 4 1 8
v 5 1 8
v 6 1 8
v 7 1 8
v 8 1 8
v -10 1 7
v -9 1 7
v -8 1 7
v -7 1 7
v -6 1 7
v 5 1 7
v 6 1 7
v 7 1 7
v 8 1 7
v 9 1 7
v -9 1 6
v -8 1 6
v -7 1 6
v 6 1 6
v 7 1 6
v 8 1 6
v -11 1 5
v -10 1 5
v -9 1 5
v -8 1 5
v 7 1 5
v 8 1 5
v 9 1 5
v 10 1 5
v -10 1 4
v -9 1 4
v 8 1 4
v 9 1 4
v -12 1 3
v -11 1 3
v -10 1 3
v 9 1 3
v 10 1 3
v 11 1 3
v 9 1 -3
v 10 1 -3
v -12 1 -4
v -11 1 -4
v -10 1 -4
v 8 1 -4
v 9 1 -4
v 10 1 -4
v 11 1 -4
v -10 1 -5
v -9 1 -5
v 7 1 -5
v 8 1 -5
v 9 1 -5
v -11 1 -6
v -10 1 -6
v -9 1 -6
v -8 1 -6
v 6 1 -6
v 7 1 -6
v 8 1 -6
v 9 1 -6
v 10 1 -6
v -9 1 -7
v -8 1 -7
v -7 1 -7
v 5 1 -7
v 6 1 -7
v 7 1 -7
v -10 1 -8
v -9 1 -8
v -8 1 -8
v -7 1 -8
v -6 1 -8
v 4 1 -8
v 5 1 -8
v 6 1 -8
v 8 1 -8
v 9 1 -8
v -9 1 -9
v -8 1 -9
v -7 1 -9
v -6 1 -9
v -5 1 -9
v 3 1 -9
v 4 1 -9
v 5 1 -9
v 7 1 -9
v 8 1 -9
v -8 1 -10
v -6 1 -10
v -5 1 -10
v -4 1 -10
v 2 1 -10
v 3 1 -10
v 4 1 -10
v 5 1 -10
v 7 1 -10
v -6 1 -11
v -4 1 -11
v 2 1 -11
v 3 1 -11
v 5 1 -11
v -4 1 -12
v 3 1 -12

# faces
f 3/1/1 2/1/1 1/1/1
f 4/1/1 2/1/1 3/1/1
f 9/1/1 6/1/1 5/1/1
f 10/1/1 6/1/1 9/1/1
f 11/1/1 8/1/1 7/1/1
f 12/1/1 8/1/1 11/1/1
f 17/1/1 14/1/1 13/1/1
f 18/1/1 14/1/1 17/1/1
f 19/1/1 16/1/1 15/1/1
f 20/1/1 16/1/1 19/1/1
f 25/1/1 22/1/1 21/1/1
f 26/1/1 22/1/1 25/1/1
f 27/1/1 24/1/1 23/1/1
f 28/1/1 24/1/1 27/1/1
f 33/1/1 30/1/1 29/1/1
f 34/1/1 30/1/1 33/1/1
f 35/1/1 32/1/1 31/1/1
f 36/1/1 32/1/1 35/1/1
f 41/1/1 38/1/1 37/1/1
f 42/1/1 38/1/1 41/1/1
f 43/1/1 40/1/1 39/1/1
f 44/1/1 40/1/1 43/1/1
f 49/1/1 46/1/1 45/1/1
f 50/1/1 46/1/1 49/1/1
f 51/1/1 48/1/1 47/1/1
f 52/1/1 48/1/1 51/1/1
f 53/1/2 54/1/2 57/1/2
f 57/1/2 54/1/2 58/1/2
f 55/1/2 56/1/2 59/1/2
f 59/1/2 56/1/2 60/1/2
f 61/1/2 62/1/2 65/1/2
f 65/1/2 62/1/2 66/1/2
f 63/1/2 64/1/2 67/1/2
f 67/1/2 64/1/2 68/1/2
f 69/1/2 70/1/2 73/1/2
f 73/1/2 70/1/2 74/1/2
f 71/1/2 72/1/2 75/1/2
f 75/1/2 72/1/2 76/1/2
f 77/1/2 78/1/2 81/1/2
f 81/1/2 78/1/2 82/1/2
f 79/1/2 80/1/2 83/1/2
f 83/1/2 80/1/2 84/1/2
f 85/1/2 86/1/2 89/1/2
f 89/1/2 86/1/2 90/1/2
f 87/1/2 88/1/2 91/1/2
f 91/1/2 88/1/2 92/1/2
f 93/1/2 94/1/2 97/1/2
f 97/1/2 94/1/2 98/1/2
f 95/1/2 96/1/2 99/1/2
f 99/1/2 96/1/2 100/1/2
f 101/1/2 102/1/2 103/1/2
f 103/1/2 102/1/2 104/1/2
f 107/1/3 106/1/3 105/1/3
f 108/1/3 106/1/3 107/1/3
f 111/1/3 110/1/3 109/1/3
f 112/1/3 110/1/3 111/1/3
f 115/1/3 114/1/3 113/1/3
f 116/1/3 114/1/3 115/1/3
f 119/1/3 118/1/3 117/1/3
f 120/1/3 118/1/3 119/1/3
f 123/1/3 122/1/3 121/1/3
f 124/1/3 122/1/3 123/1/3
f 127/1/3 126/1/3 125/1/3
f 128/1/3 126/1/3 127/1/3
f 131/1/3 130/1/3 129/1/3
f 132/1/3 130/1/3 131/1/3
f 135/1/3 134/1/3 133/1/3
f 136/1/3 134/1/3 135/1/3
f 139/1/3 138/1/3 137/1/3
f 140/1/3 138/1/3 139/1/3
f 143/1/3 142/1/3 141/1/3
f 144/1/3 142/1/3 143/1/3
f 147/1/3 146/1/3 145/1/3
f 148/1/3 146/1/3 147/1/3
f 151/1/3 150/1/3 149/1/3
f 152/1/3 150/1/3 151/1/3
f 155/1/3 154/1/3 153/1/3
f 156/1/3 154/1/3 155/1/3
f 157/1/4 158/1/4 159/1/4
f 159/1/4 158/1/4 160/1/4
f 161/1/4 162/1/4 163/1/4
f 163/1/4 162/1/4 164/1/4
f 165/1/4 166/1/4 167/1/4
f 167/1/4 166/1/4 168/1/4
f 169/1/4 170/1/4 171/1/4
f 171/1/4 170/1/4 172/1/4
f 173/1/4 174/1/4 175/1/4
f 175/1/4 174/1/4 176/1/4
f 177/1/4 178/1/4 179/1/4
f 179/1/4 178/1/4 180/1/4
f 181/1/4 182/1/4 183/1/4
f 183/1/4 182/1/4 184/1/4
f 185/1/4 186/1/4 187/1/4
f 187/1/4 186/1/4 188/1/4
f 189/1/4 190/1/4 191/1/4
f 191/1/4 190/1/4 192/1/4
f 193/1/4 194/1/4 195/1/4
f 195/1/4 194/1/4 196/1/4
f 197/1/4 198/1/4 199/1/4
f 199/1/4 198/1/4 200/1/4
f 201/1/4 202/1/4 203/1/4
f 203/1/4 202/1/4 204/1/4
f 205/1/4 206/1/4 207/1/4
f 207/1/4 206/1/4 208/1/4
f 212/1/5 210/1/5 209/1/5
f 213/1/5 210/1/5 212/1/5
f 216/1/5 212/1/5 211/1/5
f 217/1/5 212/1/5 216/1/5
f 218/2/5 213/2/5 212/2/5
f 218/1/5 212/1/5 217/1/5
f 219/1/5 214/1/5 213/1/5
f 219/2/5 213/2/5 218/2/5
f 220/1/5 214/1/5 219/1/5
f 221/1/5 214/1/5 220/1/5
f 224/1/5 216/1/5 215/1/5
f 225/1/5 216/1/5 224/1/5
f 226/2/5 217/2/5 216/2/5
f 226/1/5 216/1/5 225/1/5
f 227/1/5 218/1/5 217/1/5
f 227/2/5 217/2/5 226/2/5
f 227/1/5 219/1/5 218/1/5
f 227/1/5 220/1/5 219/1/5
f 228/2/5 221/2/5 220/2/5
f 228/1/5 220/1/5 227/1/5
f 229/1/5 222/1/5 221/1/5
f 229/2/5 221/2/5 228/2/5
f 230/1/5 222/1/5 229/1/5
f 231/1/5 222/1/5 230/1/5
f 234/1/5 225/1/5 224/1/5
f 234/1/5 224/1/5 223/1/5
f 235/1/5 225/1/5 234/1/5
f 236/2/5 226/2/5 225/2/5
f 236/1/5 225/1/5 235/1/5
f 237/1/5 228/1/5 227/1/5
f 237/2/5 226/2/5 236/2/5
f 237/1/5 227/1/5 226/1/5
f 237/1/5 229/1/5 228/1/5
f 238/2/5 230/2/5 229/2/5
f 238/1/5 229/1/5 237/1/5
f 239/1/5 232/1/5 231/1/5
f 239/2/5 230/2/5 238/2/5
f 239/1/5 231/1/5 230/1/5
f 240/1/5 232/1/5 239/1/5
f 241/1/5 232/1/5 240/1/5
f 243/1/5 235/1/5 234/1/5
f 243/1/5 234/1/5 233/1/5
f 244/2/5 236/2/5 235/2/5
f 244/1/5 235/1/5 243/1/5
f 245/1/5 238/1/5 237/1/5
f 245/2/5 236/2/5 244/2/5
f 245/1/5 237/1/5 236/1/5
f 245/1/5 239/1/5 238/1/5
f 246/2/5 240/2/5 239/2/5
f 246/1/5 239/1/5 245/1/5
f 247/1/5 242/1/5 241/1/5
f 247/2/5 240/2/5 246/2/5
f 247/1/5 241/1/5 240/1/5
f 248/1/5 242/1/5 247/1/5
f 250/1/5 243/1/5 233/1/5
f 251/2/5 244/2/5 243/2/5
f 251/1/5 243/1/5 250/1/5
f 252/1/5 246/1/5 245/1/5
f 252/2/5 244/2/5 251/2/5
f 252/1/5 245/1/5 244/1/5
f 252/1/5 247/1/5 246/1/5
f 253/2/5 248/2/5 247/2/5
f 253/1/5 247/1/5 252/1/5
f 254/1/5 242/1/5 248/1/5
f 254/2/5 248/2/5 253/2/5
f 255/1/5 242/1/5 254/1/5
f 257/2/5 251/2/5 250/2/5
f 257/1/5 250/1/5 249/1/5
f 258/1/5 253/1/5 252/1/5
f 258/2/5 251/2/5 257/2/5
f 258/1/5 252/1/5 251/1/5
f 258/1/5 254/1/5 253/1/5
f 259/2/5 255/2/5 254/2/5
f 259/1/5 254/1/5 258/1/5
f 260/1/5 256/1/5 255/1/5
f 260/2/5 255/2/5 259/2/5
f 262/1/5 259/1/5 258/1/5
f 262/1/5 258/1/5 257/1/5
f 262/1/5 260/1/5 259/1/5
f 262/1/5 257/1/5 249/1/5
f 263/1/5 260/1/5 262/1/5
f 264/1/5 256/1/5 260/1/5
f 264/1/5 260/1/5 263/1/5
f 265/1/5 256/1/5 264/1/5
f 267/1/5 264/1/5 263/1/5
f 267/2/5 265/2/5 264/2/5
f 268/1/5 266/1/5 265/1/5
f 268/2/5 265/2/5 267/2/5
f 269/1/5 262/1/5 261/1/5
f 270/2/5 263/2/5 262/2/5
f 270/1/5 262/1/5 269/1/5
f 271/1/5 267/1/5 263/1/5
f 271/2/5 263/2/5 270/2/5
f 271/1/5 268/1/5 267/1/5
f 272/1/5 268/1/5 271/1/5
f 273/1/5 268/1/5 272/1/5
f 274/1/5 266/1/5 268/1/5
f 274/1/5 268/1/5 273/1/5
f 275/1/5 266/1/5 274/1/5
f 276/1/5 271/1/5 270/1/5
f 276/1/5 272/1/5 271/1/5
f 277/1/5 272/1/5 276/1/5
f 278/1/5 272/1/5 277/1/5
f 279/2/5 273/2/5 272/2/5
f 279/1/5 272/1/5 278/1/5
f 280/1/5 274/1/5 273/1/5
f 280/2/5 273/2/5 279/2/5
f 281/1/5 276/1/5 270/1/5
f 282/2/5 277/2/5 276/2/5
f 282/1/5 276/1/5 281/1/5
f 283/1/5 278/1/5 277/1/5
f 283/2/5 277/2/5 282/2/5
f 284/1/5 278/1/5 283/1/5
f 285/1/5 278/1/5 284/1/5
f 286/2/5 279/2/5 278/2/5
f 286/1/5 278/1/5 285/1/5
f 287/1/5 280/1/5 279/1/5
f 287/2/5 279/2/5 286/2/5
f 288/1/5 274/1/5 280/1/5
f 288/1/5 280/1/5 287/1/5
f 289/1/5 274/1/5 288/1/5
f 290/1/5 283/1/5 282/1/5
f 290/2/5 284/2/5 283/2/5
f 291/1/5 285/1/5 284/1/5
f 291/2/5 284/2/5 290/2/5
f 292/1/5 285/1/5 291/1/5
f 293/1/5 285/1/5 292/1/5
f 294/2/5 286/2/5 285/2/5
f 294/1/5 285/1/5 293/1/5
f 295/1/5 287/1/5 286/1/5
f 295/2/5 286/2/5 294/2/5
f 295/1/5 288/1/5 287/1/5
f 296/1/5 290/1/5 282/1/5
f 296/1/5 291/1/5 290/1/5
f 297/1/5 291/1/5 296/1/5
f 298/2/5 292/2/5 291/2/5
f 298/1/5 291/1/5 297/1/5
f 299/1/5 293/1/5 292/1/5
f 299/2/5 292/2/5 298/2/5
f 300/1/5 293/1/5 299/1/5
f 301/1/5 293/1/5 300/1/5
f 302/2/5 294/2/5 293/2/5
f 302/1/5 293/1/5 301/1/5
f 303/1/5 295/1/5 294/1/5
f 303/2/5 294/2/5 302/2/5
f 304/1/5 288/1/5 295/1/5
f 304/1/5 295/1/5 303/1/5
f 305/1/5 288/1/5 304/1/5
f 306/1/5 298/1/5 297/1/5
f 306/1/5 299/1/5 298/1/5
f 307/1/5 299/1/5 306/1/5
f 308/2/5 300/2/5 299/2/5
f 308/1/5 299/1/5 307/1/5
f 309/1/5 301/1/5 300/1/5
f 309/2/5 300/2/5 308/2/5
f 310/1/5 301/1/5 309/1/5
f 311/1/5 301/1/5 310/1/5
f 312/2/5 302/2/5 301/2/5
f 312/1/5 301/1/5 311/1/5
f 313/1/5 303/1/5 302/1/5
f 313/2/5 302/2/5 312/2/5
f 313/1/5 304/1/5 303/1/5
f 314/1/5 304/1/5 313/1/5
f 315/1/5 304/1/5 314/1/5
f 316/1/5 308/1/5 307/1/5
f 316/1/5 309/1/5 308/1/5
f 317/2/5 310/2/5 309/2/5
f 317/1/5 309/1/5 316/1/5
f 318/1/5 311/1/5 310/1/5
f 318/2/5 310/2/5 317/2/5
f 319/1/5 311/1/5 318/1/5
f 320/1/5 311/1/5 319/1/5
f 321/2/5 312/2/5 311/2/5
f 321/1/5 311/1/5 320/1/5
f 322/1/5 314/1/5 313/1/5
f 322/2/5 312/2/5 321/2/5
f 322/1/5 313/1/5 312/1/5
f 323/1/5 314/1/5 322/1/5
f 324/1/5 314/1/5 323/1/5
f 325/1/5 319/1/5 318/1/5
f 325/1/5 318/1/5 317/1/5
f 326/2/5 320/2/5 319/2/5
f 326/1/5 319/1/5 325/1/5
f 327/1/5 321/1/5 320/1/5
f 327/2/5 320/2/5 326/2/5
f 327/1/5 323/1/5 322/1/5
f 327/1/5 322/1/5 321/1/5
f 328/1/5 323/1/5 327/1/5
f 329/1/5 323/1/5 328/1/5
f 330/1/5 327/1/5 326/1/5
f 330/1/5 328/1/5 327/1/5
f 331/1/5 328/1/5 330/1/5
f 332/1/6 333/1/6 335/1/6
f 335/1/6 333/1/6 336/1/6
f 334/1/6 335/1/6 339/1/6
f 339/1/6 335/1/6 340/1/6
f 335/2/6 336/2/6 341/2/6
f 340/1/6 335/1/6 341/1/6
f 336/1/6 337/1/6 342/1/6
f 341/2/6 336/2/6 342/2/6
f 342/1/6 337/1/6 343/1/6
f 343/1/6 337/1/6 344/1/6
f 338/1/6 339/1/6 347/1/6
f 347/1/6 339/1/6 348/1/6
f 339/2/6 340/2/6 349/2/6
f 348/1/6 339/1/6 349/1/6
f 340/1/6 341/1/6 350/1/6
f 349/2/6 340/2/6 350/2/6
f 341/1/6 342/1/6 350/1/6
f 342/1/6 343/1/6 350/1/6
f 343/2/6 344/2/6 351/2/6
f 350/1/6 343/1/6 351/1/6
f 344/1/6 345/1/6 352/1/6
f 351/2/6 344/2/6 352/2/6
f 352/1/6 345/1/6 353/1/6
f 353/1/6 345/1/6 354/1/6
f 347/1/6 348/1/6 357/1/6
f 346/1/6 347/1/6 357/1/6
f 357/1/6 348/1/6 358/1/6
f 348/2/6 349/2/6 359/2/6
f 358/1/6 348/1/6 359/1/6
f 350/1/6 351/1/6 360/1/6
f 359/2/6 349/2/6 360/2/6
f 349/1/6 350/1/6 360/1/6
f 351/1/6 352/1/6 360/1/6
f 352/2/6 353/2/6 361/2/6
f 360/1/6 352/1/6 361/1/6
f 354/1/6 355/1/6 362/1/6
f 361/2/6 353/2/6 362/2/6
f 353/1/6 354/1/6 362/1/6
f 362/1/6 355/1/6 363/1/6
f 363/1/6 355/1/6 364/1/6
f 357/1/6 358/1/6 366/1/6
f 356/1/6 357/1/6 366/1/6
f 358/2/6 359/2/6 367/2/6
f 366/1/6 358/1/6 367/1/6
f 360/1/6 361/1/6 368/1/6
f 367/2/6 359/2/6 368/2/6
f 359/1/6 360/1/6 368/1/6
f 361/1/6 362/1/6 368/1/6
f 362/2/6 363/2/6 369/2/6
f 368/1/6 362/1/6 369/1/6
f 364/1/6 365/1/6 370/1/6
f 369/2/6 363/2/6 370/2/6
f 363/1/6 364/1/6 370/1/6
f 370/1/6 365/1/6 371/1/6
f 356/1/6 366/1/6 373/1/6
f 366/2/6 367/2/6 374/2/6
f 373/1/6 366/1/6 374/1/6
f 368/1/6 369/1/6 375/1/6
f 374/2/6 367/2/6 375/2/6
f 367/1/6 368/1/6 375/1/6
f 369/1/6 370/1/6 375/1/6
f 370/2/6 371/2/6 376/2/6
f 375/1/6 370/1/6 376/1/6
f 371/1/6 365/1/6 377/1/6
f 376/2/6 371/2/6 377/2/6
f 377/1/6 365/1/6 378/1/6
f 373/2/6 374/2/6 380/2/6
f 372/1/6 373/1/6 380/1/6
f 375/1/6 376/1/6 381/1/6
f 380/2/6 374/2/6 381/2/6
f 374/1/6 375/1/6 381/1/6
f 376/1/6 377/1/6 381/1/6
f 377/2/6 378/2/6 382/2/6
f 381/1/6 377/1/6 382/1/6
f 378/1/6 379/1/6 383/1/6
f 382/2/6 378/2/6 383/2/6
f 381/1/6 382/1/6 385/1/6
f 380/1/6 381/1/6 385/1/6
f 382/1/6 383/1/6 385/1/6
f 372/1/6 380/1/6 385/1/6
f 385/1/6 383/1/6 386/1/6
f 383/1/6 379/1/6 387/1/6
f 386/1/6 383/1/6 387/1/6
f 387/1/6 379/1/6 388/1/6
f 386/1/6 387/1/6 390/1/6
f 387/2/6 388/2/6 390/2/6
f 388/1/6 389/1/6 391/1/6
f 390/2/6 388/2/6 391/2/6
f 384/1/6 385/1/6 392/1/6
f 385/2/6 386/2/6 393/2/6
f 392/1/6 385/1/6 393/1/6
f 386/1/6 390/1/6 394/1/6
f 393/2/6 386/2/6 394/2/6
f 390/1/6 391/1/6 394/1/6
f 394/1/6 391/1/6 395/1/6
f 395/1/6 391/1/6 396/1/6
f 391/1/6 389/1/6 397/1/6
f 396/1/6 391/1/6 397/1/6
f 397/1/6 389/1/6 398/1/6
f 393/1/6 394/1/6 399/1/6
f 394/1/6 395/1/6 399/1/6
f 399/1/6 395/1/6 400/1/6
f 400/1/6 395/1/6 401/1/6
f 395/2/6 396/2/6 402/2/6
f 401/1/6 395/1/6 402/1/6
f 396/1/6 397/1/6 403/1/6
f 402/2/6 396/2/6 403/2/6
f 393/1/6 399/1/6 404/1/6
f 399/2/6 400/2/6 405/2/6
f 404/1/6 399/1/6 405/1/6
f 400/1/6 401/1/6 406/1/6
f 405/2/6 400/2/6 406/2/6
f 406/1/6 401/1/6 407/1/6
f 407/1/6 401/1/6 408/1/6
f 401/2/6 402/2/6 409/2/6
f 408/1/6 401/1/6 409/1/6
f 402/1/6 403/1/6 410/1/6
f 409/2/6 402/2/6 410/2/6
f 403/1/6 397/1/6 411/1/6
f 410/1/6 403/1/6 411/1/6
f 411/1/6 397/1/6 412/1/6
f 405/1/6 406/1/6 413/1/6
f 406/2/6 407/2/6 413/2/6
f 407/1/6 408/1/6 414/1/6
f 413/2/6 407/2/6 414/2/6
f 414/1/6 408/1/6 415/1/6
f 415/1/6 408/1/6 416/1/6
f 408/2/6 409/2/6 417/2/6
f 416/1/6 408/1/6 417/1/6
f 409/1/6 410/1/6 418/1/6
f 417/2/6 409/2/6 418/2/6
f 410/1/6 411/1/6 418/1/6
f 405/1/6 413/1/6 419/1/6
f 413/1/6 414/1/6 419/1/6
f 419/1/6 414/1/6 420/1/6
f 414/2/6 415/2/6 421/2/6
f 420/1/6 414/1/6 421/1/6
f 415/1/6 416/1/6 422/1/6
f 421/2/6 415/2/6 422/2/6
f 422/1/6 416/1/6 423/1/6
f 423/1/6 416/1/6 424/1/6
f 416/2/6 417/2/6 425/2/6
f 424/1/6 416/1/6 425/1/6
f 417/1/6 418/1/6 426/1/6
f 425/2/6 417/2/6 426/2/6
f 418/1/6 411/1/6 427/1/6
f 426/1/6 418/1/6 427/1/6
f 427/1/6 411/1/6 428/1/6
f 420/1/6 421/1/6 429/1/6
f 421/1/6 422/1/6 429/1/6
f 429/1/6 422/1/6 430/1/6
f 422/2/6 423/2/6 431/2/6
f 430/1/6 422/1/6 431/1/6
f 423/1/6 424/1/6 432/1/6
f 431/2/6 423/2/6 432/2/6
f 432/1/6 424/1/6 433/1/6
f 433/1/6 424/1/6 434/1/6
f 424/2/6 425/2/6 435/2/6
f 434/1/6 424/1/6 435/1/6
f 425/1/6 426/1/6 436/1/6
f 435/2/6 425/2/6 436/2/6
f 426/1/6 427/1/6 436/1/6
f 436/1/6 427/1/6 437/1/6
f 437/1/6 427/1/6 438/1/6
f 430/1/6 431/1/6 439/1/6
f 431/1/6 432/1/6 439/1/6
f 432/2/6 433/2/6 440/2/6
f 439/1/6 432/1/6 440/1/6
f 433/1/6 434/1/6 441/1/6
f 440/2/6 433/2/6 441/2/6
f 441/1/6 434/1/6 442/1/6
f 442/1/6 434/1/6 443/1/6
f 434/2/6 435/2/6 444/2/6
f 443/1/6 434/1/6 444/1/6
f 436/1/6 437/1/6 445/1/6
f 444/2/6 435/2/6 445/2/6
f 435/1/6 436/1/6 445/1/6
f 445/1/6 437/1/6 446/1/6
f 446/1/6 437/1/6 447/1/6
f 441/1/6 442/1/6 448/1/6
f 440/1/6 441/1/6 448/1/6
f 442/2/6 443/2/6 449/2/6
f 448/1/6 442/1/6 449/1/6
f 443/1/6 444/1/6 450/1/6
f 449/2/6 443/2/6 450/2/6
f 445/1/6 446/1/6 450/1/6
f 444/1/6 445/1/6 450/1/6
f 450/1/6 446/1/6 451/1/6
f 451/1/6 446/1/6 452/1/6
f 449/1/6 450/1/6 453/1/6
f 450/1/6 451/1/6 453/1/6
f 453/1/6 451/1/6 454/1/6
