# MagicaVoxel @ Ephtracy

# group
g untitled

# material
mtllib untitled.mtl
usemtl palette

# normals
vn -1 0 0
vn 1 0 0
vn 0 0 1
vn 0 0 -1
vn 0 -1 0
vn 0 1 0

# texcoords
vt 0.185547 0.5
vt 0.595703 0.5
vt 0.962891 0.5
vt 0.994141 0.5

# verts
v -3 1 5
v -3 1 4
v -3 1 2
v -3 1 1
v -3 2 6
v -3 2 5
v -3 2 4
v -3 2 2
v -3 2 1
v -3 2 -0
v -3 6 6
v -3 6 -0
v -2 6 5
v -2 6 4
v -2 6 2
v -2 6 1
v -2 7 7
v -2 7 5
v -2 7 1
v -2 7 -1
v -2 8 7
v -2 8 4
v -2 8 2
v -2 8 -1
v -1 1 5
v -1 1 4
v -1 1 2
v -1 1 1
v -1 2 5
v -1 2 4
v -1 2 2
v -1 2 1
v 1 1 5
v 1 1 4
v 1 1 2
v 1 1 1
v 1 2 5
v 1 2 4
v 1 2 2
v 1 2 1
v 2 6 5
v 2 6 4
v 2 6 2
v 2 6 1
v 2 8 5
v 2 8 4
v 2 8 2
v 2 8 1
v -2 1 5
v -2 1 4
v -2 1 2
v -2 1 1
v -2 2 5
v -2 2 4
v -2 2 2
v -2 2 1
v 0 1 5
v 0 1 4
v 0 1 2
v 0 1 1
v 0 2 5
v 0 2 4
v 0 2 2
v 0 2 1
v 1 6 5
v 1 6 4
v 1 6 2
v 1 6 1
v 1 7 7
v 1 7 5
v 1 7 1
v 1 7 -1
v 1 8 7
v 1 8 4
v 1 8 2
v 1 8 -1
v 2 1 5
v 2 1 4
v 2 1 2
v 2 1 1
v 2 2 5
v 2 2 4
v 2 2 2
v 2 2 1
v 3 2 6
v 3 2 -0
v 3 3 6
v 3 3 5
v 3 3 4
v 3 3 2
v 3 3 1
v 3 3 -0
v 3 4 5
v 3 4 4
v 3 4 2
v 3 4 1
v 3 5 6
v 3 5 4
v 3 5 2
v 3 5 -0
v 3 6 6
v 3 6 5
v 3 6 4
v 3 6 2
v 3 6 1
v 3 6 -0
v 3 7 5
v 3 7 4
v 3 7 2
v 3 7 1
v 4 7 5
v 4 7 4
v 4 7 2
v 4 7 1
v 4 8 5
v 4 8 4
v 4 8 2
v 4 8 1
v -2 7 7
v -2 8 7
v 1 7 7
v 1 8 7
v -3 2 6
v -3 6 6
v -2 2 6
v -2 6 6
v -1 2 6
v -1 6 6
v 0 2 6
v 0 6 6
v 1 2 6
v 1 6 6
v 2 3 6
v 2 5 6
v 3 2 6
v 3 3 6
v 3 5 6
v 3 6 6
v -3 1 5
v -3 2 5
v -2 1 5
v -2 2 5
v -2 6 5
v -2 7 5
v -1 1 5
v -1 2 5
v -1 6 5
v 0 1 5
v 0 2 5
v 0 6 5
v 1 1 5
v 1 2 5
v 1 6 5
v 1 7 5
v 2 1 5
v 2 2 5
v 2 6 5
v 2 8 5
v 3 6 5
v 3 7 5
v 3 8 5
v 4 7 5
v 4 8 5
v -3 1 2
v -3 2 2
v -2 1 2
v -2 2 2
v -2 6 2
v -2 8 2
v -1 1 2
v -1 2 2
v -1 6 2
v 0 1 2
v 0 2 2
v 0 6 2
v 1 1 2
v 1 2 2
v 1 6 2
v 1 8 2
v 2 1 2
v 2 2 2
v 2 6 2
v 2 8 2
v 3 6 2
v 3 7 2
v 3 8 2
v 4 7 2
v 4 8 2
v -3 1 4
v -3 2 4
v -2 1 4
v -2 2 4
v -2 6 4
v -2 8 4
v -1 1 4
v -1 2 4
v -1 6 4
v 0 1 4
v 0 2 4
v 0 6 4
v 1 1 4
v 1 2 4
v 1 6 4
v 1 8 4
v 2 1 4
v 2 2 4
v 2 6 4
v 2 8 4
v 3 6 4
v 3 7 4
v 3 8 4
v 4 7 4
v 4 8 4
v -3 1 1
v -3 2 1
v -2 1 1
v -2 2 1
v -2 6 1
v -2 7 1
v -1 1 1
v -1 2 1
v -1 6 1
v 0 1 1
v 0 2 1
v 0 6 1
v 1 1 1
v 1 2 1
v 1 6 1
v 1 7 1
v 2 1 1
v 2 2 1
v 2 6 1
v 2 8 1
v 3 6 1
v 3 7 1
v 3 8 1
v 4 7 1
v 4 8 1
v -3 2 -0
v -3 6 -0
v -2 2 -0
v -2 6 -0
v -1 2 -0
v -1 6 -0
v 0 2 -0
v 0 6 -0
v 1 2 -0
v 1 6 -0
v 2 3 -0
v 2 5 -0
v 3 2 -0
v 3 3 -0
v 3 5 -0
v 3 6 -0
v -2 7 -1
v -2 8 -1
v 1 7 -1
v 1 8 -1
v -3 1 5
v -2 1 5
v -1 1 5
v 0 1 5
v 1 1 5
v 2 1 5
v -3 1 4
v -2 1 4
v -1 1 4
v 0 1 4
v 1 1 4
v 2 1 4
v -3 1 2
v -2 1 2
v -1 1 2
v 0 1 2
v 1 1 2
v 2 1 2
v -3 1 1
v -2 1 1
v -1 1 1
v 0 1 1
v 1 1 1
v 2 1 1
v -3 2 6
v -2 2 6
v -1 2 6
v 0 2 6
v 1 2 6
v 3 2 6
v -3 2 5
v -2 2 5
v -1 2 5
v 0 2 5
v 1 2 5
v 2 2 5
v -3 2 4
v -2 2 4
v -1 2 4
v 0 2 4
v 1 2 4
v 2 2 4
v -3 2 2
v -2 2 2
v -1 2 2
v 0 2 2
v 1 2 2
v 2 2 2
v -3 2 1
v -2 2 1
v -1 2 1
v 0 2 1
v 1 2 1
v 2 2 1
v -3 2 -0
v -2 2 -0
v -1 2 -0
v 0 2 -0
v 1 2 -0
v 3 2 -0
v -2 7 7
v 1 7 7
v -2 7 5
v 1 7 5
v 3 7 5
v 4 7 5
v 3 7 4
v 4 7 4
v 3 7 2
v 4 7 2
v -2 7 1
v 1 7 1
v 3 7 1
v 4 7 1
v -2 7 -1
v 1 7 -1
v -3 6 6
v -2 6 6
v -1 6 6
v 0 6 6
v 1 6 6
v 3 6 6
v -2 6 5
v -1 6 5
v 0 6 5
v 1 6 5
v 2 6 5
v 3 6 5
v -2 6 4
v -1 6 4
v 0 6 4
v 1 6 4
v 2 6 4
v 3 6 4
v -2 6 2
v -1 6 2
v 0 6 2
v 1 6 2
v 2 6 2
v 3 6 2
v -2 6 1
v -1 6 1
v 0 6 1
v 1 6 1
v 2 6 1
v 3 6 1
v -3 6 -0
v -2 6 -0
v -1 6 -0
v 0 6 -0
v 1 6 -0
v 3 6 -0
v -2 8 7
v 1 8 7
v 2 8 5
v 3 8 5
v 4 8 5
v -2 8 4
v 1 8 4
v 2 8 4
v 3 8 4
v 4 8 4
v -2 8 2
v 1 8 2
v 2 8 2
v 3 8 2
v 4 8 2
v 2 8 1
v 3 8 1
v 4 8 1
v -2 8 -1
v 1 8 -1

# faces
f 6/4/1 2/4/1 1/4/1
f 7/4/1 2/4/1 6/4/1
f 8/4/1 4/4/1 3/4/1
f 9/4/1 4/4/1 8/4/1
f 11/1/1 7/1/1 6/1/1
f 11/1/1 10/1/1 9/1/1
f 11/1/1 9/1/1 8/1/1
f 11/1/1 8/1/1 7/1/1
f 11/1/1 6/1/1 5/1/1
f 12/1/1 10/1/1 11/1/1
f 18/2/1 14/2/1 13/2/1
f 19/2/1 16/2/1 15/2/1
f 21/2/1 18/2/1 17/2/1
f 22/2/1 14/2/1 18/2/1
f 22/2/1 18/2/1 21/2/1
f 23/2/1 20/2/1 19/2/1
f 23/2/1 19/2/1 15/2/1
f 24/2/1 20/2/1 23/2/1
f 29/4/1 26/4/1 25/4/1
f 30/4/1 26/4/1 29/4/1
f 31/4/1 28/4/1 27/4/1
f 32/4/1 28/4/1 31/4/1
f 37/4/1 34/4/1 33/4/1
f 38/4/1 34/4/1 37/4/1
f 39/4/1 36/4/1 35/4/1
f 40/4/1 36/4/1 39/4/1
f 45/4/1 42/4/1 41/4/1
f 46/4/1 42/4/1 45/4/1
f 47/4/1 44/4/1 43/4/1
f 48/4/1 44/4/1 47/4/1
f 49/4/2 50/4/2 53/4/2
f 53/4/2 50/4/2 54/4/2
f 51/4/2 52/4/2 55/4/2
f 55/4/2 52/4/2 56/4/2
f 57/4/2 58/4/2 61/4/2
f 61/4/2 58/4/2 62/4/2
f 59/4/2 60/4/2 63/4/2
f 63/4/2 60/4/2 64/4/2
f 65/2/2 66/2/2 70/2/2
f 67/2/2 68/2/2 71/2/2
f 69/2/2 70/2/2 73/2/2
f 70/2/2 66/2/2 74/2/2
f 73/2/2 70/2/2 74/2/2
f 71/2/2 72/2/2 75/2/2
f 67/2/2 71/2/2 75/2/2
f 75/2/2 72/2/2 76/2/2
f 77/4/2 78/4/2 81/4/2
f 81/4/2 78/4/2 82/4/2
f 79/4/2 80/4/2 83/4/2
f 83/4/2 80/4/2 84/4/2
f 85/1/2 86/1/2 87/1/2
f 87/1/2 86/1/2 88/1/2
f 88/1/2 86/1/2 89/1/2
f 89/1/2 86/1/2 90/1/2
f 90/1/2 86/1/2 91/1/2
f 91/1/2 86/1/2 92/1/2
f 87/3/2 88/3/2 93/3/2
f 88/4/2 89/4/2 93/4/2
f 89/1/2 90/1/2 94/1/2
f 93/4/2 89/4/2 94/4/2
f 90/4/2 91/4/2 95/4/2
f 94/1/2 90/1/2 95/1/2
f 91/3/2 92/3/2 96/3/2
f 95/4/2 91/4/2 96/4/2
f 87/3/2 93/3/2 97/3/2
f 93/3/2 94/3/2 97/3/2
f 94/1/2 95/1/2 98/1/2
f 97/3/2 94/3/2 98/3/2
f 95/3/2 96/3/2 99/3/2
f 98/1/2 95/1/2 99/1/2
f 96/3/2 92/3/2 100/3/2
f 99/3/2 96/3/2 100/3/2
f 98/1/2 99/1/2 101/1/2
f 97/1/2 98/1/2 101/1/2
f 99/1/2 100/1/2 101/1/2
f 101/1/2 100/1/2 102/1/2
f 102/1/2 100/1/2 103/1/2
f 103/1/2 100/1/2 104/1/2
f 104/1/2 100/1/2 105/1/2
f 105/1/2 100/1/2 106/1/2
f 102/4/2 103/4/2 107/4/2
f 107/4/2 103/4/2 108/4/2
f 104/4/2 105/4/2 109/4/2
f 109/4/2 105/4/2 110/4/2
f 111/1/2 112/1/2 115/1/2
f 115/1/2 112/1/2 116/1/2
f 113/1/2 114/1/2 117/1/2
f 117/1/2 114/1/2 118/1/2
f 121/2/3 120/2/3 119/2/3
f 122/2/3 120/2/3 121/2/3
f 125/1/3 124/1/3 123/1/3
f 126/1/3 124/1/3 125/1/3
f 127/4/3 126/4/3 125/4/3
f 128/4/3 126/4/3 127/4/3
f 129/1/3 128/1/3 127/1/3
f 130/1/3 128/1/3 129/1/3
f 131/4/3 130/4/3 129/4/3
f 132/4/3 130/4/3 131/4/3
f 133/1/3 132/1/3 131/1/3
f 134/1/3 132/1/3 133/1/3
f 135/1/3 133/1/3 131/1/3
f 136/3/3 134/3/3 133/3/3
f 136/1/3 133/1/3 135/1/3
f 137/1/3 132/1/3 134/1/3
f 137/3/3 134/3/3 136/3/3
f 138/1/3 132/1/3 137/1/3
f 141/4/3 140/4/3 139/4/3
f 142/4/3 140/4/3 141/4/3
f 147/2/3 144/2/3 143/2/3
f 148/4/3 146/4/3 145/4/3
f 149/4/3 146/4/3 148/4/3
f 150/2/3 144/2/3 147/2/3
f 153/2/3 144/2/3 150/2/3
f 154/2/3 144/2/3 153/2/3
f 155/4/3 152/4/3 151/4/3
f 156/4/3 152/4/3 155/4/3
f 159/4/3 158/4/3 157/4/3
f 160/4/3 158/4/3 159/4/3
f 161/4/3 158/4/3 160/4/3
f 162/1/3 161/1/3 160/1/3
f 163/1/3 161/1/3 162/1/3
f 166/4/3 165/4/3 164/4/3
f 167/4/3 165/4/3 166/4/3
f 172/2/3 169/2/3 168/2/3
f 173/4/3 171/4/3 170/4/3
f 174/4/3 171/4/3 173/4/3
f 175/2/3 169/2/3 172/2/3
f 178/2/3 169/2/3 175/2/3
f 179/2/3 169/2/3 178/2/3
f 180/4/3 177/4/3 176/4/3
f 181/4/3 177/4/3 180/4/3
f 184/4/3 183/4/3 182/4/3
f 185/4/3 183/4/3 184/4/3
f 186/4/3 183/4/3 185/4/3
f 187/1/3 186/1/3 185/1/3
f 188/1/3 186/1/3 187/1/3
f 189/4/4 190/4/4 191/4/4
f 191/4/4 190/4/4 192/4/4
f 193/2/4 194/2/4 197/2/4
f 195/4/4 196/4/4 198/4/4
f 198/4/4 196/4/4 199/4/4
f 197/2/4 194/2/4 200/2/4
f 200/2/4 194/2/4 203/2/4
f 203/2/4 194/2/4 204/2/4
f 201/4/4 202/4/4 205/4/4
f 205/4/4 202/4/4 206/4/4
f 207/4/4 208/4/4 209/4/4
f 209/4/4 208/4/4 210/4/4
f 210/4/4 208/4/4 211/4/4
f 210/1/4 211/1/4 212/1/4
f 212/1/4 211/1/4 213/1/4
f 214/4/4 215/4/4 216/4/4
f 216/4/4 215/4/4 217/4/4
f 218/2/4 219/2/4 222/2/4
f 220/4/4 221/4/4 223/4/4
f 223/4/4 221/4/4 224/4/4
f 222/2/4 219/2/4 225/2/4
f 225/2/4 219/2/4 228/2/4
f 228/2/4 219/2/4 229/2/4
f 226/4/4 227/4/4 230/4/4
f 230/4/4 227/4/4 231/4/4
f 232/4/4 233/4/4 234/4/4
f 234/4/4 233/4/4 235/4/4
f 235/4/4 233/4/4 236/4/4
f 235/1/4 236/1/4 237/1/4
f 237/1/4 236/1/4 238/1/4
f 239/1/4 240/1/4 241/1/4
f 241/1/4 240/1/4 242/1/4
f 241/4/4 242/4/4 243/4/4
f 243/4/4 242/4/4 244/4/4
f 243/1/4 244/1/4 245/1/4
f 245/1/4 244/1/4 246/1/4
f 245/4/4 246/4/4 247/4/4
f 247/4/4 246/4/4 248/4/4
f 247/1/4 248/1/4 249/1/4
f 249/1/4 248/1/4 250/1/4
f 247/1/4 249/1/4 251/1/4
f 249/3/4 250/3/4 252/3/4
f 251/1/4 249/1/4 252/1/4
f 250/1/4 248/1/4 253/1/4
f 252/3/4 250/3/4 253/3/4
f 253/1/4 248/1/4 254/1/4
f 255/2/4 256/2/4 257/2/4
f 257/2/4 256/2/4 258/2/4
f 265/4/5 260/4/5 259/4/5
f 266/4/5 260/4/5 265/4/5
f 267/4/5 262/4/5 261/4/5
f 268/4/5 262/4/5 267/4/5
f 269/4/5 264/4/5 263/4/5
f 270/4/5 264/4/5 269/4/5
f 277/4/5 272/4/5 271/4/5
f 278/4/5 272/4/5 277/4/5
f 279/4/5 274/4/5 273/4/5
f 280/4/5 274/4/5 279/4/5
f 281/4/5 276/4/5 275/4/5
f 282/4/5 276/4/5 281/4/5
f 289/1/5 284/1/5 283/1/5
f 290/4/5 285/4/5 284/4/5
f 290/1/5 284/1/5 289/1/5
f 291/1/5 286/1/5 285/1/5
f 291/4/5 285/4/5 290/4/5
f 292/4/5 287/4/5 286/4/5
f 292/1/5 286/1/5 291/1/5
f 293/1/5 288/1/5 287/1/5
f 293/4/5 287/4/5 292/4/5
f 294/1/5 288/1/5 293/1/5
f 296/4/5 291/4/5 290/4/5
f 297/4/5 291/4/5 296/4/5
f 298/4/5 293/4/5 292/4/5
f 299/4/5 293/4/5 298/4/5
f 300/1/5 288/1/5 294/1/5
f 301/1/5 296/1/5 295/1/5
f 302/4/5 297/4/5 296/4/5
f 302/1/5 296/1/5 301/1/5
f 303/1/5 298/1/5 297/1/5
f 303/4/5 297/4/5 302/4/5
f 304/4/5 299/4/5 298/4/5
f 304/1/5 298/1/5 303/1/5
f 305/1/5 300/1/5 299/1/5
f 305/4/5 299/4/5 304/4/5
f 306/1/5 288/1/5 300/1/5
f 306/1/5 300/1/5 305/1/5
f 308/4/5 303/4/5 302/4/5
f 309/4/5 303/4/5 308/4/5
f 310/4/5 305/4/5 304/4/5
f 311/4/5 305/4/5 310/4/5
f 312/1/5 288/1/5 306/1/5
f 313/1/5 308/1/5 307/1/5
f 314/4/5 309/4/5 308/4/5
f 314/1/5 308/1/5 313/1/5
f 315/1/5 310/1/5 309/1/5
f 315/4/5 309/4/5 314/4/5
f 316/4/5 311/4/5 310/4/5
f 316/1/5 310/1/5 315/1/5
f 317/1/5 312/1/5 311/1/5
f 317/4/5 311/4/5 316/4/5
f 318/1/5 288/1/5 312/1/5
f 318/1/5 312/1/5 317/1/5
f 321/2/5 320/2/5 319/2/5
f 322/2/5 320/2/5 321/2/5
f 325/1/5 324/1/5 323/1/5
f 326/1/5 324/1/5 325/1/5
f 331/1/5 328/1/5 327/1/5
f 332/1/5 328/1/5 331/1/5
f 333/2/5 330/2/5 329/2/5
f 334/2/5 330/2/5 333/2/5
f 335/1/6 336/1/6 341/1/6
f 336/4/6 337/4/6 341/4/6
f 337/1/6 338/1/6 342/1/6
f 341/4/6 337/4/6 342/4/6
f 338/4/6 339/4/6 343/4/6
f 342/1/6 338/1/6 343/1/6
f 339/1/6 340/1/6 344/1/6
f 343/4/6 339/4/6 344/4/6
f 344/1/6 340/1/6 345/1/6
f 345/1/6 340/1/6 346/1/6
f 335/1/6 341/1/6 347/1/6
f 344/1/6 345/1/6 350/1/6
f 350/1/6 345/1/6 351/1/6
f 335/1/6 347/1/6 353/1/6
f 347/4/6 348/4/6 353/4/6
f 348/1/6 349/1/6 354/1/6
f 353/4/6 348/4/6 354/4/6
f 349/4/6 350/4/6 355/4/6
f 354/1/6 349/1/6 355/1/6
f 351/1/6 352/1/6 356/1/6
f 355/4/6 350/4/6 356/4/6
f 350/1/6 351/1/6 356/1/6
f 356/1/6 352/1/6 357/1/6
f 357/1/6 352/1/6 358/1/6
f 335/1/6 353/1/6 359/1/6
f 356/1/6 357/1/6 362/1/6
f 362/1/6 357/1/6 363/1/6
f 335/1/6 359/1/6 365/1/6
f 359/4/6 360/4/6 366/4/6
f 365/1/6 359/1/6 366/1/6
f 360/1/6 361/1/6 367/1/6
f 366/4/6 360/4/6 367/4/6
f 361/4/6 362/4/6 368/4/6
f 367/1/6 361/1/6 368/1/6
f 363/1/6 364/1/6 369/1/6
f 368/4/6 362/4/6 369/4/6
f 362/1/6 363/1/6 369/1/6
f 369/1/6 364/1/6 370/1/6
f 371/2/6 372/2/6 376/2/6
f 376/2/6 372/2/6 377/2/6
f 373/4/6 374/4/6 378/4/6
f 374/1/6 375/1/6 379/1/6
f 378/4/6 374/4/6 379/4/6
f 379/1/6 375/1/6 380/1/6
f 383/4/6 384/4/6 386/4/6
f 384/1/6 385/1/6 387/1/6
f 386/4/6 384/4/6 387/4/6
f 387/1/6 385/1/6 388/1/6
f 381/2/6 382/2/6 389/2/6
f 389/2/6 382/2/6 390/2/6
