# MagicaVoxel @ Ephtracy

# group
g bed1

# material
mtllib bed1.mtl
usemtl palette

# normals
vn -1 0 0
vn 1 0 0
vn 0 0 1
vn 0 0 -1
vn 0 -1 0
vn 0 1 0

# texcoords
vt 0.419922 0.5
vt 0.533203 0.5
vt 0.755859 0.5
vt 0.794922 0.5
vt 0.896484 0.5
vt 0.962891 0.5
vt 0.966797 0.5
vt 0.970703 0.5

# verts
v -18 0 17
v -18 0 15
v -18 0 -15
v -18 0 -17
v -18 2 17
v -18 2 15
v -18 5 15
v -18 5 -15
v -18 6 17
v -18 6 16
v -18 6 15
v -18 6 12
v -18 6 9
v -18 6 5
v -18 6 2
v -18 6 -2
v -18 6 -4
v -18 6 -6
v -18 6 -15
v -18 7 17
v -18 7 16
v -18 7 15
v -18 7 12
v -18 7 9
v -18 7 5
v -18 7 2
v -18 7 -2
v -18 7 -13
v -18 7 -15
v -18 8 -6
v -18 8 -13
v -18 8 -15
v -18 9 17
v -18 9 15
v -18 9 -4
v -18 9 -6
v -18 10 -15
v -18 10 -17
v -17 9 17
v -17 9 16
v -17 9 15
v -17 10 17
v -17 10 16
v -17 10 15
v -17 10 -15
v -17 10 -17
v -17 11 -15
v -17 11 -17
v -16 10 17
v -16 10 16
v -16 10 15
v -16 11 17
v -16 11 15
v -16 11 -15
v -16 11 -17
v -16 12 -15
v -16 12 -17
v -15 11 17
v -15 11 15
v -15 12 17
v -15 12 15
v -15 12 -15
v -15 12 -17
v -15 13 -15
v -15 13 -17
v -14 8 -8
v -14 8 -13
v -14 8 -15
v -14 9 -8
v -14 9 -15
v -14 13 -15
v -14 13 -17
v -14 14 -15
v -14 14 -17
v -13 9 -10
v -13 9 -15
v -13 10 -10
v -13 10 -15
v -12 9 -9
v -12 9 -10
v -12 10 -9
v -12 10 -10
v -2 0 17
v -2 0 15
v -2 0 -15
v -2 0 -17
v -2 2 17
v -2 2 15
v -2 5 17
v -2 5 15
v -2 5 -15
v -2 5 -17
v -16 0 17
v -16 0 15
v -16 0 -15
v -16 0 -17
v -16 2 17
v -16 2 15
v -16 5 17
v -16 5 15
v -16 5 -15
v -16 5 -17
v -6 9 -9
v -6 9 -10
v -6 10 -9
v -6 10 -10
v -5 9 -10
v -5 9 -15
v -5 10 -10
v -5 10 -15
v -4 8 -8
v -4 8 -13
v -4 8 -15
v -4 9 -8
v -4 9 -15
v -4 13 -15
v -4 13 -17
v -4 14 -15
v -4 14 -17
v -3 11 17
v -3 11 15
v -3 12 17
v -3 12 15
v -3 12 -15
v -3 12 -17
v -3 13 -15
v -3 13 -17
v -2 10 17
v -2 10 16
v -2 10 15
v -2 11 17
v -2 11 15
v -2 11 -15
v -2 11 -17
v -2 12 -15
v -2 12 -17
v -1 9 17
v -1 9 16
v -1 9 15
v -1 10 17
v -1 10 16
v -1 10 15
v -1 10 -15
v -1 10 -17
v -1 11 -15
v -1 11 -17
v 0 0 17
v 0 0 15
v 0 0 -15
v 0 0 -17
v 0 2 17
v 0 2 15
v 0 5 15
v 0 5 -15
v 0 6 17
v 0 6 16
v 0 6 15
v 0 6 -4
v 0 6 -6
v 0 6 -15
v 0 7 17
v 0 7 16
v 0 7 15
v 0 7 12
v 0 7 9
v 0 7 5
v 0 7 2
v 0 7 -2
v 0 7 -13
v 0 7 -15
v 0 8 15
v 0 8 13
v 0 8 8
v 0 8 5
v 0 8 2
v 0 8 -1
v 0 8 -6
v 0 8 -13
v 0 8 -15
v 0 9 17
v 0 9 15
v 0 9 13
v 0 9 12
v 0 9 9
v 0 9 8
v 0 9 -1
v 0 9 -2
v 0 9 -4
v 0 9 -6
v 0 10 -15
v 0 10 -17
v -18 0 17
v -18 2 17
v -18 6 17
v -18 7 17
v -18 9 17
v -17 7 17
v -17 9 17
v -17 10 17
v -16 0 17
v -16 2 17
v -16 5 17
v -16 6 17
v -16 10 17
v -16 11 17
v -15 11 17
v -15 12 17
v -14 6 17
v -14 10 17
v -13 6 17
v -13 9 17
v -11 6 17
v -11 9 17
v -10 6 17
v -10 10 17
v -8 6 17
v -8 10 17
v -7 6 17
v -7 9 17
v -5 6 17
v -5 9 17
v -4 6 17
v -4 10 17
v -3 11 17
v -3 12 17
v -2 0 17
v -2 2 17
v -2 5 17
v -2 6 17
v -2 10 17
v -2 11 17
v -1 7 17
v -1 9 17
v -1 10 17
v 0 0 17
v 0 2 17
v 0 6 17
v 0 7 17
v 0 9 17
v -14 8 -8
v -14 9 -8
v -4 8 -8
v -4 9 -8
v -12 9 -9
v -12 10 -9
v -6 9 -9
v -6 10 -9
v -13 9 -10
v -13 10 -10
v -12 9 -10
v -12 10 -10
v -6 9 -10
v -6 10 -10
v -5 9 -10
v -5 10 -10
v -18 0 -15
v -18 5 -15
v -18 8 -15
v -18 10 -15
v -17 10 -15
v -17 11 -15
v -16 0 -15
v -16 5 -15
v -16 11 -15
v -16 12 -15
v -15 12 -15
v -15 13 -15
v -14 8 -15
v -14 9 -15
v -14 13 -15
v -14 14 -15
v -13 9 -15
v -13 10 -15
v -5 9 -15
v -5 10 -15
v -4 8 -15
v -4 9 -15
v -4 13 -15
v -4 14 -15
v -3 12 -15
v -3 13 -15
v -2 0 -15
v -2 5 -15
v -2 11 -15
v -2 12 -15
v -1 10 -15
v -1 11 -15
v 0 0 -15
v 0 5 -15
v 0 8 -15
v 0 10 -15
v -18 0 15
v -18 2 15
v -18 5 15
v -17 9 15
v -17 10 15
v -16 0 15
v -16 2 15
v -16 5 15
v -16 9 15
v -16 10 15
v -16 11 15
v -15 11 15
v -15 12 15
v -14 9 15
v -13 9 15
v -10 9 15
v -9 9 15
v -7 9 15
v -6 9 15
v -3 9 15
v -3 11 15
v -3 12 15
v -2 0 15
v -2 2 15
v -2 5 15
v -2 9 15
v -2 10 15
v -2 11 15
v -1 9 15
v -1 10 15
v 0 0 15
v 0 2 15
v 0 5 15
v -18 8 -6
v -18 9 -6
v 0 8 -6
v 0 9 -6
v -18 0 -17
v -18 10 -17
v -17 10 -17
v -17 11 -17
v -16 0 -17
v -16 5 -17
v -16 11 -17
v -16 12 -17
v -15 12 -17
v -15 13 -17
v -14 13 -17
v -14 14 -17
v -4 13 -17
v -4 14 -17
v -3 12 -17
v -3 13 -17
v -2 0 -17
v -2 5 -17
v -2 11 -17
v -2 12 -17
v -1 10 -17
v -1 11 -17
v 0 0 -17
v 0 10 -17
v -18 0 17
v -16 0 17
v -2 0 17
v 0 0 17
v -18 0 15
v -16 0 15
v -2 0 15
v 0 0 15
v -18 0 -15
v -16 0 -15
v -2 0 -15
v 0 0 -15
v -18 0 -17
v -16 0 -17
v -2 0 -17
v 0 0 -17
v -16 5 17
v -2 5 17
v -18 5 15
v -16 5 15
v -2 5 15
v 0 5 15
v -18 5 -15
v -16 5 -15
v -2 5 -15
v 0 5 -15
v -16 5 -17
v -2 5 -17
v -18 8 -6
v 0 8 -6
v -14 8 -8
v -4 8 -8
v -18 8 -13
v -14 8 -13
v -4 8 -13
v 0 8 -13
v -18 8 -15
v -14 8 -15
v -4 8 -15
v 0 8 -15
v -18 9 17
v -17 9 17
v -1 9 17
v 0 9 17
v -17 9 16
v -1 9 16
v -18 9 15
v -17 9 15
v -16 9 15
v -14 9 15
v -13 9 15
v -10 9 15
v -9 9 15
v -7 9 15
v -6 9 15
v -3 9 15
v -2 9 15
v -1 9 15
v 0 9 15
v -16 9 13
v -14 9 13
v -9 9 13
v -7 9 13
v -2 9 13
v 0 9 13
v -17 9 12
v -13 9 12
v -10 9 12
v -6 9 12
v -3 9 12
v 0 9 12
v -17 9 9
v -13 9 9
v -10 9 9
v -6 9 9
v -3 9 9
v 0 9 9
v -16 9 8
v -14 9 8
v -9 9 8
v -7 9 8
v -2 9 8
v 0 9 8
v -17 9 5
v -16 9 5
v -14 9 5
v -13 9 5
v -10 9 5
v -9 9 5
v -7 9 5
v -6 9 5
v -3 9 5
v -2 9 5
v -17 9 2
v -16 9 2
v -14 9 2
v -13 9 2
v -10 9 2
v -9 9 2
v -7 9 2
v -6 9 2
v -3 9 2
v -2 9 2
v -16 9 -1
v -14 9 -1
v -9 9 -1
v -7 9 -1
v -2 9 -1
v 0 9 -1
v -17 9 -2
v -13 9 -2
v -10 9 -2
v -6 9 -2
v -3 9 -2
v 0 9 -2
v -18 9 -4
v 0 9 -4
v -18 9 -6
v 0 9 -6
v -14 9 -8
v -4 9 -8
v -12 9 -9
v -6 9 -9
v -13 9 -10
v -12 9 -10
v -6 9 -10
v -5 9 -10
v -14 9 -15
v -13 9 -15
v -5 9 -15
v -4 9 -15
v -17 10 17
v -16 10 17
v -2 10 17
v -1 10 17
v -17 10 16
v -16 10 16
v -2 10 16
v -1 10 16
v -17 10 15
v -16 10 15
v -2 10 15
v -1 10 15
v -12 10 -9
v -6 10 -9
v -13 10 -10
v -12 10 -10
v -6 10 -10
v -5 10 -10
v -18 10 -15
v -17 10 -15
v -13 10 -15
v -5 10 -15
v -1 10 -15
v 0 10 -15
v -18 10 -17
v -17 10 -17
v -1 10 -17
v 0 10 -17
v -16 11 17
v -15 11 17
v -3 11 17
v -2 11 17
v -16 11 15
v -15 11 15
v -3 11 15
v -2 11 15
v -17 11 -15
v -16 11 -15
v -2 11 -15
v -1 11 -15
v -17 11 -17
v -16 11 -17
v -2 11 -17
v -1 11 -17
v -15 12 17
v -3 12 17
v -15 12 15
v -3 12 15
v -16 12 -15
v -15 12 -15
v -3 12 -15
v -2 12 -15
v -16 12 -17
v -15 12 -17
v -3 12 -17
v -2 12 -17
v -15 13 -15
v -14 13 -15
v -4 13 -15
v -3 13 -15
v -15 13 -17
v -14 13 -17
v -4 13 -17
v -3 13 -17
v -14 14 -15
v -4 14 -15
v -14 14 -17
v -4 14 -17

# faces
f 5/1/1 2/1/1 1/1/1
f 6/1/1 2/1/1 5/1/1
f 7/2/1 6/2/1 5/2/1
f 8/2/1 4/2/1 3/2/1
f 9/2/1 7/2/1 5/2/1
f 9/2/1 8/2/1 7/2/1
f 10/2/1 8/2/1 9/2/1
f 11/2/1 8/2/1 10/2/1
f 12/2/1 8/2/1 11/2/1
f 13/2/1 8/2/1 12/2/1
f 14/2/1 8/2/1 13/2/1
f 15/2/1 8/2/1 14/2/1
f 16/2/1 8/2/1 15/2/1
f 17/2/1 8/2/1 16/2/1
f 18/2/1 8/2/1 17/2/1
f 19/2/1 4/2/1 8/2/1
f 19/2/1 8/2/1 18/2/1
f 20/1/1 10/1/1 9/1/1
f 21/2/1 11/2/1 10/2/1
f 21/1/1 10/1/1 20/1/1
f 22/1/1 12/1/1 11/1/1
f 22/2/1 11/2/1 21/2/1
f 23/4/1 13/4/1 12/4/1
f 23/1/1 12/1/1 22/1/1
f 24/1/1 14/1/1 13/1/1
f 24/4/1 13/4/1 23/4/1
f 25/4/1 15/4/1 14/4/1
f 25/1/1 14/1/1 24/1/1
f 26/1/1 16/1/1 15/1/1
f 26/4/1 15/4/1 25/4/1
f 27/4/1 17/4/1 16/4/1
f 27/1/1 16/1/1 26/1/1
f 28/6/1 19/6/1 18/6/1
f 29/2/1 4/2/1 19/2/1
f 29/6/1 19/6/1 28/6/1
f 30/5/1 18/5/1 17/5/1
f 30/6/1 28/6/1 18/6/1
f 31/7/1 29/7/1 28/7/1
f 31/6/1 28/6/1 30/6/1
f 32/2/1 4/2/1 29/2/1
f 32/7/1 29/7/1 31/7/1
f 33/2/1 21/2/1 20/2/1
f 33/2/1 22/2/1 21/2/1
f 34/4/1 27/4/1 26/4/1
f 34/2/1 22/2/1 33/2/1
f 34/4/1 23/4/1 22/4/1
f 34/4/1 26/4/1 25/4/1
f 34/4/1 25/4/1 24/4/1
f 34/4/1 24/4/1 23/4/1
f 35/5/1 30/5/1 17/5/1
f 35/4/1 27/4/1 34/4/1
f 35/4/1 17/4/1 27/4/1
f 36/5/1 30/5/1 35/5/1
f 37/2/1 4/2/1 32/2/1
f 38/2/1 4/2/1 37/2/1
f 42/1/1 40/1/1 39/1/1
f 43/2/1 41/2/1 40/2/1
f 43/1/1 40/1/1 42/1/1
f 44/2/1 41/2/1 43/2/1
f 47/2/1 46/2/1 45/2/1
f 48/2/1 46/2/1 47/2/1
f 52/2/1 50/2/1 49/2/1
f 52/2/1 51/2/1 50/2/1
f 53/2/1 51/2/1 52/2/1
f 56/2/1 55/2/1 54/2/1
f 57/2/1 55/2/1 56/2/1
f 60/2/1 59/2/1 58/2/1
f 61/2/1 59/2/1 60/2/1
f 64/2/1 63/2/1 62/2/1
f 65/2/1 63/2/1 64/2/1
f 69/5/1 67/5/1 66/5/1
f 69/5/1 68/5/1 67/5/1
f 70/5/1 68/5/1 69/5/1
f 73/2/1 72/2/1 71/2/1
f 74/2/1 72/2/1 73/2/1
f 77/5/1 76/5/1 75/5/1
f 78/5/1 76/5/1 77/5/1
f 81/5/1 80/5/1 79/5/1
f 82/5/1 80/5/1 81/5/1
f 87/1/1 84/1/1 83/1/1
f 88/1/1 84/1/1 87/1/1
f 89/2/1 88/2/1 87/2/1
f 90/2/1 88/2/1 89/2/1
f 91/2/1 86/2/1 85/2/1
f 92/2/1 86/2/1 91/2/1
f 93/1/2 94/1/2 97/1/2
f 97/1/2 94/1/2 98/1/2
f 97/2/2 98/2/2 99/2/2
f 99/2/2 98/2/2 100/2/2
f 95/2/2 96/2/2 101/2/2
f 101/2/2 96/2/2 102/2/2
f 103/5/2 104/5/2 105/5/2
f 105/5/2 104/5/2 106/5/2
f 107/5/2 108/5/2 109/5/2
f 109/5/2 108/5/2 110/5/2
f 111/5/2 112/5/2 114/5/2
f 112/5/2 113/5/2 114/5/2
f 114/5/2 113/5/2 115/5/2
f 116/2/2 117/2/2 118/2/2
f 118/2/2 117/2/2 119/2/2
f 120/2/2 121/2/2 122/2/2
f 122/2/2 121/2/2 123/2/2
f 124/2/2 125/2/2 126/2/2
f 126/2/2 125/2/2 127/2/2
f 128/2/2 129/2/2 131/2/2
f 129/2/2 130/2/2 131/2/2
f 131/2/2 130/2/2 132/2/2
f 133/2/2 134/2/2 135/2/2
f 135/2/2 134/2/2 136/2/2
f 137/1/2 138/1/2 140/1/2
f 138/2/2 139/2/2 141/2/2
f 140/1/2 138/1/2 141/1/2
f 141/2/2 139/2/2 142/2/2
f 143/2/2 144/2/2 145/2/2
f 145/2/2 144/2/2 146/2/2
f 147/1/2 148/1/2 151/1/2
f 151/1/2 148/1/2 152/1/2
f 151/2/2 152/2/2 153/2/2
f 149/2/2 150/2/2 154/2/2
f 151/2/2 153/2/2 155/2/2
f 153/2/2 154/2/2 155/2/2
f 155/2/2 154/2/2 156/2/2
f 156/2/2 154/2/2 157/2/2
f 157/2/2 154/2/2 158/2/2
f 158/2/2 154/2/2 159/2/2
f 154/2/2 150/2/2 160/2/2
f 159/2/2 154/2/2 160/2/2
f 155/1/2 156/1/2 161/1/2
f 156/2/2 157/2/2 162/2/2
f 161/1/2 156/1/2 162/1/2
f 157/4/2 158/4/2 163/4/2
f 162/2/2 157/2/2 163/2/2
f 163/4/2 158/4/2 164/4/2
f 164/4/2 158/4/2 165/4/2
f 165/4/2 158/4/2 166/4/2
f 166/4/2 158/4/2 167/4/2
f 167/4/2 158/4/2 168/4/2
f 159/6/2 160/6/2 169/6/2
f 160/2/2 150/2/2 170/2/2
f 169/6/2 160/6/2 170/6/2
f 161/2/2 162/2/2 171/2/2
f 162/2/2 163/2/2 171/2/2
f 163/1/2 164/1/2 171/1/2
f 171/1/2 164/1/2 172/1/2
f 165/1/2 166/1/2 173/1/2
f 166/4/2 167/4/2 174/4/2
f 173/1/2 166/1/2 174/1/2
f 167/1/2 168/1/2 175/1/2
f 174/4/2 167/4/2 175/4/2
f 175/1/2 168/1/2 176/1/2
f 158/5/2 159/5/2 177/5/2
f 159/6/2 169/6/2 177/6/2
f 169/7/2 170/7/2 178/7/2
f 177/6/2 169/6/2 178/6/2
f 170/2/2 150/2/2 179/2/2
f 178/7/2 170/7/2 179/7/2
f 161/2/2 171/2/2 180/2/2
f 171/4/2 172/4/2 181/4/2
f 180/2/2 171/2/2 181/2/2
f 172/1/2 164/1/2 182/1/2
f 181/4/2 172/4/2 182/4/2
f 164/4/2 165/4/2 183/4/2
f 182/1/2 164/1/2 183/1/2
f 165/1/2 173/1/2 184/1/2
f 183/4/2 165/4/2 184/4/2
f 175/4/2 176/4/2 185/4/2
f 184/1/2 173/1/2 185/1/2
f 173/4/2 174/4/2 185/4/2
f 174/4/2 175/4/2 185/4/2
f 176/1/2 168/1/2 186/1/2
f 185/4/2 176/4/2 186/4/2
f 168/4/2 158/4/2 187/4/2
f 186/1/2 168/1/2 187/1/2
f 158/5/2 177/5/2 188/5/2
f 187/4/2 158/4/2 188/4/2
f 188/5/2 177/5/2 189/5/2
f 179/2/2 150/2/2 190/2/2
f 190/2/2 150/2/2 191/2/2
f 197/1/3 195/1/3 194/1/3
f 197/2/3 196/2/3 195/2/3
f 198/2/3 196/2/3 197/2/3
f 200/1/3 193/1/3 192/1/3
f 201/2/3 194/2/3 193/2/3
f 201/1/3 193/1/3 200/1/3
f 202/2/3 194/2/3 201/2/3
f 203/1/3 199/1/3 198/1/3
f 203/2/3 194/2/3 202/2/3
f 203/1/3 197/1/3 194/1/3
f 203/1/3 198/1/3 197/1/3
f 204/1/3 199/1/3 203/1/3
f 206/2/3 205/2/3 204/2/3
f 206/2/3 204/2/3 203/2/3
f 206/2/3 203/2/3 202/2/3
f 208/2/3 206/2/3 202/2/3
f 208/2/3 207/2/3 206/2/3
f 209/2/3 207/2/3 208/2/3
f 210/2/3 208/2/3 202/2/3
f 210/1/3 209/1/3 208/1/3
f 211/1/3 209/1/3 210/1/3
f 212/2/3 210/2/3 202/2/3
f 212/2/3 211/2/3 210/2/3
f 213/1/3 209/1/3 211/1/3
f 213/2/3 211/2/3 212/2/3
f 214/2/3 212/2/3 202/2/3
f 214/1/3 213/1/3 212/1/3
f 215/2/3 207/2/3 209/2/3
f 215/1/3 213/1/3 214/1/3
f 215/1/3 209/1/3 213/1/3
f 216/2/3 214/2/3 202/2/3
f 216/2/3 215/2/3 214/2/3
f 217/2/3 207/2/3 215/2/3
f 217/2/3 215/2/3 216/2/3
f 218/2/3 216/2/3 202/2/3
f 218/1/3 217/1/3 216/1/3
f 219/1/3 217/1/3 218/1/3
f 220/2/3 218/2/3 202/2/3
f 220/2/3 219/2/3 218/2/3
f 221/1/3 217/1/3 219/1/3
f 221/2/3 219/2/3 220/2/3
f 222/2/3 220/2/3 202/2/3
f 222/1/3 221/1/3 220/1/3
f 223/2/3 207/2/3 217/2/3
f 223/1/3 221/1/3 222/1/3
f 223/1/3 217/1/3 221/1/3
f 224/2/3 223/2/3 222/2/3
f 224/2/3 207/2/3 223/2/3
f 225/2/3 207/2/3 224/2/3
f 228/2/3 222/2/3 202/2/3
f 228/2/3 224/2/3 222/2/3
f 229/2/3 224/2/3 228/2/3
f 230/2/3 224/2/3 229/2/3
f 231/2/3 224/2/3 230/2/3
f 232/1/3 230/1/3 229/1/3
f 233/1/3 230/1/3 232/1/3
f 234/1/3 230/1/3 233/1/3
f 235/1/3 227/1/3 226/1/3
f 236/2/3 228/2/3 227/2/3
f 236/1/3 227/1/3 235/1/3
f 236/2/3 229/2/3 228/2/3
f 237/1/3 232/1/3 229/1/3
f 237/2/3 229/2/3 236/2/3
f 238/2/3 233/2/3 232/2/3
f 238/1/3 232/1/3 237/1/3
f 239/2/3 233/2/3 238/2/3
f 242/5/3 241/5/3 240/5/3
f 243/5/3 241/5/3 242/5/3
f 246/5/3 245/5/3 244/5/3
f 247/5/3 245/5/3 246/5/3
f 250/5/3 249/5/3 248/5/3
f 251/5/3 249/5/3 250/5/3
f 254/5/3 253/5/3 252/5/3
f 255/5/3 253/5/3 254/5/3
f 260/2/3 259/2/3 258/2/3
f 262/2/3 257/2/3 256/2/3
f 263/2/3 257/2/3 262/2/3
f 264/2/3 261/2/3 260/2/3
f 266/2/3 265/2/3 264/2/3
f 268/2/3 264/2/3 260/2/3
f 268/2/3 267/2/3 266/2/3
f 268/2/3 266/2/3 264/2/3
f 268/2/3 260/2/3 258/2/3
f 269/2/3 267/2/3 268/2/3
f 270/2/3 267/2/3 269/2/3
f 272/2/3 271/2/3 270/2/3
f 272/2/3 270/2/3 269/2/3
f 273/2/3 271/2/3 272/2/3
f 275/2/3 271/2/3 273/2/3
f 277/2/3 275/2/3 274/2/3
f 278/2/3 271/2/3 275/2/3
f 278/2/3 275/2/3 277/2/3
f 279/2/3 271/2/3 278/2/3
f 280/2/3 277/2/3 276/2/3
f 280/2/3 278/2/3 277/2/3
f 281/2/3 278/2/3 280/2/3
f 284/2/3 280/2/3 276/2/3
f 285/2/3 280/2/3 284/2/3
f 286/2/3 284/2/3 276/2/3
f 287/2/3 284/2/3 286/2/3
f 288/2/3 283/2/3 282/2/3
f 289/2/3 283/2/3 288/2/3
f 290/2/3 286/2/3 276/2/3
f 291/2/3 286/2/3 290/2/3
f 292/1/4 293/1/4 297/1/4
f 293/2/4 294/2/4 298/2/4
f 297/1/4 293/1/4 298/1/4
f 298/2/4 294/2/4 299/2/4
f 295/2/4 296/2/4 300/2/4
f 300/2/4 296/2/4 301/2/4
f 301/2/4 302/2/4 303/2/4
f 300/2/4 301/2/4 303/2/4
f 300/2/4 303/2/4 305/2/4
f 303/2/4 304/2/4 305/2/4
f 305/2/4 304/2/4 306/2/4
f 306/2/4 304/2/4 307/2/4
f 307/2/4 304/2/4 308/2/4
f 308/2/4 304/2/4 309/2/4
f 309/2/4 304/2/4 310/2/4
f 310/2/4 304/2/4 311/2/4
f 311/2/4 304/2/4 312/2/4
f 312/2/4 304/2/4 313/2/4
f 311/2/4 312/2/4 317/2/4
f 317/2/4 312/2/4 318/2/4
f 318/2/4 312/2/4 319/2/4
f 317/2/4 318/2/4 320/2/4
f 320/2/4 318/2/4 321/2/4
f 314/1/4 315/1/4 322/1/4
f 315/2/4 316/2/4 323/2/4
f 322/1/4 315/1/4 323/1/4
f 323/2/4 316/2/4 324/2/4
f 325/5/4 326/5/4 327/5/4
f 327/5/4 326/5/4 328/5/4
f 329/2/4 330/2/4 331/2/4
f 329/2/4 331/2/4 333/2/4
f 331/2/4 332/2/4 333/2/4
f 333/2/4 332/2/4 334/2/4
f 334/2/4 332/2/4 335/2/4
f 335/2/4 336/2/4 337/2/4
f 334/2/4 335/2/4 337/2/4
f 337/2/4 338/2/4 339/2/4
f 337/2/4 339/2/4 341/2/4
f 339/2/4 340/2/4 341/2/4
f 341/2/4 340/2/4 342/2/4
f 334/2/4 337/2/4 343/2/4
f 337/2/4 341/2/4 343/2/4
f 343/2/4 341/2/4 344/2/4
f 334/2/4 343/2/4 346/2/4
f 346/2/4 343/2/4 347/2/4
f 347/2/4 343/2/4 348/2/4
f 345/2/4 346/2/4 349/2/4
f 346/2/4 347/2/4 349/2/4
f 349/2/4 347/2/4 350/2/4
f 345/2/4 349/2/4 351/2/4
f 351/2/4 349/2/4 352/2/4
f 357/1/5 354/1/5 353/1/5
f 358/1/5 354/1/5 357/1/5
f 359/1/5 356/1/5 355/1/5
f 360/1/5 356/1/5 359/1/5
f 365/2/5 362/2/5 361/2/5
f 366/2/5 362/2/5 365/2/5
f 367/2/5 364/2/5 363/2/5
f 368/2/5 364/2/5 367/2/5
f 372/2/5 370/2/5 369/2/5
f 373/2/5 370/2/5 372/2/5
f 375/2/5 372/2/5 371/2/5
f 375/2/5 374/2/5 373/2/5
f 375/2/5 373/2/5 372/2/5
f 376/2/5 374/2/5 375/2/5
f 377/2/5 374/2/5 376/2/5
f 378/2/5 374/2/5 377/2/5
f 379/2/5 377/2/5 376/2/5
f 380/2/5 377/2/5 379/2/5
f 381/6/6 382/6/6 383/6/6
f 383/6/6 382/6/6 384/6/6
f 381/6/6 383/6/6 385/6/6
f 385/6/6 383/6/6 386/6/6
f 384/6/6 382/6/6 387/6/6
f 387/6/6 382/6/6 388/6/6
f 385/7/6 386/7/6 389/7/6
f 389/7/6 386/7/6 390/7/6
f 387/7/6 388/7/6 391/7/6
f 391/7/6 388/7/6 392/7/6
f 393/2/6 394/2/6 397/2/6
f 395/2/6 396/2/6 398/2/6
f 393/2/6 397/2/6 399/2/6
f 399/2/6 397/2/6 400/2/6
f 398/2/6 396/2/6 410/2/6
f 410/2/6 396/2/6 411/2/6
f 400/1/6 401/1/6 412/1/6
f 401/4/6 402/4/6 412/4/6
f 402/1/6 403/1/6 413/1/6
f 412/4/6 402/4/6 413/4/6
f 404/1/6 405/1/6 414/1/6
f 405/4/6 406/4/6 414/4/6
f 406/1/6 407/1/6 415/1/6
f 414/4/6 406/4/6 415/4/6
f 408/1/6 409/1/6 416/1/6
f 410/4/6 411/4/6 416/4/6
f 409/4/6 410/4/6 416/4/6
f 416/4/6 411/4/6 417/4/6
f 399/4/6 400/4/6 418/4/6
f 400/1/6 412/1/6 418/1/6
f 412/1/6 413/1/6 418/1/6
f 403/4/6 404/4/6 419/4/6
f 418/1/6 413/1/6 419/1/6
f 413/1/6 403/1/6 419/1/6
f 414/1/6 415/1/6 420/1/6
f 419/4/6 404/4/6 420/4/6
f 404/1/6 414/1/6 420/1/6
f 415/1/6 407/1/6 421/1/6
f 420/1/6 415/1/6 421/1/6
f 407/4/6 408/4/6 421/4/6
f 416/1/6 417/1/6 422/1/6
f 421/4/6 408/4/6 422/4/6
f 408/1/6 416/1/6 422/1/6
f 422/1/6 417/1/6 423/1/6
f 419/4/6 420/4/6 424/4/6
f 418/4/6 419/4/6 424/4/6
f 422/4/6 423/4/6 424/4/6
f 421/4/6 422/4/6 424/4/6
f 420/4/6 421/4/6 424/4/6
f 399/4/6 418/4/6 424/4/6
f 424/4/6 423/4/6 425/4/6
f 425/4/6 423/4/6 426/4/6
f 426/4/6 423/4/6 427/4/6
f 427/4/6 423/4/6 428/4/6
f 428/4/6 423/4/6 429/4/6
f 424/1/6 425/1/6 430/1/6
f 430/1/6 425/1/6 431/1/6
f 426/1/6 427/1/6 432/1/6
f 432/1/6 427/1/6 433/1/6
f 428/1/6 429/1/6 434/1/6
f 434/1/6 429/1/6 435/1/6
f 399/4/6 424/4/6 436/4/6
f 424/1/6 430/1/6 436/1/6
f 430/4/6 431/4/6 437/4/6
f 436/1/6 430/1/6 437/1/6
f 431/1/6 425/1/6 438/1/6
f 437/4/6 431/4/6 438/4/6
f 425/4/6 426/4/6 439/4/6
f 438/1/6 425/1/6 439/1/6
f 426/1/6 432/1/6 440/1/6
f 439/4/6 426/4/6 440/4/6
f 432/4/6 433/4/6 441/4/6
f 440/1/6 432/1/6 441/1/6
f 433/1/6 427/1/6 442/1/6
f 441/4/6 433/4/6 442/4/6
f 427/4/6 428/4/6 443/4/6
f 442/1/6 427/1/6 443/1/6
f 428/1/6 434/1/6 444/1/6
f 443/4/6 428/4/6 444/4/6
f 434/4/6 435/4/6 445/4/6
f 444/1/6 434/1/6 445/1/6
f 437/4/6 438/4/6 446/4/6
f 436/4/6 437/4/6 446/4/6
f 444/4/6 445/4/6 446/4/6
f 442/4/6 443/4/6 446/4/6
f 439/4/6 440/4/6 446/4/6
f 438/4/6 439/4/6 446/4/6
f 399/4/6 436/4/6 446/4/6
f 443/4/6 444/4/6 446/4/6
f 440/4/6 441/4/6 446/4/6
f 441/4/6 442/4/6 446/4/6
f 446/4/6 445/4/6 447/4/6
f 447/4/6 445/4/6 448/4/6
f 448/4/6 445/4/6 449/4/6
f 449/4/6 445/4/6 450/4/6
f 450/4/6 445/4/6 451/4/6
f 451/4/6 445/4/6 452/4/6
f 452/4/6 445/4/6 453/4/6
f 453/4/6 445/4/6 454/4/6
f 445/4/6 435/4/6 455/4/6
f 454/4/6 445/4/6 455/4/6
f 446/1/6 447/1/6 456/1/6
f 447/4/6 448/4/6 456/4/6
f 448/1/6 449/1/6 457/1/6
f 456/4/6 448/4/6 457/4/6
f 450/1/6 451/1/6 458/1/6
f 451/4/6 452/4/6 458/4/6
f 452/1/6 453/1/6 459/1/6
f 458/4/6 452/4/6 459/4/6
f 455/4/6 435/4/6 460/4/6
f 454/1/6 455/1/6 460/1/6
f 460/4/6 435/4/6 461/4/6
f 399/4/6 446/4/6 462/4/6
f 446/1/6 456/1/6 462/1/6
f 456/1/6 457/1/6 462/1/6
f 449/4/6 450/4/6 463/4/6
f 462/1/6 457/1/6 463/1/6
f 457/1/6 449/1/6 463/1/6
f 458/1/6 459/1/6 464/1/6
f 463/4/6 450/4/6 464/4/6
f 450/1/6 458/1/6 464/1/6
f 453/4/6 454/4/6 465/4/6
f 464/1/6 459/1/6 465/1/6
f 459/1/6 453/1/6 465/1/6
f 454/1/6 460/1/6 466/1/6
f 465/4/6 454/4/6 466/4/6
f 460/1/6 461/1/6 466/1/6
f 466/1/6 461/1/6 467/1/6
f 463/4/6 464/4/6 468/4/6
f 464/4/6 465/4/6 468/4/6
f 466/4/6 467/4/6 468/4/6
f 465/4/6 466/4/6 468/4/6
f 399/4/6 462/4/6 468/4/6
f 462/4/6 463/4/6 468/4/6
f 468/4/6 467/4/6 469/4/6
f 468/5/6 469/5/6 470/5/6
f 470/5/6 469/5/6 471/5/6
f 472/5/6 473/5/6 474/5/6
f 474/5/6 473/5/6 475/5/6
f 472/5/6 474/5/6 476/5/6
f 476/5/6 474/5/6 477/5/6
f 475/5/6 473/5/6 478/5/6
f 478/5/6 473/5/6 479/5/6
f 472/5/6 476/5/6 480/5/6
f 480/5/6 476/5/6 481/5/6
f 479/5/6 473/5/6 482/5/6
f 482/5/6 473/5/6 483/5/6
f 484/1/6 485/1/6 488/1/6
f 488/1/6 485/1/6 489/1/6
f 486/1/6 487/1/6 490/1/6
f 490/1/6 487/1/6 491/1/6
f 488/2/6 489/2/6 492/2/6
f 492/2/6 489/2/6 493/2/6
f 490/2/6 491/2/6 494/2/6
f 494/2/6 491/2/6 495/2/6
f 496/5/6 497/5/6 499/5/6
f 499/5/6 497/5/6 500/5/6
f 498/5/6 499/5/6 504/5/6
f 499/5/6 500/5/6 504/5/6
f 500/5/6 501/5/6 504/5/6
f 504/5/6 501/5/6 505/5/6
f 502/2/6 503/2/6 508/2/6
f 508/2/6 503/2/6 509/2/6
f 506/2/6 507/2/6 510/2/6
f 510/2/6 507/2/6 511/2/6
f 512/2/6 513/2/6 516/2/6
f 516/2/6 513/2/6 517/2/6
f 514/2/6 515/2/6 518/2/6
f 518/2/6 515/2/6 519/2/6
f 520/2/6 521/2/6 524/2/6
f 524/2/6 521/2/6 525/2/6
f 522/2/6 523/2/6 526/2/6
f 526/2/6 523/2/6 527/2/6
f 528/2/6 529/2/6 530/2/6
f 530/2/6 529/2/6 531/2/6
f 532/2/6 533/2/6 536/2/6
f 536/2/6 533/2/6 537/2/6
f 534/2/6 535/2/6 538/2/6
f 538/2/6 535/2/6 539/2/6
f 540/2/6 541/2/6 544/2/6
f 544/2/6 541/2/6 545/2/6
f 542/2/6 543/2/6 546/2/6
f 546/2/6 543/2/6 547/2/6
f 548/2/6 549/2/6 550/2/6
f 550/2/6 549/2/6 551/2/6
