# MagicaVoxel @ Ephtracy

# group
g dog

# material
mtllib dog.mtl
usemtl palette

# normals
vn -1 0 0
vn 1 0 0
vn 0 0 1
vn 0 0 -1
vn 0 -1 0
vn 0 1 0

# texcoords
vt 0.306641 0.5
vt 0.310547 0.5
vt 0.353516 0.5
vt 0.994141 0.5

# verts
v -5 5 -3
v -5 5 -6
v -5 6 -5
v -5 6 -6
v -5 8 -3
v -5 8 -5
v -4 0 4
v -4 0 3
v -4 0 -3
v -4 0 -4
v -4 2 4
v -4 2 3
v -4 3 3
v -4 3 2
v -4 3 -0
v -4 3 -1
v -4 3 -3
v -4 3 -4
v -4 3 -7
v -4 3 -8
v -4 4 4
v -4 4 2
v -4 4 -0
v -4 4 -1
v -4 4 -2
v -4 4 -4
v -4 4 -7
v -4 5 2
v -4 5 1
v -4 5 -1
v -4 5 -2
v -4 5 -3
v -4 5 -4
v -4 5 -6
v -4 5 -7
v -4 5 -8
v -4 6 4
v -4 6 1
v -4 6 -1
v -4 6 -3
v -4 6 -5
v -4 6 -6
v -4 7 -5
v -4 7 -7
v -2 4 6
v -2 4 4
v -2 4 -8
v -2 4 -9
v -2 5 7
v -2 5 6
v -2 5 5
v -2 5 4
v -2 5 -8
v -2 5 -9
v -2 6 6
v -2 6 5
v -2 7 7
v -2 7 6
v 0 0 4
v 0 0 3
v 0 0 -3
v 0 0 -4
v 0 2 4
v 0 2 3
v 0 2 -3
v 0 2 -4
v 0 3 4
v 0 3 3
v 0 3 -3
v 0 3 -4
v 0 7 -3
v 0 7 -5
v 0 8 -3
v 0 8 -5
v -3 0 4
v -3 0 3
v -3 0 -3
v -3 0 -4
v -3 2 4
v -3 2 3
v -3 3 4
v -3 3 3
v -3 3 -3
v -3 3 -4
v -3 7 -3
v -3 7 -5
v -3 8 -3
v -3 8 -5
v -1 4 6
v -1 4 4
v -1 4 -8
v -1 4 -9
v -1 5 7
v -1 5 6
v -1 5 5
v -1 5 4
v -1 5 -8
v -1 5 -9
v -1 6 6
v -1 6 5
v -1 7 7
v -1 7 6
v 1 0 4
v 1 0 3
v 1 0 -3
v 1 0 -4
v 1 2 4
v 1 2 3
v 1 2 -3
v 1 2 -4
v 1 3 4
v 1 3 3
v 1 3 -3
v 1 3 -4
v 1 3 -8
v 1 4 4
v 1 4 1
v 1 4 -3
v 1 4 -6
v 1 5 2
v 1 5 1
v 1 5 -3
v 1 5 -6
v 1 5 -7
v 1 5 -8
v 1 6 4
v 1 6 2
v 1 6 -3
v 1 6 -5
v 1 6 -6
v 1 7 -5
v 1 7 -7
v 2 5 -3
v 2 5 -6
v 2 6 -5
v 2 6 -6
v 2 8 -3
v 2 8 -5
v -2 5 7
v -2 7 7
v -1 5 7
v -1 7 7
v -2 4 6
v -2 5 6
v -1 4 6
v -1 5 6
v -4 0 4
v -4 2 4
v -4 4 4
v -4 6 4
v -3 0 4
v -3 2 4
v -3 3 4
v -3 4 4
v -3 6 4
v -2 4 4
v -2 5 4
v -1 4 4
v -1 5 4
v -1 6 4
v 0 0 4
v 0 2 4
v 0 3 4
v 0 5 4
v 0 6 4
v 1 0 4
v 1 2 4
v 1 3 4
v 1 4 4
v 1 6 4
v -5 5 -3
v -5 8 -3
v -4 0 -3
v -4 3 -3
v -4 5 -3
v -4 6 -3
v -4 7 -3
v -3 0 -3
v -3 3 -3
v -3 6 -3
v -3 7 -3
v -3 8 -3
v 0 0 -3
v 0 2 -3
v 0 3 -3
v 0 6 -3
v 0 7 -3
v 0 8 -3
v 1 0 -3
v 1 2 -3
v 1 3 -3
v 1 5 -3
v 1 6 -3
v 1 7 -3
v 2 5 -3
v 2 8 -3
v -2 6 6
v -2 7 6
v -1 6 6
v -1 7 6
v -2 5 5
v -2 6 5
v -1 5 5
v -1 6 5
v -4 0 3
v -4 2 3
v -4 3 3
v -3 0 3
v -3 2 3
v -3 3 3
v 0 0 3
v 0 2 3
v 0 3 3
v 1 0 3
v 1 2 3
v 1 3 3
v -4 0 -4
v -4 3 -4
v -3 0 -4
v -3 3 -4
v 0 0 -4
v 0 2 -4
v 0 3 -4
v 1 0 -4
v 1 2 -4
v 1 3 -4
v -5 6 -5
v -5 8 -5
v -4 6 -5
v -4 7 -5
v -3 7 -5
v -3 8 -5
v 0 7 -5
v 0 8 -5
v 1 6 -5
v 1 7 -5
v 2 6 -5
v 2 8 -5
v -5 5 -6
v -5 6 -6
v -4 5 -6
v -4 6 -6
v 1 5 -6
v 1 6 -6
v 2 5 -6
v 2 6 -6
v -4 5 -7
v -4 7 -7
v -3 5 -7
v -3 6 -7
v -2 5 -7
v -2 6 -7
v -1 5 -7
v -1 6 -7
v -1 7 -7
v 0 5 -7
v 0 6 -7
v 1 5 -7
v 1 7 -7
v -4 3 -8
v -4 5 -8
v -3 3 -8
v -3 4 -8
v -2 3 -8
v -2 4 -8
v -2 5 -8
v -1 3 -8
v -1 4 -8
v -1 5 -8
v 1 3 -8
v 1 5 -8
v -2 4 -9
v -2 5 -9
v -1 4 -9
v -1 5 -9
v -4 0 4
v -3 0 4
v 0 0 4
v 1 0 4
v -4 0 3
v -3 0 3
v 0 0 3
v 1 0 3
v -4 0 -3
v -3 0 -3
v 0 0 -3
v 1 0 -3
v -4 0 -4
v -3 0 -4
v 0 0 -4
v 1 0 -4
v -3 3 4
v 0 3 4
v -4 3 3
v -3 3 3
v 0 3 3
v 1 3 3
v -4 3 2
v -3 3 2
v -4 3 -0
v -3 3 -0
v -4 3 -1
v -3 3 -1
v -4 3 -3
v -3 3 -3
v 0 3 -3
v 1 3 -3
v -4 3 -4
v -3 3 -4
v 0 3 -4
v 1 3 -4
v -4 3 -7
v -3 3 -7
v -2 3 -7
v -1 3 -7
v -4 3 -8
v -3 3 -8
v -2 3 -8
v -1 3 -8
v 1 3 -8
v -2 4 6
v -1 4 6
v -2 4 4
v -1 4 4
v -2 4 -8
v -1 4 -8
v -2 4 -9
v -1 4 -9
v -2 5 7
v -1 5 7
v -2 5 6
v -1 5 6
v -5 5 -3
v -4 5 -3
v 1 5 -3
v 2 5 -3
v -4 5 -4
v -5 5 -6
v -4 5 -6
v 1 5 -6
v 2 5 -6
v -2 5 5
v -1 5 5
v -2 5 4
v -1 5 4
v -4 5 -7
v -3 5 -7
v -2 5 -7
v -1 5 -7
v 0 5 -7
v 1 5 -7
v -4 5 -8
v -2 5 -8
v -1 5 -8
v 1 5 -8
v -2 5 -9
v -1 5 -9
v -2 6 6
v -1 6 6
v -2 6 5
v -1 6 5
v -4 6 4
v -3 6 4
v -1 6 4
v 0 6 4
v 1 6 4
v -3 6 3
v -1 6 3
v 0 6 2
v 1 6 2
v -4 6 1
v -3 6 1
v -4 6 -1
v -3 6 -1
v -4 6 -3
v -3 6 -3
v 0 6 -3
v 1 6 -3
v -5 6 -5
v -4 6 -5
v 1 6 -5
v 2 6 -5
v -5 6 -6
v -4 6 -6
v 1 6 -6
v 2 6 -6
v -2 7 7
v -1 7 7
v -2 7 6
v -1 7 6
v -3 7 -3
v 0 7 -3
v -4 7 -5
v -3 7 -5
v -2 7 -5
v 0 7 -5
v 1 7 -5
v -2 7 -6
v -1 7 -6
v -4 7 -7
v -1 7 -7
v 1 7 -7
v -5 8 -3
v -3 8 -3
v 0 8 -3
v 2 8 -3
v -5 8 -5
v -3 8 -5
v 0 8 -5
v 2 8 -5

# faces
f 3/4/1 2/4/1 1/4/1
f 4/4/1 2/4/1 3/4/1
f 5/4/1 3/4/1 1/4/1
f 6/4/1 3/4/1 5/4/1
f 11/3/1 8/3/1 7/3/1
f 12/3/1 8/3/1 11/3/1
f 13/2/1 12/2/1 11/2/1
f 17/2/1 10/2/1 9/2/1
f 18/2/1 10/2/1 17/2/1
f 21/2/1 13/2/1 11/2/1
f 21/2/1 14/2/1 13/2/1
f 22/3/1 15/3/1 14/3/1
f 22/2/1 14/2/1 21/2/1
f 23/2/1 16/2/1 15/2/1
f 23/3/1 15/3/1 22/3/1
f 24/3/1 19/3/1 18/3/1
f 24/2/1 16/2/1 23/2/1
f 24/3/1 17/3/1 16/3/1
f 24/3/1 18/3/1 17/3/1
f 25/3/1 19/3/1 24/3/1
f 26/3/1 19/3/1 25/3/1
f 27/2/1 20/2/1 19/2/1
f 27/3/1 19/3/1 26/3/1
f 28/3/1 22/3/1 21/3/1
f 28/2/1 23/2/1 22/2/1
f 28/2/1 24/2/1 23/2/1
f 28/2/1 25/2/1 24/2/1
f 29/2/1 25/2/1 28/2/1
f 30/2/1 25/2/1 29/2/1
f 31/3/1 26/3/1 25/3/1
f 31/2/1 25/2/1 30/2/1
f 32/3/1 26/3/1 31/3/1
f 33/2/1 27/2/1 26/2/1
f 33/3/1 26/3/1 32/3/1
f 34/2/1 27/2/1 33/2/1
f 35/2/1 20/2/1 27/2/1
f 35/2/1 27/2/1 34/2/1
f 36/2/1 20/2/1 35/2/1
f 37/3/1 28/3/1 21/3/1
f 37/3/1 29/3/1 28/3/1
f 38/2/1 30/2/1 29/2/1
f 38/3/1 29/3/1 37/3/1
f 39/3/1 32/3/1 31/3/1
f 39/2/1 30/2/1 38/2/1
f 39/3/1 31/3/1 30/3/1
f 40/3/1 32/3/1 39/3/1
f 42/2/1 35/2/1 34/2/1
f 43/2/1 42/2/1 41/2/1
f 44/2/1 35/2/1 42/2/1
f 44/2/1 42/2/1 43/2/1
f 50/4/1 46/4/1 45/4/1
f 51/4/1 46/4/1 50/4/1
f 52/4/1 46/4/1 51/4/1
f 53/4/1 48/4/1 47/4/1
f 54/4/1 48/4/1 53/4/1
f 55/4/1 50/4/1 49/4/1
f 55/4/1 51/4/1 50/4/1
f 56/4/1 51/4/1 55/4/1
f 57/4/1 55/4/1 49/4/1
f 58/4/1 55/4/1 57/4/1
f 63/3/1 60/3/1 59/3/1
f 64/3/1 60/3/1 63/3/1
f 65/3/1 62/3/1 61/3/1
f 66/3/1 62/3/1 65/3/1
f 67/2/1 64/2/1 63/2/1
f 68/2/1 64/2/1 67/2/1
f 69/2/1 66/2/1 65/2/1
f 70/2/1 66/2/1 69/2/1
f 73/4/1 72/4/1 71/4/1
f 74/4/1 72/4/1 73/4/1
f 75/3/2 76/3/2 79/3/2
f 79/3/2 76/3/2 80/3/2
f 79/2/2 80/2/2 81/2/2
f 81/2/2 80/2/2 82/2/2
f 77/2/2 78/2/2 83/2/2
f 83/2/2 78/2/2 84/2/2
f 85/4/2 86/4/2 87/4/2
f 87/4/2 86/4/2 88/4/2
f 89/4/2 90/4/2 94/4/2
f 94/4/2 90/4/2 95/4/2
f 95/4/2 90/4/2 96/4/2
f 91/4/2 92/4/2 97/4/2
f 97/4/2 92/4/2 98/4/2
f 93/4/2 94/4/2 99/4/2
f 94/4/2 95/4/2 99/4/2
f 99/4/2 95/4/2 100/4/2
f 93/4/2 99/4/2 101/4/2
f 101/4/2 99/4/2 102/4/2
f 103/3/2 104/3/2 107/3/2
f 107/3/2 104/3/2 108/3/2
f 105/3/2 106/3/2 109/3/2
f 109/3/2 106/3/2 110/3/2
f 107/2/2 108/2/2 111/2/2
f 111/2/2 108/2/2 112/2/2
f 109/2/2 110/2/2 113/2/2
f 113/2/2 110/2/2 114/2/2
f 113/3/2 114/3/2 116/3/2
f 114/3/2 115/3/2 116/3/2
f 112/3/2 113/3/2 116/3/2
f 111/3/2 112/3/2 116/3/2
f 116/3/2 115/3/2 117/3/2
f 117/3/2 115/3/2 118/3/2
f 118/3/2 115/3/2 119/3/2
f 116/2/2 117/2/2 120/2/2
f 117/3/2 118/3/2 121/3/2
f 120/2/2 117/2/2 121/2/2
f 118/2/2 119/2/2 122/2/2
f 121/3/2 118/3/2 122/3/2
f 119/3/2 115/3/2 123/3/2
f 122/2/2 119/2/2 123/2/2
f 123/3/2 115/3/2 124/3/2
f 124/3/2 115/3/2 125/3/2
f 116/2/2 120/2/2 126/2/2
f 121/3/2 122/3/2 127/3/2
f 126/2/2 120/2/2 127/2/2
f 120/3/2 121/3/2 127/3/2
f 127/3/2 122/3/2 128/3/2
f 123/3/2 124/3/2 130/3/2
f 129/3/2 130/3/2 131/3/2
f 130/3/2 124/3/2 132/3/2
f 131/3/2 130/3/2 132/3/2
f 133/4/2 134/4/2 135/4/2
f 135/4/2 134/4/2 136/4/2
f 133/4/2 135/4/2 137/4/2
f 137/4/2 135/4/2 138/4/2
f 141/4/3 140/4/3 139/4/3
f 142/4/3 140/4/3 141/4/3
f 145/4/3 144/4/3 143/4/3
f 146/4/3 144/4/3 145/4/3
f 151/3/3 148/3/3 147/3/3
f 152/2/3 149/2/3 148/2/3
f 152/3/3 148/3/3 151/3/3
f 153/2/3 149/2/3 152/2/3
f 154/3/3 150/3/3 149/3/3
f 154/2/3 149/2/3 153/2/3
f 155/3/3 150/3/3 154/3/3
f 156/2/3 155/2/3 154/2/3
f 156/3/3 154/3/3 153/3/3
f 157/2/3 155/2/3 156/2/3
f 158/3/3 156/3/3 153/3/3
f 159/2/3 155/2/3 157/2/3
f 160/2/3 155/2/3 159/2/3
f 163/3/3 158/3/3 153/3/3
f 164/2/3 159/2/3 158/2/3
f 164/3/3 160/3/3 159/3/3
f 165/3/3 160/3/3 164/3/3
f 166/3/3 162/3/3 161/3/3
f 167/2/3 163/2/3 162/2/3
f 167/3/3 162/3/3 166/3/3
f 168/3/3 158/3/3 163/3/3
f 168/2/3 163/2/3 167/2/3
f 169/2/3 164/2/3 158/2/3
f 169/3/3 158/3/3 168/3/3
f 169/2/3 165/2/3 164/2/3
f 170/2/3 165/2/3 169/2/3
f 175/4/3 172/4/3 171/4/3
f 176/4/3 172/4/3 175/4/3
f 177/4/3 172/4/3 176/4/3
f 178/2/3 174/2/3 173/2/3
f 179/2/3 174/2/3 178/2/3
f 180/2/3 177/2/3 176/2/3
f 181/4/3 172/4/3 177/4/3
f 181/2/3 177/2/3 180/2/3
f 182/4/3 172/4/3 181/4/3
f 186/3/3 181/3/3 180/3/3
f 187/3/3 181/3/3 186/3/3
f 189/3/3 184/3/3 183/3/3
f 190/2/3 185/2/3 184/2/3
f 190/3/3 184/3/3 189/3/3
f 191/2/3 185/2/3 190/2/3
f 193/2/3 187/2/3 186/2/3
f 194/4/3 188/4/3 187/4/3
f 194/2/3 187/2/3 193/2/3
f 195/4/3 193/4/3 192/4/3
f 195/4/3 194/4/3 193/4/3
f 196/4/3 188/4/3 194/4/3
f 196/4/3 194/4/3 195/4/3
f 197/4/4 198/4/4 199/4/4
f 199/4/4 198/4/4 200/4/4
f 201/4/4 202/4/4 203/4/4
f 203/4/4 202/4/4 204/4/4
f 205/3/4 206/3/4 208/3/4
f 206/2/4 207/2/4 209/2/4
f 208/3/4 206/3/4 209/3/4
f 209/2/4 207/2/4 210/2/4
f 211/3/4 212/3/4 214/3/4
f 212/2/4 213/2/4 215/2/4
f 214/3/4 212/3/4 215/3/4
f 215/2/4 213/2/4 216/2/4
f 217/2/4 218/2/4 219/2/4
f 219/2/4 218/2/4 220/2/4
f 221/3/4 222/3/4 224/3/4
f 222/2/4 223/2/4 225/2/4
f 224/3/4 222/3/4 225/3/4
f 225/2/4 223/2/4 226/2/4
f 227/4/4 228/4/4 229/4/4
f 229/4/4 228/4/4 230/4/4
f 230/4/4 228/4/4 231/4/4
f 231/4/4 228/4/4 232/4/4
f 233/4/4 234/4/4 236/4/4
f 235/4/4 236/4/4 237/4/4
f 236/4/4 234/4/4 238/4/4
f 237/4/4 236/4/4 238/4/4
f 239/4/4 240/4/4 241/4/4
f 241/4/4 240/4/4 242/4/4
f 243/4/4 244/4/4 245/4/4
f 245/4/4 244/4/4 246/4/4
f 247/2/4 248/2/4 249/2/4
f 249/2/4 248/2/4 250/2/4
f 249/4/4 250/4/4 251/4/4
f 250/2/4 248/2/4 252/2/4
f 251/4/4 250/4/4 252/4/4
f 251/2/4 252/2/4 253/2/4
f 252/2/4 248/2/4 254/2/4
f 253/2/4 252/2/4 254/2/4
f 254/2/4 248/2/4 255/2/4
f 253/4/4 254/4/4 256/4/4
f 254/3/4 255/3/4 257/3/4
f 256/4/4 254/4/4 257/4/4
f 256/3/4 257/3/4 258/3/4
f 257/3/4 255/3/4 259/3/4
f 258/3/4 257/3/4 259/3/4
f 260/2/4 261/2/4 262/2/4
f 262/2/4 261/2/4 263/2/4
f 262/3/4 263/3/4 264/3/4
f 263/2/4 261/2/4 265/2/4
f 264/3/4 263/3/4 265/3/4
f 265/2/4 261/2/4 266/2/4
f 264/2/4 265/2/4 267/2/4
f 267/2/4 265/2/4 268/2/4
f 267/3/4 268/3/4 270/3/4
f 268/3/4 269/3/4 270/3/4
f 270/3/4 269/3/4 271/3/4
f 272/4/4 273/4/4 274/4/4
f 274/4/4 273/4/4 275/4/4
f 280/3/5 277/3/5 276/3/5
f 281/3/5 277/3/5 280/3/5
f 282/3/5 279/3/5 278/3/5
f 283/3/5 279/3/5 282/3/5
f 288/2/5 285/2/5 284/2/5
f 289/2/5 285/2/5 288/2/5
f 290/3/5 287/3/5 286/3/5
f 291/3/5 287/3/5 290/3/5
f 295/3/5 293/3/5 292/3/5
f 296/3/5 293/3/5 295/3/5
f 298/2/5 295/2/5 294/2/5
f 299/3/5 297/3/5 296/3/5
f 299/2/5 295/2/5 298/2/5
f 299/3/5 296/3/5 295/3/5
f 300/3/5 299/3/5 298/3/5
f 301/3/5 297/3/5 299/3/5
f 301/3/5 299/3/5 300/3/5
f 302/2/5 301/2/5 300/2/5
f 303/3/5 297/3/5 301/3/5
f 303/2/5 301/2/5 302/2/5
f 304/3/5 303/3/5 302/3/5
f 305/3/5 297/3/5 303/3/5
f 305/3/5 303/3/5 304/3/5
f 306/3/5 297/3/5 305/3/5
f 307/3/5 297/3/5 306/3/5
f 309/3/5 306/3/5 305/3/5
f 310/3/5 306/3/5 309/3/5
f 312/3/5 309/3/5 308/3/5
f 312/3/5 311/3/5 310/3/5
f 312/3/5 310/3/5 309/3/5
f 313/3/5 311/3/5 312/3/5
f 314/3/5 311/3/5 313/3/5
f 315/3/5 311/3/5 314/3/5
f 316/2/5 313/2/5 312/2/5
f 317/3/5 314/3/5 313/3/5
f 317/2/5 313/2/5 316/2/5
f 318/2/5 315/2/5 314/2/5
f 318/3/5 314/3/5 317/3/5
f 319/3/5 311/3/5 315/3/5
f 319/2/5 315/2/5 318/2/5
f 320/3/5 311/3/5 319/3/5
f 323/4/5 322/4/5 321/4/5
f 324/4/5 322/4/5 323/4/5
f 327/4/5 326/4/5 325/4/5
f 328/4/5 326/4/5 327/4/5
f 331/4/5 330/4/5 329/4/5
f 332/4/5 330/4/5 331/4/5
f 337/4/5 334/4/5 333/4/5
f 338/4/5 337/4/5 333/4/5
f 339/4/5 337/4/5 338/4/5
f 340/4/5 336/4/5 335/4/5
f 341/4/5 336/4/5 340/4/5
f 342/4/6 343/4/6 344/4/6
f 344/4/6 343/4/6 345/4/6
f 348/2/6 349/2/6 352/2/6
f 346/2/6 347/2/6 352/2/6
f 347/2/6 348/2/6 352/2/6
f 352/2/6 349/2/6 353/2/6
f 350/3/6 351/3/6 354/3/6
f 353/2/6 349/2/6 354/2/6
f 349/3/6 350/3/6 354/3/6
f 354/3/6 351/3/6 355/3/6
f 353/4/6 354/4/6 356/4/6
f 356/4/6 354/4/6 357/4/6
f 358/4/6 359/4/6 360/4/6
f 360/4/6 359/4/6 361/4/6
f 363/2/6 364/2/6 367/2/6
f 362/3/6 363/3/6 367/3/6
f 364/3/6 365/3/6 368/3/6
f 367/2/6 364/2/6 368/2/6
f 365/2/6 366/2/6 369/2/6
f 368/3/6 365/3/6 369/3/6
f 367/3/6 368/3/6 369/3/6
f 369/2/6 366/2/6 370/2/6
f 362/3/6 367/3/6 371/3/6
f 367/3/6 369/3/6 371/3/6
f 369/3/6 370/3/6 371/3/6
f 371/3/6 370/3/6 372/3/6
f 371/2/6 372/2/6 373/2/6
f 372/3/6 370/3/6 374/3/6
f 373/2/6 372/2/6 374/2/6
f 373/3/6 374/3/6 375/3/6
f 374/3/6 370/3/6 376/3/6
f 375/3/6 374/3/6 376/3/6
f 376/3/6 370/3/6 377/3/6
f 377/3/6 370/3/6 378/3/6
f 379/4/6 380/4/6 383/4/6
f 383/4/6 380/4/6 384/4/6
f 381/4/6 382/4/6 385/4/6
f 385/4/6 382/4/6 386/4/6
f 387/4/6 388/4/6 389/4/6
f 389/4/6 388/4/6 390/4/6
f 391/3/6 392/3/6 394/3/6
f 394/3/6 392/3/6 395/3/6
f 395/3/6 392/3/6 396/3/6
f 393/2/6 394/2/6 398/2/6
f 396/3/6 397/3/6 398/3/6
f 395/3/6 396/3/6 398/3/6
f 394/2/6 395/2/6 398/2/6
f 398/3/6 397/3/6 399/3/6
f 393/2/6 398/2/6 400/2/6
f 398/2/6 399/2/6 400/2/6
f 399/3/6 397/3/6 401/3/6
f 400/2/6 399/2/6 401/2/6
f 401/3/6 397/3/6 402/3/6
f 403/4/6 404/4/6 407/4/6
f 407/4/6 404/4/6 408/4/6
f 405/4/6 406/4/6 409/4/6
f 409/4/6 406/4/6 410/4/6
