# MagicaVoxel @ Ephtracy

# group
g gameboy

# material
mtllib gameboy.mtl
usemtl palette

# normals
vn -1 0 0
vn 1 0 0
vn 0 0 1
vn 0 0 -1
vn 0 -1 0
vn 0 1 0

# texcoords
vt 0.841797 0.5
vt 0.900391 0.5
vt 0.958984 0.5
vt 0.962891 0.5
vt 0.966797 0.5

# verts
v -16 0 -3
v -16 0 -5
v -16 1 -3
v -16 1 -5
v -15 0 -2
v -15 0 -3
v -15 0 -5
v -15 0 -7
v -15 1 -2
v -15 1 -3
v -15 1 -5
v -15 1 -7
v -14 0 -7
v -14 0 -9
v -14 1 -7
v -14 1 -9
v -13 0 -1
v -13 0 -2
v -13 0 -9
v -13 0 -11
v -13 1 -1
v -13 1 -2
v -13 1 -9
v -13 1 -11
v -12 0 -11
v -12 0 -13
v -12 1 -11
v -12 1 -13
v -11 0 -8
v -11 0 -10
v -11 0 -11
v -11 0 -13
v -11 0 -17
v -11 1 -8
v -11 1 -10
v -11 1 -11
v -11 1 -13
v -11 2 -8
v -11 2 -17
v -9 2 -11
v -9 2 -12
v -9 2 -14
v -9 2 -15
v -9 3 -11
v -9 3 -12
v -9 3 -14
v -9 3 -15
v -8 2 -10
v -8 2 -11
v -8 2 -13
v -8 2 -14
v -8 2 -15
v -8 2 -16
v -8 3 -10
v -8 3 -11
v -8 3 -13
v -8 3 -14
v -8 3 -15
v -8 3 -16
v -6 2 -11
v -6 2 -12
v -6 3 -11
v -6 3 -12
v -5 2 -10
v -5 2 -11
v -5 3 -10
v -5 3 -11
v 4 1 -9
v 4 1 -16
v 4 2 -9
v 4 2 -16
v -15 0 -3
v -15 0 -5
v -15 1 -3
v -15 1 -5
v -14 0 -5
v -14 0 -7
v -14 1 -5
v -14 1 -7
v -13 0 -2
v -13 0 -3
v -13 0 -7
v -13 0 -9
v -13 1 -2
v -13 1 -3
v -13 1 -7
v -13 1 -9
v -12 0 -1
v -12 0 -2
v -12 0 -9
v -12 0 -11
v -12 1 -1
v -12 1 -2
v -12 1 -9
v -12 1 -11
v -8 2 -11
v -8 2 -12
v -8 3 -11
v -8 3 -12
v -7 2 -10
v -7 2 -11
v -7 2 -13
v -7 2 -14
v -7 2 -15
v -7 2 -16
v -7 3 -10
v -7 3 -11
v -7 3 -13
v -7 3 -14
v -7 3 -15
v -7 3 -16
v -6 2 -14
v -6 2 -15
v -6 3 -14
v -6 3 -15
v -5 2 -11
v -5 2 -12
v -5 3 -11
v -5 3 -12
v -4 2 -10
v -4 2 -11
v -4 3 -10
v -4 3 -11
v -2 1 -9
v -2 1 -16
v -2 2 -9
v -2 2 -16
v 5 0 -8
v 5 0 -17
v 5 2 -8
v 5 2 -17
v -13 0 -1
v -13 1 -1
v -12 0 -1
v -12 1 -1
v -15 0 -2
v -15 1 -2
v -13 0 -2
v -13 1 -2
v -16 0 -3
v -16 1 -3
v -15 0 -3
v -15 1 -3
v -15 0 -5
v -15 1 -5
v -14 0 -5
v -14 1 -5
v -14 0 -7
v -14 1 -7
v -13 0 -7
v -13 1 -7
v -11 0 -8
v -11 1 -8
v -11 2 -8
v -3 0 -8
v -3 1 -8
v -3 2 -8
v 5 0 -8
v 5 2 -8
v -13 0 -9
v -13 1 -9
v -12 0 -9
v -12 1 -9
v -8 2 -10
v -8 3 -10
v -7 2 -10
v -7 3 -10
v -5 2 -10
v -5 3 -10
v -4 2 -10
v -4 3 -10
v -12 0 -11
v -12 1 -11
v -11 0 -11
v -11 1 -11
v -9 2 -11
v -9 3 -11
v -8 2 -11
v -8 3 -11
v -6 2 -11
v -6 3 -11
v -5 2 -11
v -5 3 -11
v -8 2 -13
v -8 3 -13
v -7 2 -13
v -7 3 -13
v -9 2 -14
v -9 3 -14
v -8 2 -14
v -8 3 -14
v -7 2 -14
v -7 3 -14
v -6 2 -14
v -6 3 -14
v -2 1 -16
v -2 2 -16
v 4 1 -16
v 4 2 -16
v -13 0 -2
v -13 1 -2
v -12 0 -2
v -12 1 -2
v -15 0 -3
v -15 1 -3
v -13 0 -3
v -13 1 -3
v -16 0 -5
v -16 1 -5
v -15 0 -5
v -15 1 -5
v -15 0 -7
v -15 1 -7
v -14 0 -7
v -14 1 -7
v -14 0 -9
v -14 1 -9
v -13 0 -9
v -13 1 -9
v -2 1 -9
v -2 2 -9
v 4 1 -9
v 4 2 -9
v -13 0 -11
v -13 1 -11
v -12 0 -11
v -12 1 -11
v -8 2 -11
v -8 3 -11
v -7 2 -11
v -7 3 -11
v -5 2 -11
v -5 3 -11
v -4 2 -11
v -4 3 -11
v -9 2 -12
v -9 3 -12
v -8 2 -12
v -8 3 -12
v -6 2 -12
v -6 3 -12
v -5 2 -12
v -5 3 -12
v -12 0 -13
v -12 1 -13
v -11 0 -13
v -11 1 -13
v -9 2 -15
v -9 3 -15
v -8 2 -15
v -8 3 -15
v -7 2 -15
v -7 3 -15
v -6 2 -15
v -6 3 -15
v -8 2 -16
v -8 3 -16
v -7 2 -16
v -7 3 -16
v -11 0 -17
v -11 2 -17
v -7 0 -17
v -7 1 -17
v -3 0 -17
v -3 1 -17
v -3 2 -17
v 5 0 -17
v 5 2 -17
v -13 0 -1
v -12 0 -1
v -15 0 -2
v -13 0 -2
v -12 0 -2
v -16 0 -3
v -15 0 -3
v -13 0 -3
v -16 0 -5
v -15 0 -5
v -14 0 -5
v -15 0 -7
v -14 0 -7
v -13 0 -7
v -11 0 -8
v -3 0 -8
v 5 0 -8
v -14 0 -9
v -13 0 -9
v -12 0 -9
v -2 0 -9
v 4 0 -9
v -11 0 -10
v -8 0 -10
v -7 0 -10
v -5 0 -10
v -4 0 -10
v -13 0 -11
v -12 0 -11
v -11 0 -11
v -9 0 -11
v -8 0 -11
v -7 0 -11
v -6 0 -11
v -5 0 -11
v -4 0 -11
v -9 0 -12
v -8 0 -12
v -6 0 -12
v -5 0 -12
v -12 0 -13
v -11 0 -13
v -9 0 -13
v -8 0 -13
v -7 0 -13
v -9 0 -14
v -8 0 -14
v -7 0 -14
v -6 0 -14
v -9 0 -15
v -8 0 -15
v -7 0 -15
v -6 0 -15
v -9 0 -16
v -8 0 -16
v -7 0 -16
v -2 0 -16
v 4 0 -16
v -11 0 -17
v -7 0 -17
v -3 0 -17
v 5 0 -17
v -13 1 -1
v -12 1 -1
v -15 1 -2
v -13 1 -2
v -12 1 -2
v -16 1 -3
v -15 1 -3
v -13 1 -3
v -16 1 -5
v -15 1 -5
v -14 1 -5
v -15 1 -7
v -14 1 -7
v -13 1 -7
v -14 1 -9
v -13 1 -9
v -12 1 -9
v -2 1 -9
v 4 1 -9
v -13 1 -11
v -12 1 -11
v -11 1 -11
v -12 1 -13
v -11 1 -13
v -2 1 -16
v 4 1 -16
v -11 2 -8
v -3 2 -8
v 5 2 -8
v -2 2 -9
v 4 2 -9
v -8 2 -10
v -7 2 -10
v -5 2 -10
v -4 2 -10
v -9 2 -11
v -8 2 -11
v -7 2 -11
v -6 2 -11
v -5 2 -11
v -4 2 -11
v -9 2 -12
v -8 2 -12
v -6 2 -12
v -5 2 -12
v -8 2 -13
v -7 2 -13
v -9 2 -14
v -8 2 -14
v -7 2 -14
v -6 2 -14
v -9 2 -15
v -8 2 -15
v -7 2 -15
v -6 2 -15
v -8 2 -16
v -7 2 -16
v -2 2 -16
v 4 2 -16
v -11 2 -17
v -3 2 -17
v 5 2 -17
v -8 3 -10
v -7 3 -10
v -5 3 -10
v -4 3 -10
v -9 3 -11
v -8 3 -11
v -7 3 -11
v -6 3 -11
v -5 3 -11
v -4 3 -11
v -9 3 -12
v -8 3 -12
v -6 3 -12
v -5 3 -12
v -8 3 -13
v -7 3 -13
v -9 3 -14
v -8 3 -14
v -7 3 -14
v -6 3 -14
v -9 3 -15
v -8 3 -15
v -7 3 -15
v -6 3 -15
v -8 3 -16
v -7 3 -16

# faces
f 3/3/1 2/3/1 1/3/1
f 4/3/1 2/3/1 3/3/1
f 9/3/1 6/3/1 5/3/1
f 10/3/1 6/3/1 9/3/1
f 11/3/1 8/3/1 7/3/1
f 12/3/1 8/3/1 11/3/1
f 15/3/1 14/3/1 13/3/1
f 16/3/1 14/3/1 15/3/1
f 21/3/1 18/3/1 17/3/1
f 22/3/1 18/3/1 21/3/1
f 23/3/1 20/3/1 19/3/1
f 24/3/1 20/3/1 23/3/1
f 27/3/1 26/3/1 25/3/1
f 28/3/1 26/3/1 27/3/1
f 34/4/1 30/4/1 29/4/1
f 35/3/1 31/3/1 30/3/1
f 35/4/1 30/4/1 34/4/1
f 36/3/1 31/3/1 35/3/1
f 37/3/1 33/3/1 32/3/1
f 38/3/1 36/3/1 35/3/1
f 38/3/1 37/3/1 36/3/1
f 38/3/1 35/3/1 34/3/1
f 39/3/1 33/3/1 37/3/1
f 39/3/1 37/3/1 38/3/1
f 44/1/1 41/1/1 40/1/1
f 45/1/1 41/1/1 44/1/1
f 46/1/1 43/1/1 42/1/1
f 47/1/1 43/1/1 46/1/1
f 54/1/1 49/1/1 48/1/1
f 55/1/1 49/1/1 54/1/1
f 56/1/1 51/1/1 50/1/1
f 57/1/1 51/1/1 56/1/1
f 58/1/1 53/1/1 52/1/1
f 59/1/1 53/1/1 58/1/1
f 62/1/1 61/1/1 60/1/1
f 63/1/1 61/1/1 62/1/1
f 66/1/1 65/1/1 64/1/1
f 67/1/1 65/1/1 66/1/1
f 70/5/1 69/5/1 68/5/1
f 71/5/1 69/5/1 70/5/1
f 72/3/2 73/3/2 74/3/2
f 74/3/2 73/3/2 75/3/2
f 76/3/2 77/3/2 78/3/2
f 78/3/2 77/3/2 79/3/2
f 80/3/2 81/3/2 84/3/2
f 84/3/2 81/3/2 85/3/2
f 82/3/2 83/3/2 86/3/2
f 86/3/2 83/3/2 87/3/2
f 88/3/2 89/3/2 92/3/2
f 92/3/2 89/3/2 93/3/2
f 90/3/2 91/3/2 94/3/2
f 94/3/2 91/3/2 95/3/2
f 96/1/2 97/1/2 98/1/2
f 98/1/2 97/1/2 99/1/2
f 100/1/2 101/1/2 106/1/2
f 106/1/2 101/1/2 107/1/2
f 102/1/2 103/1/2 108/1/2
f 108/1/2 103/1/2 109/1/2
f 104/1/2 105/1/2 110/1/2
f 110/1/2 105/1/2 111/1/2
f 112/1/2 113/1/2 114/1/2
f 114/1/2 113/1/2 115/1/2
f 116/1/2 117/1/2 118/1/2
f 118/1/2 117/1/2 119/1/2
f 120/1/2 121/1/2 122/1/2
f 122/1/2 121/1/2 123/1/2
f 124/5/2 125/5/2 126/5/2
f 126/5/2 125/5/2 127/5/2
f 128/5/2 129/5/2 130/5/2
f 130/5/2 129/5/2 131/5/2
f 134/3/3 133/3/3 132/3/3
f 135/3/3 133/3/3 134/3/3
f 138/3/3 137/3/3 136/3/3
f 139/3/3 137/3/3 138/3/3
f 142/3/3 141/3/3 140/3/3
f 143/3/3 141/3/3 142/3/3
f 146/3/3 145/3/3 144/3/3
f 147/3/3 145/3/3 146/3/3
f 150/3/3 149/3/3 148/3/3
f 151/3/3 149/3/3 150/3/3
f 155/4/3 153/4/3 152/4/3
f 156/3/3 154/3/3 153/3/3
f 156/4/3 153/4/3 155/4/3
f 157/3/3 154/3/3 156/3/3
f 158/5/3 156/5/3 155/5/3
f 158/5/3 157/5/3 156/5/3
f 159/5/3 157/5/3 158/5/3
f 162/3/3 161/3/3 160/3/3
f 163/3/3 161/3/3 162/3/3
f 166/1/3 165/1/3 164/1/3
f 167/1/3 165/1/3 166/1/3
f 170/1/3 169/1/3 168/1/3
f 171/1/3 169/1/3 170/1/3
f 174/3/3 173/3/3 172/3/3
f 175/3/3 173/3/3 174/3/3
f 178/1/3 177/1/3 176/1/3
f 179/1/3 177/1/3 178/1/3
f 182/1/3 181/1/3 180/1/3
f 183/1/3 181/1/3 182/1/3
f 186/1/3 185/1/3 184/1/3
f 187/1/3 185/1/3 186/1/3
f 190/1/3 189/1/3 188/1/3
f 191/1/3 189/1/3 190/1/3
f 194/1/3 193/1/3 192/1/3
f 195/1/3 193/1/3 194/1/3
f 198/5/3 197/5/3 196/5/3
f 199/5/3 197/5/3 198/5/3
f 200/3/4 201/3/4 202/3/4
f 202/3/4 201/3/4 203/3/4
f 204/3/4 205/3/4 206/3/4
f 206/3/4 205/3/4 207/3/4
f 208/3/4 209/3/4 210/3/4
f 210/3/4 209/3/4 211/3/4
f 212/3/4 213/3/4 214/3/4
f 214/3/4 213/3/4 215/3/4
f 216/3/4 217/3/4 218/3/4
f 218/3/4 217/3/4 219/3/4
f 220/5/4 221/5/4 222/5/4
f 222/5/4 221/5/4 223/5/4
f 224/3/4 225/3/4 226/3/4
f 226/3/4 225/3/4 227/3/4
f 228/1/4 229/1/4 230/1/4
f 230/1/4 229/1/4 231/1/4
f 232/1/4 233/1/4 234/1/4
f 234/1/4 233/1/4 235/1/4
f 236/1/4 237/1/4 238/1/4
f 238/1/4 237/1/4 239/1/4
f 240/1/4 241/1/4 242/1/4
f 242/1/4 241/1/4 243/1/4
f 244/3/4 245/3/4 246/3/4
f 246/3/4 245/3/4 247/3/4
f 248/1/4 249/1/4 250/1/4
f 250/1/4 249/1/4 251/1/4
f 252/1/4 253/1/4 254/1/4
f 254/1/4 253/1/4 255/1/4
f 256/1/4 257/1/4 258/1/4
f 258/1/4 257/1/4 259/1/4
f 260/3/4 261/3/4 262/3/4
f 262/3/4 261/3/4 263/3/4
f 262/4/4 263/4/4 264/4/4
f 263/3/4 261/3/4 265/3/4
f 264/4/4 263/4/4 265/4/4
f 265/3/4 261/3/4 266/3/4
f 264/5/4 265/5/4 267/5/4
f 265/5/4 266/5/4 267/5/4
f 267/5/4 266/5/4 268/5/4
f 272/3/5 270/3/5 269/3/5
f 273/3/5 270/3/5 272/3/5
f 275/3/5 272/3/5 271/3/5
f 276/3/5 272/3/5 275/3/5
f 277/3/5 275/3/5 274/3/5
f 278/3/5 275/3/5 277/3/5
f 280/3/5 279/3/5 278/3/5
f 281/3/5 279/3/5 280/3/5
f 286/3/5 282/3/5 281/3/5
f 287/3/5 282/3/5 286/3/5
f 289/5/5 285/5/5 284/5/5
f 290/5/5 285/5/5 289/5/5
f 291/4/5 284/4/5 283/4/5
f 292/4/5 284/4/5 291/4/5
f 293/4/5 284/4/5 292/4/5
f 294/4/5 284/4/5 293/4/5
f 295/4/5 284/4/5 294/4/5
f 296/3/5 288/3/5 287/3/5
f 297/3/5 288/3/5 296/3/5
f 298/3/5 292/3/5 291/3/5
f 299/3/5 292/3/5 298/3/5
f 300/1/5 293/1/5 292/1/5
f 300/3/5 292/3/5 299/3/5
f 301/4/5 294/4/5 293/4/5
f 301/1/5 293/1/5 300/1/5
f 302/4/5 294/4/5 301/4/5
f 303/1/5 295/1/5 294/1/5
f 303/4/5 294/4/5 302/4/5
f 304/4/5 284/4/5 295/4/5
f 304/1/5 295/1/5 303/1/5
f 305/3/5 299/3/5 298/3/5
f 305/1/5 300/1/5 299/1/5
f 305/3/5 298/3/5 297/3/5
f 306/3/5 301/3/5 300/3/5
f 306/1/5 300/1/5 305/1/5
f 307/1/5 303/1/5 302/1/5
f 307/4/5 302/4/5 301/4/5
f 308/4/5 304/4/5 303/4/5
f 308/1/5 303/1/5 307/1/5
f 309/3/5 305/3/5 297/3/5
f 309/3/5 306/3/5 305/3/5
f 310/3/5 306/3/5 309/3/5
f 311/3/5 306/3/5 310/3/5
f 312/3/5 301/3/5 306/3/5
f 312/3/5 306/3/5 311/3/5
f 313/4/5 307/4/5 301/4/5
f 313/3/5 301/3/5 312/3/5
f 313/4/5 308/4/5 307/4/5
f 314/3/5 311/3/5 310/3/5
f 314/4/5 312/4/5 311/4/5
f 315/1/5 313/1/5 312/1/5
f 315/4/5 312/4/5 314/4/5
f 316/4/5 308/4/5 313/4/5
f 316/1/5 313/1/5 315/1/5
f 317/4/5 308/4/5 316/4/5
f 318/1/5 315/1/5 314/1/5
f 318/3/5 314/3/5 310/3/5
f 318/1/5 317/1/5 316/1/5
f 318/1/5 316/1/5 315/1/5
f 319/1/5 317/1/5 318/1/5
f 320/1/5 317/1/5 319/1/5
f 321/4/5 308/4/5 317/4/5
f 321/1/5 317/1/5 320/1/5
f 322/3/5 318/3/5 310/3/5
f 322/4/5 319/4/5 318/4/5
f 323/1/5 320/1/5 319/1/5
f 323/4/5 319/4/5 322/4/5
f 324/4/5 321/4/5 320/4/5
f 324/1/5 320/1/5 323/1/5
f 325/2/5 290/2/5 289/2/5
f 325/5/5 289/5/5 284/5/5
f 326/5/5 285/5/5 290/5/5
f 326/2/5 290/2/5 325/2/5
f 327/3/5 322/3/5 310/3/5
f 327/3/5 324/3/5 323/3/5
f 327/3/5 323/3/5 322/3/5
f 328/4/5 321/4/5 324/4/5
f 328/3/5 324/3/5 327/3/5
f 329/5/5 325/5/5 284/5/5
f 329/4/5 321/4/5 328/4/5
f 329/5/5 326/5/5 325/5/5
f 329/4/5 308/4/5 321/4/5
f 329/4/5 284/4/5 304/4/5
f 329/4/5 304/4/5 308/4/5
f 330/5/5 285/5/5 326/5/5
f 330/5/5 326/5/5 329/5/5
f 331/3/6 332/3/6 334/3/6
f 334/3/6 332/3/6 335/3/6
f 333/3/6 334/3/6 337/3/6
f 337/3/6 334/3/6 338/3/6
f 336/3/6 337/3/6 339/3/6
f 339/3/6 337/3/6 340/3/6
f 340/3/6 341/3/6 342/3/6
f 342/3/6 341/3/6 343/3/6
f 343/3/6 344/3/6 345/3/6
f 345/3/6 344/3/6 346/3/6
f 346/3/6 347/3/6 350/3/6
f 350/3/6 347/3/6 351/3/6
f 351/3/6 352/3/6 353/3/6
f 353/3/6 352/3/6 354/3/6
f 348/2/6 349/2/6 355/2/6
f 355/2/6 349/2/6 356/2/6
f 358/5/6 359/5/6 360/5/6
f 360/5/6 359/5/6 361/5/6
f 357/3/6 358/3/6 362/3/6
f 362/3/6 358/3/6 363/3/6
f 363/3/6 358/3/6 364/3/6
f 364/3/6 358/3/6 365/3/6
f 357/3/6 362/3/6 366/3/6
f 366/3/6 362/3/6 367/3/6
f 363/3/6 364/3/6 368/3/6
f 368/3/6 364/3/6 369/3/6
f 369/3/6 364/3/6 370/3/6
f 365/3/6 358/3/6 371/3/6
f 357/3/6 366/3/6 372/3/6
f 367/3/6 368/3/6 373/3/6
f 368/3/6 369/3/6 373/3/6
f 373/3/6 369/3/6 374/3/6
f 370/3/6 371/3/6 375/3/6
f 373/3/6 374/3/6 376/3/6
f 374/3/6 375/3/6 376/3/6
f 372/3/6 373/3/6 376/3/6
f 376/3/6 375/3/6 377/3/6
f 357/3/6 372/3/6 378/3/6
f 372/3/6 376/3/6 378/3/6
f 378/3/6 376/3/6 379/3/6
f 377/3/6 375/3/6 380/3/6
f 380/3/6 375/3/6 381/3/6
f 357/3/6 378/3/6 382/3/6
f 381/3/6 375/3/6 385/3/6
f 382/3/6 383/3/6 386/3/6
f 384/3/6 385/3/6 387/3/6
f 358/5/6 360/5/6 388/5/6
f 361/5/6 359/5/6 389/5/6
f 386/3/6 387/3/6 390/3/6
f 382/3/6 386/3/6 390/3/6
f 357/3/6 382/3/6 390/3/6
f 358/5/6 388/5/6 391/5/6
f 390/3/6 387/3/6 391/3/6
f 388/5/6 389/5/6 391/5/6
f 387/3/6 385/3/6 391/3/6
f 375/3/6 371/3/6 391/3/6
f 385/3/6 375/3/6 391/3/6
f 371/3/6 358/3/6 391/3/6
f 389/5/6 359/5/6 392/5/6
f 391/5/6 389/5/6 392/5/6
f 393/1/6 394/1/6 398/1/6
f 398/1/6 394/1/6 399/1/6
f 395/1/6 396/1/6 401/1/6
f 401/1/6 396/1/6 402/1/6
f 397/1/6 398/1/6 403/1/6
f 403/1/6 398/1/6 404/1/6
f 400/1/6 401/1/6 405/1/6
f 405/1/6 401/1/6 406/1/6
f 407/1/6 408/1/6 410/1/6
f 410/1/6 408/1/6 411/1/6
f 409/1/6 410/1/6 413/1/6
f 411/1/6 412/1/6 413/1/6
f 410/1/6 411/1/6 413/1/6
f 413/1/6 412/1/6 414/1/6
f 414/1/6 412/1/6 415/1/6
f 415/1/6 412/1/6 416/1/6
f 414/1/6 415/1/6 417/1/6
f 417/1/6 415/1/6 418/1/6
