# MagicaVoxel @ Ephtracy

# group
g duck

# material
mtllib duck.mtl
usemtl palette

# normals
vn -1 0 0
vn 1 0 0
vn 0 0 1
vn 0 0 -1
vn 0 -1 0
vn 0 1 0

# texcoords
vt 0.0917969 0.5
vt 0.205078 0.5
vt 0.255859 0.5
vt 0.396484 0.5
vt 0.900391 0.5
vt 0.904297 0.5
vt 0.955078 0.5
vt 0.962891 0.5

# verts
v -6 7 4
v -6 7 -1
v -6 10 4
v -6 10 -1
v -5 14 3
v -5 14 -0
v -5 15 2
v -5 15 1
v -5 16 2
v -5 16 1
v -5 17 3
v -5 17 -0
v -4 0 4
v -4 0 -1
v -4 1 4
v -4 1 -1
v -4 5 5
v -4 5 -4
v -4 7 5
v -4 7 4
v -4 7 -1
v -4 7 -4
v -4 10 4
v -4 10 -1
v -4 12 5
v -4 12 -2
v -4 12 -4
v -4 13 5
v -4 13 -2
v -4 14 3
v -4 14 -0
v -4 17 3
v -4 17 -0
v -4 18 5
v -4 18 -2
v -3 1 2
v -3 1 -0
v -3 5 2
v -3 5 -0
v -2 14 7
v -2 14 5
v -2 16 7
v -2 16 5
v 1 0 4
v 1 0 -1
v 1 1 4
v 1 1 -1
v 2 1 2
v 2 1 -0
v 2 5 2
v 2 5 -0
v -2 1 2
v -2 1 -0
v -2 5 2
v -2 5 -0
v -1 0 4
v -1 0 -1
v -1 1 4
v -1 1 -1
v 2 14 7
v 2 14 5
v 2 16 7
v 2 16 5
v 3 1 2
v 3 1 -0
v 3 5 5
v 3 5 2
v 3 5 -0
v 3 5 -4
v 3 7 5
v 3 7 4
v 3 7 -1
v 3 7 -4
v 3 10 4
v 3 10 -1
v 3 12 5
v 3 12 -2
v 3 12 -4
v 3 13 5
v 3 13 -2
v 3 14 3
v 3 14 -0
v 3 17 3
v 3 17 -0
v 3 18 5
v 3 18 -2
v 4 0 4
v 4 0 -1
v 4 1 4
v 4 1 -1
v 4 14 3
v 4 14 -0
v 4 15 2
v 4 15 1
v 4 16 2
v 4 16 1
v 4 17 3
v 4 17 -0
v 5 7 4
v 5 7 -1
v 5 10 4
v 5 10 -1
v -2 14 7
v -2 16 7
v 2 14 7
v 2 16 7
v -4 5 5
v -4 7 5
v -4 12 5
v -4 13 5
v -4 18 5
v -2 14 5
v -2 16 5
v 2 14 5
v 2 16 5
v 3 5 5
v 3 7 5
v 3 12 5
v 3 13 5
v 3 18 5
v -6 7 4
v -6 10 4
v -4 0 4
v -4 1 4
v -4 7 4
v -4 10 4
v -1 0 4
v -1 1 4
v 1 0 4
v 1 1 4
v 3 7 4
v 3 10 4
v 4 0 4
v 4 1 4
v 5 7 4
v 5 10 4
v -5 14 3
v -5 17 3
v -4 14 3
v -4 17 3
v 3 14 3
v 3 17 3
v 4 14 3
v 4 17 3
v -3 1 2
v -3 5 2
v -2 1 2
v -2 5 2
v 2 1 2
v 2 5 2
v 3 1 2
v 3 5 2
v -5 14 -0
v -5 17 -0
v -4 14 -0
v -4 17 -0
v -3 1 -0
v -3 5 -0
v -2 1 -0
v -2 5 -0
v 2 1 -0
v 2 5 -0
v 3 1 -0
v 3 5 -0
v 3 14 -0
v 3 17 -0
v 4 14 -0
v 4 17 -0
v -6 7 -1
v -6 10 -1
v -4 0 -1
v -4 1 -1
v -4 7 -1
v -4 10 -1
v -1 0 -1
v -1 1 -1
v 1 0 -1
v 1 1 -1
v 3 7 -1
v 3 10 -1
v 4 0 -1
v 4 1 -1
v 5 7 -1
v 5 10 -1
v -4 12 -2
v -4 13 -2
v -4 18 -2
v 3 12 -2
v 3 13 -2
v 3 18 -2
v -4 5 -4
v -4 7 -4
v -4 12 -4
v 3 5 -4
v 3 7 -4
v 3 12 -4
v -4 0 4
v -1 0 4
v 1 0 4
v 4 0 4
v -4 0 -1
v -1 0 -1
v 1 0 -1
v 4 0 -1
v -4 5 5
v 3 5 5
v -3 5 2
v -2 5 2
v 2 5 2
v 3 5 2
v -3 5 -0
v -2 5 -0
v 2 5 -0
v 3 5 -0
v -4 5 -4
v 3 5 -4
v -6 7 4
v -4 7 4
v 3 7 4
v 5 7 4
v -6 7 -1
v -4 7 -1
v 3 7 -1
v 5 7 -1
v -2 14 7
v 2 14 7
v -2 14 5
v 2 14 5
v -5 14 3
v -4 14 3
v 3 14 3
v 4 14 3
v -5 14 -0
v -4 14 -0
v 3 14 -0
v 4 14 -0
v -4 1 4
v -1 1 4
v 1 1 4
v 4 1 4
v -3 1 2
v -2 1 2
v 2 1 2
v 3 1 2
v -3 1 -0
v -2 1 -0
v 2 1 -0
v 3 1 -0
v -4 1 -1
v -1 1 -1
v 1 1 -1
v 4 1 -1
v -6 10 4
v -4 10 4
v 3 10 4
v 5 10 4
v -6 10 -1
v -4 10 -1
v 3 10 -1
v 5 10 -1
v -4 12 -2
v 3 12 -2
v -4 12 -4
v 3 12 -4
v -2 16 7
v 2 16 7
v -2 16 5
v 2 16 5
v -5 17 3
v -4 17 3
v 3 17 3
v 4 17 3
v -5 17 -0
v -4 17 -0
v 3 17 -0
v 4 17 -0
v -4 18 5
v 3 18 5
v -4 18 -2
v 3 18 -2

# faces
f 3/4/1 2/4/1 1/4/1
f 4/4/1 2/4/1 3/4/1
f 7/8/1 6/8/1 5/8/1
f 8/8/1 6/8/1 7/8/1
f 9/8/1 7/8/1 5/8/1
f 9/7/1 8/7/1 7/7/1
f 10/8/1 6/8/1 8/8/1
f 10/7/1 8/7/1 9/7/1
f 11/8/1 9/8/1 5/8/1
f 11/8/1 10/8/1 9/8/1
f 12/8/1 6/8/1 10/8/1
f 12/8/1 10/8/1 11/8/1
f 15/3/1 14/3/1 13/3/1
f 16/3/1 14/3/1 15/3/1
f 19/1/1 18/1/1 17/1/1
f 20/1/1 18/1/1 19/1/1
f 21/1/1 18/1/1 20/1/1
f 22/1/1 18/1/1 21/1/1
f 23/4/1 20/4/1 19/4/1
f 24/4/1 22/4/1 21/4/1
f 25/4/1 23/4/1 19/4/1
f 25/4/1 24/4/1 23/4/1
f 26/4/1 22/4/1 24/4/1
f 26/4/1 24/4/1 25/4/1
f 27/4/1 22/4/1 26/4/1
f 28/8/1 26/8/1 25/8/1
f 29/8/1 26/8/1 28/8/1
f 30/6/1 29/6/1 28/6/1
f 31/6/1 29/6/1 30/6/1
f 32/6/1 30/6/1 28/6/1
f 33/6/1 29/6/1 31/6/1
f 34/6/1 32/6/1 28/6/1
f 34/6/1 33/6/1 32/6/1
f 35/6/1 29/6/1 33/6/1
f 35/6/1 33/6/1 34/6/1
f 38/3/1 37/3/1 36/3/1
f 39/3/1 37/3/1 38/3/1
f 42/2/1 41/2/1 40/2/1
f 43/2/1 41/2/1 42/2/1
f 46/3/1 45/3/1 44/3/1
f 47/3/1 45/3/1 46/3/1
f 50/3/1 49/3/1 48/3/1
f 51/3/1 49/3/1 50/3/1
f 52/3/2 53/3/2 54/3/2
f 54/3/2 53/3/2 55/3/2
f 56/3/2 57/3/2 58/3/2
f 58/3/2 57/3/2 59/3/2
f 60/2/2 61/2/2 62/2/2
f 62/2/2 61/2/2 63/2/2
f 64/3/2 65/3/2 67/3/2
f 67/3/2 65/3/2 68/3/2
f 66/1/2 67/1/2 70/1/2
f 68/1/2 69/1/2 70/1/2
f 67/1/2 68/1/2 70/1/2
f 70/1/2 69/1/2 71/1/2
f 71/1/2 69/1/2 72/1/2
f 72/1/2 69/1/2 73/1/2
f 70/4/2 71/4/2 74/4/2
f 72/4/2 73/4/2 75/4/2
f 70/4/2 74/4/2 76/4/2
f 74/4/2 75/4/2 76/4/2
f 75/4/2 73/4/2 77/4/2
f 76/4/2 75/4/2 77/4/2
f 77/4/2 73/4/2 78/4/2
f 76/8/2 77/8/2 79/8/2
f 79/8/2 77/8/2 80/8/2
f 79/6/2 80/6/2 81/6/2
f 81/6/2 80/6/2 82/6/2
f 79/6/2 81/6/2 83/6/2
f 82/6/2 80/6/2 84/6/2
f 79/6/2 83/6/2 85/6/2
f 83/6/2 84/6/2 85/6/2
f 84/6/2 80/6/2 86/6/2
f 85/6/2 84/6/2 86/6/2
f 87/3/2 88/3/2 89/3/2
f 89/3/2 88/3/2 90/3/2
f 91/8/2 92/8/2 93/8/2
f 93/8/2 92/8/2 94/8/2
f 91/8/2 93/8/2 95/8/2
f 93/7/2 94/7/2 95/7/2
f 94/8/2 92/8/2 96/8/2
f 95/7/2 94/7/2 96/7/2
f 91/8/2 95/8/2 97/8/2
f 95/8/2 96/8/2 97/8/2
f 96/8/2 92/8/2 98/8/2
f 97/8/2 96/8/2 98/8/2
f 99/4/2 100/4/2 101/4/2
f 101/4/2 100/4/2 102/4/2
f 105/2/3 104/2/3 103/2/3
f 106/2/3 104/2/3 105/2/3
f 112/6/3 111/6/3 110/6/3
f 113/6/3 111/6/3 112/6/3
f 114/6/3 112/6/3 110/6/3
f 115/6/3 111/6/3 113/6/3
f 116/1/3 108/1/3 107/1/3
f 117/4/3 109/4/3 108/4/3
f 117/1/3 108/1/3 116/1/3
f 118/8/3 110/8/3 109/8/3
f 118/4/3 109/4/3 117/4/3
f 119/6/3 115/6/3 114/6/3
f 119/8/3 110/8/3 118/8/3
f 119/6/3 114/6/3 110/6/3
f 120/6/3 111/6/3 115/6/3
f 120/6/3 115/6/3 119/6/3
f 125/4/3 122/4/3 121/4/3
f 126/4/3 122/4/3 125/4/3
f 127/3/3 124/3/3 123/3/3
f 128/3/3 124/3/3 127/3/3
f 133/3/3 130/3/3 129/3/3
f 134/3/3 130/3/3 133/3/3
f 135/4/3 132/4/3 131/4/3
f 136/4/3 132/4/3 135/4/3
f 139/8/3 138/8/3 137/8/3
f 140/8/3 138/8/3 139/8/3
f 143/8/3 142/8/3 141/8/3
f 144/8/3 142/8/3 143/8/3
f 147/3/3 146/3/3 145/3/3
f 148/3/3 146/3/3 147/3/3
f 151/3/3 150/3/3 149/3/3
f 152/3/3 150/3/3 151/3/3
f 153/8/4 154/8/4 155/8/4
f 155/8/4 154/8/4 156/8/4
f 157/3/4 158/3/4 159/3/4
f 159/3/4 158/3/4 160/3/4
f 161/3/4 162/3/4 163/3/4
f 163/3/4 162/3/4 164/3/4
f 165/8/4 166/8/4 167/8/4
f 167/8/4 166/8/4 168/8/4
f 169/4/4 170/4/4 173/4/4
f 173/4/4 170/4/4 174/4/4
f 171/3/4 172/3/4 175/3/4
f 175/3/4 172/3/4 176/3/4
f 177/3/4 178/3/4 181/3/4
f 181/3/4 178/3/4 182/3/4
f 179/4/4 180/4/4 183/4/4
f 183/4/4 180/4/4 184/4/4
f 185/8/4 186/8/4 188/8/4
f 186/6/4 187/6/4 189/6/4
f 188/8/4 186/8/4 189/8/4
f 189/6/4 187/6/4 190/6/4
f 191/1/4 192/1/4 194/1/4
f 192/4/4 193/4/4 195/4/4
f 194/1/4 192/1/4 195/1/4
f 195/4/4 193/4/4 196/4/4
f 201/3/5 198/3/5 197/3/5
f 202/3/5 198/3/5 201/3/5
f 203/3/5 200/3/5 199/3/5
f 204/3/5 200/3/5 203/3/5
f 207/1/5 206/1/5 205/1/5
f 208/1/5 206/1/5 207/1/5
f 209/1/5 206/1/5 208/1/5
f 210/1/5 206/1/5 209/1/5
f 211/1/5 207/1/5 205/1/5
f 212/1/5 209/1/5 208/1/5
f 213/1/5 209/1/5 212/1/5
f 215/1/5 211/1/5 205/1/5
f 215/1/5 214/1/5 213/1/5
f 215/1/5 213/1/5 212/1/5
f 215/1/5 212/1/5 211/1/5
f 216/1/5 214/1/5 215/1/5
f 221/4/5 218/4/5 217/4/5
f 222/4/5 218/4/5 221/4/5
f 223/4/5 220/4/5 219/4/5
f 224/4/5 220/4/5 223/4/5
f 227/2/5 226/2/5 225/2/5
f 228/2/5 226/2/5 227/2/5
f 233/8/5 230/8/5 229/8/5
f 234/8/5 230/8/5 233/8/5
f 235/8/5 232/8/5 231/8/5
f 236/8/5 232/8/5 235/8/5
f 237/3/6 238/3/6 241/3/6
f 241/3/6 238/3/6 242/3/6
f 239/3/6 240/3/6 243/3/6
f 243/3/6 240/3/6 244/3/6
f 237/3/6 241/3/6 245/3/6
f 242/3/6 238/3/6 246/3/6
f 239/3/6 243/3/6 247/3/6
f 244/3/6 240/3/6 248/3/6
f 237/3/6 245/3/6 249/3/6
f 245/3/6 246/3/6 249/3/6
f 246/3/6 238/3/6 250/3/6
f 249/3/6 246/3/6 250/3/6
f 247/3/6 248/3/6 251/3/6
f 239/3/6 247/3/6 251/3/6
f 248/3/6 240/3/6 252/3/6
f 251/3/6 248/3/6 252/3/6
f 253/4/6 254/4/6 257/4/6
f 257/4/6 254/4/6 258/4/6
f 255/4/6 256/4/6 259/4/6
f 259/4/6 256/4/6 260/4/6
f 261/4/6 262/4/6 263/4/6
f 263/4/6 262/4/6 264/4/6
f 265/2/6 266/2/6 267/2/6
f 267/2/6 266/2/6 268/2/6
f 269/8/6 270/8/6 273/8/6
f 273/8/6 270/8/6 274/8/6
f 271/8/6 272/8/6 275/8/6
f 275/8/6 272/8/6 276/8/6
f 277/6/6 278/6/6 279/6/6
f 279/6/6 278/6/6 280/6/6
